<svg xmlns="http://www.w3.org/2000/svg" viewBox="0 0 500 500"><g id="freepik--Shadow--inject-31"><ellipse id="freepik--path--inject-31" cx="250" cy="416.24" rx="193.89" ry="11.32" style="fill:#f5f5f5"></ellipse></g><g id="freepik--plants-2--inject-31"><path d="M279.87,399H443s-5.15-4-18.77-5.14c0,0,28.31-19.73,16.28-30.16-10.69-9.26-25.85,18.64-25.85,18.64s29-51.91,8.06-62.06S384,362.62,384,362.62s1.53-23.1-14.6-25.21c-14.19-1.86-22.69,15.32-12.81,40.5,0,0-11.17-16-29.3-7.69-16.29,7.42-2.13,22.36-2.13,22.36S299.57,393.7,279.87,399Z" style="fill:#099AFF"></path><g style="opacity:0.1"><path d="M279.87,399H443s-5.15-4-18.77-5.14c0,0,28.31-19.73,16.28-30.16-10.69-9.26-25.85,18.64-25.85,18.64s29-51.91,8.06-62.06S384,362.62,384,362.62s1.53-23.1-14.6-25.21c-14.19-1.86-22.69,15.32-12.81,40.5,0,0-11.17-16-29.3-7.69-16.29,7.42-2.13,22.36-2.13,22.36S299.57,393.7,279.87,399Z"></path></g><path d="M393.74,382.19c-2.1-7-22.09-3-22.09-3s21-13.1,19-17.2-21.62,10.63-21.62,10.63,21.91-23.47,16.31-27.2c-4.71-3.14-14.51,12.54-17.5,17.58,3.4-5.89,15.36-27.12,12-27.84-3.91-.83-16.36,25.58-16.36,25.58s14.26-41.43,5.36-28.72S349,384.87,349,384.87c10.23,14.88,38.86,17.56,36.92,10.2-1.45-5.49-7.5-6.63-10.46-6.85C380.55,388.3,395.48,388.06,393.74,382.19Z" style="fill:#099AFF"></path><path d="M393.74,382.19c-2.1-7-22.09-3-22.09-3s21-13.1,19-17.2-21.62,10.63-21.62,10.63,21.91-23.47,16.31-27.2c-4.71-3.14-14.51,12.54-17.5,17.58,3.4-5.89,15.36-27.12,12-27.84-3.91-.83-16.36,25.58-16.36,25.58s14.26-41.43,5.36-28.72S349,384.87,349,384.87c10.23,14.88,38.86,17.56,36.92,10.2-1.45-5.49-7.5-6.63-10.46-6.85C380.55,388.3,395.48,388.06,393.74,382.19Z" style="fill:#fff;opacity:0.2"></path><path d="M318,376.69s-14.45,3.75-13.45,7.35S318,387.16,318,387.16a24.75,24.75,0,0,0,4.11,8.75h28.82c3.21-6.4,13.45-27.5,10.9-31.74-3-5-9.35,11.17-9.35,11.17s11.46-36.62,7.32-40.64S348,366.22,348,366.22s4-41.66,0-43.88-6,37.71-6,37.71-2.74-42.24-7.78-41.61,0,37.54,0,37.54S323,327.89,318,329s8.13,29.07,8.13,29.07-13.36-16.87-17.23-12.91,11.95,22.43,11.95,22.43-13.56-8.45-17.07-4.23S318,376.69,318,376.69Z" style="fill:#099AFF"></path><path d="M318,376.69s-14.45,3.75-13.45,7.35S318,387.16,318,387.16a24.75,24.75,0,0,0,4.11,8.75h28.82c3.21-6.4,13.45-27.5,10.9-31.74-3-5-9.35,11.17-9.35,11.17s11.46-36.62,7.32-40.64S348,366.22,348,366.22s4-41.66,0-43.88-6,37.71-6,37.71-2.74-42.24-7.78-41.61,0,37.54,0,37.54S323,327.89,318,329s8.13,29.07,8.13,29.07-13.36-16.87-17.23-12.91,11.95,22.43,11.95,22.43-13.56-8.45-17.07-4.23S318,376.69,318,376.69Z" style="opacity:0.30000000000000004"></path><path d="M347.48,384h.09a.49.49,0,0,0,.38-.59c-.09-.45-9.61-45.69-30-64.77a.5.5,0,0,0-.69.73c20.2,18.86,29.65,63.79,29.74,64.24A.5.5,0,0,0,347.48,384Z" style="fill:#263238"></path><path d="M314.94,319.07a2.64,2.64,0,1,0,2.57-2.7A2.64,2.64,0,0,0,314.94,319.07Z" style="fill:#263238"></path><path d="M324,340.09a2.25,2.25,0,1,0,2.19-2.31A2.25,2.25,0,0,0,324,340.09Z" style="fill:#263238"></path><path d="M333.76,333.3A2.25,2.25,0,1,0,336,331,2.25,2.25,0,0,0,333.76,333.3Z" style="fill:#263238"></path><path d="M327.15,348.17a2.26,2.26,0,0,0,2.31,2.19,2.25,2.25,0,1,0-2.31-2.19Z" style="fill:#263238"></path><path d="M337.35,344.68a2.25,2.25,0,1,0,2.2-2.31A2.25,2.25,0,0,0,337.35,344.68Z" style="fill:#263238"></path><path d="M325.54,321.44a2.25,2.25,0,1,0,2.19-2.31A2.25,2.25,0,0,0,325.54,321.44Z" style="fill:#263238"></path><path d="M328.59,332.89l-.3-11.52a.49.49,0,0,0-.51-.49.51.51,0,0,0-.49.51l.27,10.25L318,329.52a.52.52,0,0,0-.6.39.5.5,0,0,0,.38.59Z" style="fill:#263238"></path><path d="M333.67,342.45l2.82-9.06a.5.5,0,1,0-.95-.3L333,341.3,326.3,340a.5.5,0,0,0-.19,1Z" style="fill:#263238"></path><path d="M337.74,351.78l2.34-7a.5.5,0,0,0-.32-.63.49.49,0,0,0-.63.32l-2,6-7.54-2.84a.5.5,0,0,0-.35.94Z" style="fill:#263238"></path><path d="M315.61,330.33a2.25,2.25,0,1,0,4.5-.11,2.25,2.25,0,0,0-4.5.11Z" style="fill:#263238"></path><path d="M371.29,391.4a.48.48,0,0,0,.4-.21c10.56-14.56,23.6-30.46,40.31-37.9a.51.51,0,0,0,.25-.67.5.5,0,0,0-.66-.25c-16.93,7.55-30.08,23.56-40.71,38.24a.49.49,0,0,0,.12.69A.46.46,0,0,0,371.29,391.4Z" style="fill:#263238"></path><path d="M414.26,353.75a2.64,2.64,0,1,1-1.54-3.39A2.63,2.63,0,0,1,414.26,353.75Z" style="fill:#263238"></path><path d="M398.89,370.68a2.25,2.25,0,1,1-1.32-2.9A2.26,2.26,0,0,1,398.89,370.68Z" style="fill:#263238"></path><path d="M391.83,361.06a2.25,2.25,0,1,1-4.22-1.58,2.25,2.25,0,0,1,4.22,1.58Z" style="fill:#263238"></path><path d="M393.22,377.27a2.25,2.25,0,1,1-1.32-2.9A2.25,2.25,0,0,1,393.22,377.27Z" style="fill:#263238"></path><path d="M384.72,370.65a2.25,2.25,0,1,1-1.32-2.9A2.27,2.27,0,0,1,384.72,370.65Z" style="fill:#263238"></path><path d="M403.47,352.53a2.25,2.25,0,1,1-1.32-2.9A2.27,2.27,0,0,1,403.47,352.53Z" style="fill:#263238"></path><path d="M410,363.93a2.25,2.25,0,1,1-1.32-2.9A2.25,2.25,0,0,1,410,363.93Z" style="fill:#263238"></path><path d="M407.93,363.64a.5.5,0,0,0,.06-1l-9.76-1.13,3.6-9.61a.51.51,0,0,0-.3-.64.49.49,0,0,0-.64.29l-4,10.8,11,1.28Z" style="fill:#263238"></path><path d="M396.63,370.8a.5.5,0,0,0,.06-1l-6.73-.93.26-8.6a.5.5,0,0,0-.49-.51.52.52,0,0,0-.51.48l-.29,9.49,7.63,1.06Z" style="fill:#263238"></path><path d="M382,377.23l9.09-.25a.49.49,0,0,0,.49-.51.52.52,0,0,0-.51-.49l-8.06.22.07-6.34a.5.5,0,0,0-.5-.5h0a.49.49,0,0,0-.5.49Z" style="fill:#263238"></path><path d="M283.93,398.56H404.17s-30.41-9.92-31.17-12.73-.73-4.76-4.44-7.21-8.79-3.95-10.2-6.63-5.78-7-7.29-8.27-19.55,7.81-19.76,8-5.23,10.05-6.94,12.25-13.51-.49-16.33,1.84-12.29,8.34-12.29,8.34S291.1,393.53,283.93,398.56Z" style="fill:#263238"></path><path d="M283.93,398.56H404.17s-30.41-9.92-31.17-12.73-.73-4.76-4.44-7.21-8.79-3.95-10.2-6.63-5.78-7-7.29-8.27-19.55,7.81-19.76,8-5.23,10.05-6.94,12.25-13.51-.49-16.33,1.84-12.29,8.34-12.29,8.34S291.1,393.53,283.93,398.56Z" style="fill:#fff;opacity:0.2"></path></g><g id="freepik--plants-1--inject-31"><path d="M228.94,399H73.74s6.7-2.71,23.86-4.24c0,0-23.56-6.24-24-16S94.44,382,94.44,382,65,358.51,70.84,346.93s25,3.28,32,17.2c0,0-22.61-51.34-.93-57.24s29.8,52.95,29.8,52.95S125,322.87,148,323s7.43,46.92,7.43,46.92,13.13-20.31,30.09-11.5-7.65,32.37-7.65,32.37S203.48,391.91,228.94,399Z" style="fill:#099AFF"></path><path d="M228.94,399H73.74s6.7-2.71,23.86-4.24c0,0-23.56-6.24-24-16S94.44,382,94.44,382,65,358.51,70.84,346.93s25,3.28,32,17.2c0,0-22.61-51.34-.93-57.24s29.8,52.95,29.8,52.95S125,322.87,148,323s7.43,46.92,7.43,46.92,13.13-20.31,30.09-11.5-7.65,32.37-7.65,32.37S203.48,391.91,228.94,399Z" style="opacity:0.1"></path><path d="M97.57,387.87s10.72-13.47,9.07-15.9S97,383.26,97,383.26s9.22-22.24,5.53-24.07S94,381.65,94,381.65s1-12.08-2-12.41-1.34,13.58-1.34,13.58-2.18-5.07-3.63-4a1,1,0,0,0-.35.76c-1,.76.82,7.95.82,7.95s-10.9-17.85-14.36-17,8.88,15.65,8.88,15.65-21.53-19.79-25.16-16.34S79,389,79,389s-13.38-6.16-15-2.88,14.94,7.18,14.94,7.18-6.7.38-6.09,2.48S85,398.24,91,395.25c0,0-.27-2.44-.73-5.4a14.81,14.81,0,0,0,2.29,2.88s10.46-5.15,11-7.24S97.57,387.87,97.57,387.87Z" style="fill:#099AFF"></path><path d="M97.57,387.87s10.72-13.47,9.07-15.9S97,383.26,97,383.26s9.22-22.24,5.53-24.07S94,381.65,94,381.65s1-12.08-2-12.41-1.34,13.58-1.34,13.58-2.18-5.07-3.63-4a1,1,0,0,0-.35.76c-1,.76.82,7.95.82,7.95s-10.9-17.85-14.36-17,8.88,15.65,8.88,15.65-21.53-19.79-25.16-16.34S79,389,79,389s-13.38-6.16-15-2.88,14.94,7.18,14.94,7.18-6.7.38-6.09,2.48S85,398.24,91,395.25c0,0-.27-2.44-.73-5.4a14.81,14.81,0,0,0,2.29,2.88s10.46-5.15,11-7.24S97.57,387.87,97.57,387.87Z" style="fill:#fff;opacity:0.2"></path><path d="M140.41,399H86.18s6.45-20.89,13.93-17.21c8.56,4.22,9.21-16.33,18.48-9.42,2.9,2.16,2.41,7.26,4.25,9.45,2.84,3.38,5.75,3.07,8.59,4.91C136.51,390.07,138.24,393.77,140.41,399Z" style="fill:#263238"></path><path d="M93,391s7.61-13.71,6.62-16.46-4.82,7.25-4.82,7.25,1.52-23.11-2.18-24.53-1.94,19.84-1.94,19.84-6.87-31.65-12.35-30.84,7.79,31.37,7.79,31.37-8.17-14.11-11.73-12.17,9,16,9,16-6.31-3.93-7.1-1.65S85.67,389.93,93,391Z" style="fill:#099AFF"></path><path d="M93,391s7.61-13.71,6.62-16.46-4.82,7.25-4.82,7.25,1.52-23.11-2.18-24.53-1.94,19.84-1.94,19.84-6.87-31.65-12.35-30.84,7.79,31.37,7.79,31.37-8.17-14.11-11.73-12.17,9,16,9,16-6.31-3.93-7.1-1.65S85.67,389.93,93,391Z" style="opacity:0.30000000000000004"></path><path d="M106.67,399H77.48s5.81-8.9,8.29-7.77c3.23,1.47,5.62-6.59,9.19-4.68,1.25.67.64,2.83,1.43,3.7,1.31,1.43,3,1.15,4.55,1.94C104,393.75,105.14,395.8,106.67,399Z" style="fill:#263238"></path><path d="M106.67,399H77.48s5.81-8.9,8.29-7.77c3.23,1.47,5.62-6.59,9.19-4.68,1.25.67.64,2.83,1.43,3.7,1.31,1.43,3,1.15,4.55,1.94C104,393.75,105.14,395.8,106.67,399Z" style="fill:#fff;opacity:0.2"></path><path d="M154.85,391.7h-.12a.68.68,0,0,1-.59-.75c.08-.62,7.82-62.63,33.19-90.62a.68.68,0,0,1,1-.05.69.69,0,0,1,0,1c-25.08,27.67-32.77,89.25-32.85,89.87A.68.68,0,0,1,154.85,391.7Z" style="fill:#263238"></path><path d="M191.39,300.57a3.57,3.57,0,1,1-3.76-3.35A3.56,3.56,0,0,1,191.39,300.57Z" style="fill:#263238"></path><path d="M181.62,329.89A3,3,0,1,1,178.4,327,3,3,0,0,1,181.62,329.89Z" style="fill:#263238"></path><path d="M167.63,321.85a3,3,0,1,1-3.21-2.87A3,3,0,0,1,167.63,321.85Z" style="fill:#263238"></path><path d="M178.2,341.14a3,3,0,1,1-3.21-2.87A3,3,0,0,1,178.2,341.14Z" style="fill:#263238"></path><path d="M164.07,337.58a3,3,0,1,1-3.21-2.86A3,3,0,0,1,164.07,337.58Z" style="fill:#263238"></path><path d="M177.37,305a3,3,0,1,1-3.21-2.87A3,3,0,0,1,177.37,305Z" style="fill:#263238"></path><path d="M174.55,320.72l-.89-15.56a.68.68,0,0,1,1.35-.08l.79,13.84L188.49,315a.68.68,0,0,1,.4,1.29Z" style="fill:#263238"></path><path d="M168.79,334.17,164,322.27a.67.67,0,0,1,.37-.88.68.68,0,0,1,.88.38l4.36,10.77,8.85-2.53a.68.68,0,0,1,.83.47.66.66,0,0,1-.46.83Z" style="fill:#263238"></path><path d="M164.34,347.19,160.41,338a.67.67,0,0,1,.36-.88.68.68,0,0,1,.89.35l3.37,7.88,9.85-4.67a.67.67,0,1,1,.57,1.22Z" style="fill:#263238"></path><path d="M191.74,315.82a3,3,0,1,1-3.21-2.86A3,3,0,0,1,191.74,315.82Z" style="fill:#263238"></path><path d="M121,399h53.77s-1.7-1.34-6.19-1.7c0,0,9.34-6.5,5.37-9.94-3.52-3.05-8.52,6.15-8.52,6.15s9.55-17.12,2.65-20.46S155.35,387,155.35,387s.51-7.62-4.81-8.31c-4.68-.62-7.48,5.05-4.22,13.35,0,0-3.68-5.26-9.66-2.54-5.37,2.45-.7,7.37-.7,7.37A81.94,81.94,0,0,0,121,399Z" style="fill:#099AFF"></path><path d="M121,399h53.77s-1.7-1.34-6.19-1.7c0,0,9.34-6.5,5.37-9.94-3.52-3.05-8.52,6.15-8.52,6.15s9.55-17.12,2.65-20.46S155.35,387,155.35,387s.51-7.62-4.81-8.31c-4.68-.62-7.48,5.05-4.22,13.35,0,0-3.68-5.26-9.66-2.54-5.37,2.45-.7,7.37-.7,7.37A81.94,81.94,0,0,0,121,399Z" style="opacity:0.30000000000000004"></path><path d="M110,385.82h.09a.51.51,0,0,0,.39-.59c-.1-.46-9.62-45.7-30-64.78a.5.5,0,0,0-.71,0,.48.48,0,0,0,0,.7C100,340,109.42,385,109.52,385.42A.5.5,0,0,0,110,385.82Z" style="fill:#263238"></path><path d="M77.48,320.88a2.64,2.64,0,1,0,2.57-2.71A2.65,2.65,0,0,0,77.48,320.88Z" style="fill:#263238"></path><path d="M86.49,341.89a2.25,2.25,0,1,0,2.19-2.31A2.24,2.24,0,0,0,86.49,341.89Z" style="fill:#263238"></path><path d="M96.31,335.1a2.25,2.25,0,1,0,2.19-2.31A2.25,2.25,0,0,0,96.31,335.1Z" style="fill:#263238"></path><path d="M89.7,350a2.25,2.25,0,1,0,2.19-2.31A2.25,2.25,0,0,0,89.7,350Z" style="fill:#263238"></path><path d="M99.9,346.49a2.25,2.25,0,1,0,2.19-2.31A2.25,2.25,0,0,0,99.9,346.49Z" style="fill:#263238"></path><path d="M88.09,323.24a2.25,2.25,0,0,0,4.5-.11,2.25,2.25,0,1,0-4.5.11Z" style="fill:#263238"></path><path d="M91.13,334.7l-.29-11.53a.52.52,0,0,0-.52-.49.5.5,0,0,0-.48.52l.26,10.25-9.59-2.12a.5.5,0,1,0-.22,1Z" style="fill:#263238"></path><path d="M96.21,344.26,99,335.19a.48.48,0,0,0-.33-.62.49.49,0,0,0-.62.33l-2.56,8.2-6.67-1.31a.5.5,0,0,0-.59.39.51.51,0,0,0,.39.59Z" style="fill:#263238"></path><path d="M100.29,353.59l2.33-7a.51.51,0,0,0-.31-.64.52.52,0,0,0-.64.32l-2,6-7.55-2.84a.5.5,0,0,0-.64.29.5.5,0,0,0,.29.65Z" style="fill:#263238"></path><path d="M78.16,332.14a2.25,2.25,0,1,0,2.19-2.31A2.24,2.24,0,0,0,78.16,332.14Z" style="fill:#263238"></path></g><g id="freepik--Splash--inject-31"><path d="M178.31,378.74c-7.31-14.64-1.88-34.86,11-40,15-5.93,17.61,20.57,37.39,23.93s29.92-9.41,35-25.71c3.16-10.15-.2-34,13.45-34,10.28,0,10.48,14.24,5.34,23.87-5.62,10.53-6.39,27.19-1.58,32.9s14.93-8.11,25.31-7.05,5.15,22.66,9.1,26.52S298,401.46,252.65,404.91C221,407.32,190.74,403.62,178.31,378.74Z" style="fill:#099AFF"></path><path d="M178.31,378.74c-7.31-14.64-1.88-34.86,11-40,15-5.93,17.61,20.57,37.39,23.93s29.92-9.41,35-25.71c3.16-10.15-.2-34,13.45-34,10.28,0,10.48,14.24,5.34,23.87-5.62,10.53-6.39,27.19-1.58,32.9s14.93-8.11,25.31-7.05,5.15,22.66,9.1,26.52S298,401.46,252.65,404.91C221,407.32,190.74,403.62,178.31,378.74Z" style="fill:#fff;opacity:0.5"></path><path d="M277.37,304.76c-1.91-3.27-7.91-.07-9.29,5.6S280.74,310.49,277.37,304.76Z" style="fill:#fff;opacity:0.2"></path><path d="M180.52,362.16c-.66-4.46.5-13.63,6-19.07,6.85-6.75,14.67-4.48,20,8,0,0-6.59-11.21-12.76-9.57-5.72,1.52-11.3,7.65-9.9,21C184.6,369.24,181.18,366.67,180.52,362.16Z" style="fill:#fff;opacity:0.2"></path><path d="M309.42,364.1s-.27-8.34-5.67-9.84-16.35,6.41-16.35,6.41,9.07-6.16,13.84-5.67,4.64,11.34,6.28,11.6S309.56,365.51,309.42,364.1Z" style="fill:#fff;opacity:0.2"></path><path d="M179.79,371.62s10.19,5.67,13.67,4.48,4.18-11.66,14.68-12.13,23.34,9.23,29,9.49,16.22-16.33,26.64-13.11,10.55,9.29,16.09,8.89,9.72-6.43,15.56-4.09S308,382.83,288.85,391,198.25,401.56,179.79,371.62Z" style="fill:#099AFF"></path><path d="M179.79,371.62s10.19,5.67,13.67,4.48,4.18-11.66,14.68-12.13,23.34,9.23,29,9.49,16.22-16.33,26.64-13.11,10.55,9.29,16.09,8.89,9.72-6.43,15.56-4.09S308,382.83,288.85,391,198.25,401.56,179.79,371.62Z" style="fill:#fff;opacity:0.4"></path><path d="M123.75,403.62s4-11.71,15.56-10,11.21,6,14.77,1.47,7.12-4.19,19.51-1.65,40.84,6.67,85.19,5.28,72.36-10.69,78.91-10.53,2.06,3.84,5.49,5.69,9.49-5.72,17.4,7.56-126.85,13.26-126.85,13.26S127.7,413.34,123.75,403.62Z" style="fill:#099AFF"></path><path d="M123.75,403.62s4-11.71,15.56-10,11.21,6,14.77,1.47,7.12-4.19,19.51-1.65,40.84,6.67,85.19,5.28,72.36-10.69,78.91-10.53,2.06,3.84,5.49,5.69,9.49-5.72,17.4,7.56-126.85,13.26-126.85,13.26S127.7,413.34,123.75,403.62Z" style="fill:#fff;opacity:0.5"></path><path d="M132.78,396c3.55-2.47,13.25.34,17.6,3s11.87,4.51,11.87,4.51-4.45,3.48-11.87-2S132.78,396,132.78,396Z" style="fill:#fff;opacity:0.2"></path><path d="M157.57,395a6.75,6.75,0,0,1,4.22-1.39,18.47,18.47,0,0,1,4.5.48,30.66,30.66,0,0,1,8.45,3.27,51,51,0,0,0,16.14,7.16A61,61,0,0,0,199.6,406a68.59,68.59,0,0,0,8.84.21c3-.14,5.94-.3,8.9-.6l8.91-.94c3-.28,6-.48,9.05-.49s6,.12,9,.39c1.51.12,3,.31,4.5.47l4.46.59,8.87,1.37A149.19,149.19,0,0,0,280,408.53a72.84,72.84,0,0,0,17.8-1.38,45.54,45.54,0,0,1-8.81,1.76q-4.47.51-9,.6a132,132,0,0,1-18-1c-11.86-1.64-23.69-3.3-35.51-1.89-5.92.6-11.93,1.3-17.95,1.44a62.88,62.88,0,0,1-18-2,48,48,0,0,1-8.52-3.18c-1.36-.66-2.69-1.4-4-2.18s-2.54-1.66-3.76-2.47a30,30,0,0,0-8.06-3.59,18.52,18.52,0,0,0-4.37-.69A6.57,6.57,0,0,0,157.57,395Z" style="fill:#fff;opacity:0.2"></path><path d="M352.23,394.66c-.62-2.07-7.8.39-9,1.78S352.91,396.93,352.23,394.66Z" style="fill:#fff;opacity:0.2"></path><path d="M338.4,389.12c1.91-1-.8,4.53-3.56,3.94s-1.59-1.35.59-1.95S337.1,389.81,338.4,389.12Z" style="fill:#fff;opacity:0.2"></path><path d="M144.67,321.9c11.14-11.18,20.1,19.28,27.47,33.1,9.62,18,22.36,29.85,32.6,24.22S206,340,219.21,337.55s6.85,33.66,23.21,37,21.09-28.63,32.7-28,5.8,22.55,11.6,28,43.78-30.84,46.42-57,19.52-17.29,17.41-5.39-24.79,33.15-30.6,50.22,25.32.16,37.45,6.51-36.55,36.08-103.19,36.08S145.36,389.6,141.14,379.22s29.64,5.24,31.12-2.46C175.36,360.6,134.56,332.05,144.67,321.9Z" style="fill:#099AFF"></path><path d="M322,394.32a219,219,0,0,1-67.79,10.59c-35,0-63.31-4.23-82.87-9.75-17.65-5-28.2-11-30.2-15.94-4.22-10.37,29.64,5.24,31.12-2.46,3.1-16.16-37.7-44.71-27.59-54.86,11.14-11.18,20.1,19.28,27.47,33.1,9.62,18,22.36,29.85,32.6,24.22S206,340,219.21,337.55s6.85,33.66,23.21,37,21.09-28.63,32.7-28,5.8,22.55,11.6,28,43.78-30.84,46.42-57,19.52-17.29,17.41-5.39-24.79,33.15-30.6,50.22,25.32.16,37.45,6.51C364.76,372.68,349.78,385.11,322,394.32Z" style="fill:#fff;opacity:0.6000000000000001"></path><path d="M148.8,383.62a17.26,17.26,0,0,1-1.38-1.89,4.74,4.74,0,0,1-.49-1.07,1.2,1.2,0,0,1,.19-1.19,1.91,1.91,0,0,1,1.13-.48,6.67,6.67,0,0,1,1.18-.06,20.17,20.17,0,0,1,2.34.25,87.22,87.22,0,0,1,9.08,2.25c2.92.89,6,1.57,8.89.86,4.15-1,4.95-4.79,6.12-8.29.37-1.09,1.35-2.19,2.49-2a2.87,2.87,0,0,1,1.32.77c2,1.69,3.43,3.82,5.62,5.15a81.31,81.31,0,0,0,8.12,4.63,20.55,20.55,0,0,0,8.58,2,18.72,18.72,0,0,0,4.36-.53,9.15,9.15,0,0,0,3.69-1.83c2.15-1.76,3.39-4.51,4.28-7.36.45-1.43.83-2.92,1.23-4.43a29.13,29.13,0,0,1,1.53-4.63,7.66,7.66,0,0,1,1.56-2.31,4.65,4.65,0,0,1,2.89-1.32,5.1,5.1,0,0,1,3,.7,8.79,8.79,0,0,1,2.1,1.77,26.27,26.27,0,0,1,2.8,4.05l2.31,4.06a40,40,0,0,0,5.1,7.37,12.59,12.59,0,0,0,7.11,4.11,10.47,10.47,0,0,0,7.74-2,36.86,36.86,0,0,0,6.57-6c2.07-2.27,4.05-4.67,6.42-6.91a15.08,15.08,0,0,1,4.24-2.94,7,7,0,0,1,2.88-.56A4.7,4.7,0,0,1,274.9,367a5.64,5.64,0,0,1,1.51,2.7,14.56,14.56,0,0,1,.41,2.57c.12,1.64.11,3.2.16,4.72a19.16,19.16,0,0,0,.51,4.28,4.26,4.26,0,0,0,1.92,2.81c1.92,1.2,4.84-.08,7.38-1.52a66,66,0,0,0,7.44-5.25c2.41-1.91,4.77-3.91,7.17-5.9a82.17,82.17,0,0,1,7.52-5.73,16.17,16.17,0,0,1,2.22-1.2,6.48,6.48,0,0,1,1.37-.41,2.93,2.93,0,0,1,1.84.21,3.93,3.93,0,0,1,2,2.41,6.19,6.19,0,0,1,0,2.81c-.33,1.65-.88,3.1-1,4.44a2.87,2.87,0,0,0,.25,1.66,2.12,2.12,0,0,0,1.21.93,12.32,12.32,0,0,0,4.24,0c1.5-.2,3-.48,4.53-.79,3-.62,6-1.34,9.07-2s6.09-1.31,9.18-1.8c1.54-.24,3.1-.44,4.67-.54a18.58,18.58,0,0,1,4.76.19,6.35,6.35,0,0,1,2.3.87,1.81,1.81,0,0,1,.79,1.16,2,2,0,0,1-.31,1.32,11.83,11.83,0,0,1-3.55,3.16,61.37,61.37,0,0,1-8.3,4.27,61.56,61.56,0,0,0,8-4.65,11.52,11.52,0,0,0,3.27-3.09,1.46,1.46,0,0,0,.2-.9,1.14,1.14,0,0,0-.54-.68,5.46,5.46,0,0,0-2.05-.68,18.07,18.07,0,0,0-4.53,0c-6.79.71-13.4,3.33-19.6,6.11-4.76,2.14-10.08,4-15.11,2.6a4.49,4.49,0,0,1-1.76-.84c-1.58-1.39-1.12-4.2-2.72-5.56s-3.69-.52-5.42.31c-5.73,2.78-10.44,6.78-15.84,10a19.9,19.9,0,0,1-4.55,2.08,8.61,8.61,0,0,1-2.74.37,7,7,0,0,1-2.84-.79,6.08,6.08,0,0,1-2.2-2c-1.47-2.17-1.69-5-3.22-7.27a4,4,0,0,0-.86-1,3.52,3.52,0,0,0-1.79-.61c-3.43-.37-6.73,1.42-9.46,3.55-3.73,2.92-7.07,6.37-11.8,7.65a12.07,12.07,0,0,1-5.25.26,14.07,14.07,0,0,1-4.83-1.82c0-.47-3.78-2.87-4.33-3.35-1.62-1.44-3.07-3.11-4.58-4.68a12.22,12.22,0,0,0-1.39-1.3c-2.8-2.1-5.61-1.11-7.67,1.31-1.25,1.47-2.26,3.14-3.55,4.58-6.43,7.16-16.62,6.21-24.5,2.41-5.59-2.7-14.15-12.49-17.19-2.17-.41,1.42-1,2.92-2.37,3.58a5.69,5.69,0,0,1-3.63.13,55.53,55.53,0,0,1-9.37-2.84l-2.48-.92c-2.57-1-5.4-2.64-8.15-2.79a3.08,3.08,0,0,0-2.14.36,1,1,0,0,0-.19,1,4.62,4.62,0,0,0,.43,1.06A17.56,17.56,0,0,0,148.8,383.62Z" style="fill:#fff;opacity:0.2"></path><path d="M153.15,341.55s-10.88-13.07-7.51-18,10.09-.58,11.67,4.76-4.41,4.67-6.16,4.41S153.15,341.55,153.15,341.55Z" style="fill:#fff;opacity:0.2"></path><path d="M222.19,340c-1.1-3.68-6.93.79-7.32,5.34S224.36,347.29,222.19,340Z" style="fill:#fff;opacity:0.2"></path><path d="M218.68,352.7c-.29-1.67,3.59-2.5,4.84,0S219.58,357.88,218.68,352.7Z" style="fill:#fff;opacity:0.2"></path><path d="M342.45,302c3.91-1.05,5.74,4.94,2,9.69s-5.74-6.16-6.33-4.86-3.36,6.44-3.36,11C334.74,317.81,334.34,304.16,342.45,302Z" style="fill:#fff;opacity:0.2"></path><path d="M322,394.32a219,219,0,0,1-67.79,10.59c-35,0-63.31-4.23-82.87-9.75,3.19.39,6.69.43,9.11-.6,5.54-2.37,9.5-2,14.64,1.58s14.24,6.09,24.53,5.32,7.91-5.12,20-3.14,10.54,5.33,24.76,5.3,22-6.47,30.68-8.26C302.39,393.84,305.35,398.77,322,394.32Z" style="fill:#099AFF"></path><path d="M322,394.32a219,219,0,0,1-67.79,10.59c-35,0-63.31-4.23-82.87-9.75,3.19.39,6.69.43,9.11-.6,5.54-2.37,9.5-2,14.64,1.58s14.24,6.09,24.53,5.32,7.91-5.12,20-3.14,10.54,5.33,24.76,5.3,22-6.47,30.68-8.26C302.39,393.84,305.35,398.77,322,394.32Z" style="fill:#fff;opacity:0.5"></path><path d="M376.18,402.83a5.82,5.82,0,0,1-4.21-7c.6-2.3.23-4.33-5.32-4.68s-9.82,3.1-13.9,5.89c-3.38,2.32-6.68,4.18-10.63,3-6-1.75-7.63-5.87-12.65-7.9a17.35,17.35,0,0,0-6.26-1.15,33.81,33.81,0,0,0-3.51.13c-14.15,1.25-27.95,17-50.37,19.11s-49.85-1.84-70.68-6.37S171,403.92,162,406c-6.39,1.5-19.28-1.67-29.64-5.25a112.92,112.92,0,0,1-10.71-4.24c-9.64-4.52-13.45-1.32-13.92,1.95s6.9,6.77-3.18,10.05l-.17.06-.7.21C89.52,413.12,81,416.24,81,416.24H420.19S402.69,409.9,376.18,402.83Z" style="fill:#099AFF"></path><path d="M376.18,402.83a5.82,5.82,0,0,1-4.21-7c.6-2.3.23-4.33-5.32-4.68s-9.82,3.1-13.9,5.89c-3.38,2.32-6.68,4.18-10.63,3-6-1.75-7.63-5.87-12.65-7.9a17.35,17.35,0,0,0-6.26-1.15,33.81,33.81,0,0,0-3.51.13c-14.15,1.25-27.95,17-50.37,19.11s-49.85-1.84-70.68-6.37S171,403.92,162,406c-6.39,1.5-19.28-1.67-29.64-5.25a112.92,112.92,0,0,1-10.71-4.24c-9.64-4.52-13.45-1.32-13.92,1.95s6.9,6.77-3.18,10.05l-.17.06-.7.21C89.52,413.12,81,416.24,81,416.24H420.19S402.69,409.9,376.18,402.83Z" style="fill:#fff;opacity:0.7000000000000001"></path><path d="M109.9,399.57a2.41,2.41,0,0,1,.54-1.87,3,3,0,0,1,1.87-.83,12,12,0,0,1,4,.39,37.18,37.18,0,0,1,7.28,2.84c2.26,1.06,4.63,2,7,2.85s4.77,1.7,7.19,2.45c4.82,1.43,9.74,2.86,14.54,3.25a51.52,51.52,0,0,0,7.35,0,43,43,0,0,0,7.22-1.26c4.82-1.22,9.9-2.87,15.25-3.31a71.91,71.91,0,0,1,15.68,1c10.21,1.54,20.13,4.08,30.13,6.3-5.13-.26-10.22-1-15.3-1.56s-10.15-1.25-15.2-1.74c-2.53-.24-5-.4-7.56-.51a48.82,48.82,0,0,0-7.38.16,67.37,67.37,0,0,0-7.25,1.45c-2.42.62-4.84,1.39-7.39,2a45.35,45.35,0,0,1-7.9,1.28,46.13,46.13,0,0,1-8-.17,50.48,50.48,0,0,1-7.81-1.59c-2.52-.69-5-1.51-7.41-2.41A97.86,97.86,0,0,1,122.56,402c-1.16-.65-2.15-1.32-3.27-1.92a29.15,29.15,0,0,0-3.39-1.61,11,11,0,0,0-3.55-.91,2.77,2.77,0,0,0-1.68.4A2.26,2.26,0,0,0,109.9,399.57Z" style="fill:#fff;opacity:0.5"></path><path d="M266.16,413.15a71.13,71.13,0,0,0,13.61-2.77c2.21-.64,4.41-1.34,6.57-2.13,1.09-.38,2.17-.76,3.24-1.19s2.14-.83,3.2-1.29a120.43,120.43,0,0,0,12.37-6c4-2.25,8.47-4.66,13.47-5.47a20.47,20.47,0,0,1,7.68.1,18.14,18.14,0,0,1,7,3.2c.51.37,1,.77,1.48,1.18l1.29,1.12a15.72,15.72,0,0,0,2.6,1.74,11.57,11.57,0,0,0,2.89,1.13,10.58,10.58,0,0,0,3.07.36,11.39,11.39,0,0,0,6-1.81c.87-.57,1.86-1.32,2.81-2s2-1.35,3-2a28.75,28.75,0,0,1,6.44-3,14.87,14.87,0,0,1,3.49-.68,7,7,0,0,1,3.47.52,7,7,0,0,0-3.42-.09,16.29,16.29,0,0,0-3.27,1,30.51,30.51,0,0,0-5.89,3.5c-.92.68-1.82,1.39-2.69,2.13s-1.69,1.5-2.68,2.33a13.71,13.71,0,0,1-7,2.87,14,14,0,0,1-3.88-.16,14.92,14.92,0,0,1-3.69-1.15,16.22,16.22,0,0,1-3.31-2l-1.4-1.12c-.43-.33-.86-.64-1.3-.94a15.65,15.65,0,0,0-11.93-2.36,31.38,31.38,0,0,0-6.22,1.92c-1,.43-2,.91-3,1.42L307,403.18a97.39,97.39,0,0,1-13,5.61c-1.12.39-2.25.76-3.38,1.09s-2.27.67-3.41,1c-2.28.59-4.59,1.08-6.91,1.52A51.56,51.56,0,0,1,266.16,413.15Z" style="fill:#fff;opacity:0.5"></path><path d="M390.58,409.73c-3.26-1-6.52-2.05-9.84-2.76a31.77,31.77,0,0,0-5-.79c-.41,0-.81,0-1.21,0a11.47,11.47,0,0,0-1.16.14,4,4,0,0,0-1.93.75,4.26,4.26,0,0,0-.52.93,3.92,3.92,0,0,1-1,1.22,9.49,9.49,0,0,1-2.48,1.36,12.93,12.93,0,0,1-5.39.91c-1.84-.1-3.49-.53-5.11-.66a15,15,0,0,0-2.4-.06,11.23,11.23,0,0,0-2.3.44c-3.14.89-6.18,2.52-9.52,3.64a20.08,20.08,0,0,1-2.62.66,9.26,9.26,0,0,1-2.83,0,16.77,16.77,0,0,1-5-1.84c-1.54-.78-3-1.6-4.55-2.21a9.73,9.73,0,0,0-4.74-.79c-3.27.35-6.36,2.07-9.11,4.05a21.21,21.21,0,0,1,4.11-3.1,15.3,15.3,0,0,1,4.87-1.92,10.68,10.68,0,0,1,5.32.53,51.38,51.38,0,0,1,4.77,2,16.53,16.53,0,0,0,4.6,1.51,9.91,9.91,0,0,0,4.6-.75c3.13-1.09,6.15-2.74,9.58-3.77a14.16,14.16,0,0,1,2.73-.48,16.16,16.16,0,0,1,2.71.09c1.78.17,3.47.59,5,.71a11,11,0,0,0,4.66-.66,8.19,8.19,0,0,0,2-1,2.24,2.24,0,0,0,.65-.72,5.08,5.08,0,0,1,.83-1.24,5.2,5.2,0,0,1,2.78-1.07,12.81,12.81,0,0,1,1.39-.1c.45,0,.91,0,1.35.11A31.61,31.61,0,0,1,381,406,78.82,78.82,0,0,1,390.58,409.73Z" style="fill:#fff;opacity:0.5"></path><path d="M229,310.1c7.63-.16,17.12,10,13.76,18.66-2.14,5.52-9.68,4.21-13.88,2.3C220.84,327.41,216.48,310.36,229,310.1Z" style="fill:#099AFF"></path><path d="M229.24,280.49c5.68,0,4,10.29-2.37,8.71S224.23,280.49,229.24,280.49Z" style="fill:#099AFF"></path><path d="M315.48,290.52c-3.3-3.3,3.43-11.18,7.12-5.59S320.49,295.53,315.48,290.52Z" style="fill:#099AFF"></path><path d="M101.33,356.45c1.94-6.08,12.66,3.43,11.6,6.07S99.48,362.25,101.33,356.45Z" style="fill:#099AFF"></path><path d="M398,346.69c5.94,4.89-14,13.49-15.82,12.29S393.55,343,398,346.69Z" style="fill:#099AFF"></path><path d="M173.86,316.89c3.43-4,6.56,6.07,1.17,6.59S170.43,320.85,173.86,316.89Z" style="fill:#099AFF"></path><path d="M229,310.1c7.63-.16,17.12,10,13.76,18.66-2.14,5.52-9.68,4.21-13.88,2.3C220.84,327.41,216.48,310.36,229,310.1Z" style="fill:#fff;opacity:0.7000000000000001"></path><path d="M101.33,356.45c1.94-6.08,12.66,3.43,11.6,6.07S99.48,362.25,101.33,356.45Z" style="fill:#fff;opacity:0.7000000000000001"></path><path d="M398,346.69c5.94,4.89-14,13.49-15.82,12.29S393.55,343,398,346.69Z" style="fill:#fff;opacity:0.7000000000000001"></path><path d="M315.48,290.52c-3.3-3.3,3.43-11.18,7.12-5.59S320.49,295.53,315.48,290.52Z" style="fill:#fff;opacity:0.6000000000000001"></path><path d="M173.86,316.89c3.43-4,6.56,6.07,1.17,6.59S170.43,320.85,173.86,316.89Z" style="fill:#fff;opacity:0.6000000000000001"></path><path d="M229.24,280.49c5.68,0,4,10.29-2.37,8.71S224.23,280.49,229.24,280.49Z" style="fill:#fff;opacity:0.5"></path><path d="M225.15,312.74c2.76-3.73,11.48,1.91,11.48,5.07S221,318.34,225.15,312.74Z" style="fill:#fff;opacity:0.2"></path><path d="M230.53,329.29c-2.72-1.67,8-4.35,10.12-2.44S238.31,334,230.53,329.29Z" style="fill:#fff;opacity:0.2"></path><path d="M225.55,286.69c-.7-1.49,5.33-2.14,5,0S226.6,288.93,225.55,286.69Z" style="fill:#fff;opacity:0.2"></path><path d="M318.25,284.93c.77-2.95,5.15,1.3,4.09,2.85S317.77,286.79,318.25,284.93Z" style="fill:#fff;opacity:0.2"></path><path d="M175,316.89c1.76-.26-.91,3.69-1.7,3.43S173.26,317.15,175,316.89Z" style="fill:#fff;opacity:0.2"></path><path d="M103.18,355.66c1.65-1.31,2.75,3.21.52,3.32S101.74,356.8,103.18,355.66Z" style="fill:#fff;opacity:0.2"></path><path d="M385.37,355.53c-.28,1.18,11.46-6.74,10.29-7.91S386.17,352.27,385.37,355.53Z" style="fill:#fff;opacity:0.2"></path></g><g id="freepik--Drop--inject-31"><path d="M250,119.75S156.48,245,226.62,277.35a55.92,55.92,0,0,0,46.76,0C343.52,245,250,119.75,250,119.75Z" style="fill:#099AFF"></path><path d="M250,119.75S156.48,245,226.62,277.35a55.92,55.92,0,0,0,46.76,0C343.52,245,250,119.75,250,119.75Z" style="fill:#fff;opacity:0.6000000000000001"></path><path d="M250,121.09s45.42,58.21,41.47,111.3-54.1,47.84-72.84,30.86C172.84,221.79,250,121.09,250,121.09Z" style="fill:#099AFF"></path><path d="M250,121.09s-77.16,100.7-31.37,142.16c18.74,17,68.88,22.24,72.84-30.86S250,121.09,250,121.09Z" style="fill:#fff;opacity:0.7000000000000001"></path><path d="M250,123.9s37.72,73.22,29.23,112.31S217.32,270,208.93,238C197.37,193.79,250,123.9,250,123.9Z" style="fill:#099AFF"></path><path d="M249.44,267.27c16.71,0,27.43-4.74,29.38-3,2.73,2.46-9,16.16-29.38,16.16-18.22,0-31.16-13.55-29.69-16.82S233.26,267.27,249.44,267.27Z" style="fill:#099AFF"></path><path d="M250,123.9s37.72,73.22,29.23,112.31S217.32,270,208.93,238C197.37,193.79,250,123.9,250,123.9Z" style="fill:#fff;opacity:0.8"></path><path d="M249.44,267.27c16.71,0,27.43-4.74,29.38-3,2.73,2.46-9,16.16-29.38,16.16-18.22,0-31.16-13.55-29.69-16.82S233.26,267.27,249.44,267.27Z" style="fill:#fff;opacity:0.8"></path><path d="M242.07,225.77c29.33-2.71,33.21,30.74,2.66,33.56S218.18,228,242.07,225.77Z" style="fill:#fff;opacity:0.5"></path><path d="M236,224.05c11.19.53,14.33-19,0-15.08C225.68,211.79,227.4,223.65,236,224.05Z" style="fill:#fff;opacity:0.4"></path><path d="M248.22,268.64c8.16.62,13.59-1.19,14,1.06s-4,8.3-16.49,5.9C235.19,273.57,234.23,267.59,248.22,268.64Z" style="fill:#fff;opacity:0.5"></path></g></svg>