<svg xmlns="http://www.w3.org/2000/svg" viewBox="0 0 500 500"><g id="freepik--background-simple--inject-37"><path d="M409,143.72l-2-3.28c-16.79-27.65-47.13-44.32-79.11-42.3a83,83,0,0,0-12.25,1.69c-29.08,6.22-54.39,28.21-64.88,56.38-6.17,16.57-7.89,35.64-19.6,48.79-15.23,17.11-41.1,17.65-63.84,16.94s-48.63-.1-63.79,17.08C94.06,249.78,91,265.08,91.8,279.49c2,38.15,28.61,72.26,62.42,89.21s73.61,18.48,110.61,11c51.83-10.45,101.13-39.15,130.75-83.46S432.71,191.56,409,143.72Z" style="fill:#f5f5f5"></path></g><g id="freepik--Splash--inject-37"><path d="M479.82,447.67c-3.75.85-7.54,1.54-11.34,2.07-5.88.82-12.05,1.23-17.58-.92-6.06-2.35-11.06-7.63-17.54-8.19-6.17-.53-11.74,3.4-17.67,5.17a26.19,26.19,0,0,1-14.37.16c-2.45-.67-4.8-1.7-7.26-2.34a23.88,23.88,0,0,0-13.95.63c-3.07,1.11-5.9,2.84-9.05,3.7-3.61,1-7.44.75-11.16.33a14.39,14.39,0,0,1-5.5-1.42c-7.47-4.18-.59-18.71,1.6-24.3,2.94-7.48,6.35-15.51,13.32-19.52,2.7-1.55,6.44-4.17,4.71-6.76-1.25-1.87-4.16-1.21-6.08,0-5.18,3.16-11.68,10.82-12.6,16.82-2.44-6.66,2.92-10.07.61-11.16-5.16-.74-4,6.45-5.95,9.67-4,6.45-8,12.94-12.95,18.65A58.24,58.24,0,0,1,317.74,445a100.43,100.43,0,0,1-16.64,5.41L296,451.77a14.23,14.23,0,0,1-6.82-17.57c.93-2.26,2.47-4.36,2.61-6.79s-2.23-5.18-4.44-4.16c-3.34,1.55-.18,7.21-2.31,10.22-1.51,2.12-4.82,1.71-7.12.5s-4.49-3-7.09-3.05c-2.81,0-5.19,2-7,4.17s-3.48,4.59-6,5.81-6.26.54-7.11-2.14c-.78-2.46,1.2-4.85,2.05-7.29s-1.06-6.24-3.31-5-.08,5.14-1.26,7.55-4.69,1.89-7.21,1c-10.56-3.67-21.25-7.4-30.51-13.67S193.39,406,191.22,395c-.49-2.5-1.09-5.57-3.52-6.33-1.41-.44-2.91.13-4.35.45A13.88,13.88,0,0,1,167.9,381c-1.11-2.81-1.33-6.07-3.27-8.39s-6.72-2.3-7.13.69c-.53,3.8,6.37,5.47,5.83,9.27-.31,2.23-3.31,3.18-5.37,2.27s-3.35-3-4.51-4.89l-19.06-31.77c-1.17-1.95-3-4.19-5.2-3.68-3.22.76-2.5,5.61-.89,8.5,9.87,17.8,25.07,43,34.12,64.22l.49,1.15c2.1,5.24,4.74,13-.3,17.9-14.13,13.8-23.84-1.52-38.25,1.24-3.81.73-15.39,5.92-31.52,2-4.7-1.15-9.29-2.81-14.06-3.58-18.92-3-38.11,9.29-56.8,5.07,0,0,35.24,0,46.88,10.83s158.5,30,230.6,27.3S479.82,447.67,479.82,447.67Z" style="fill:#ebebeb"></path><path d="M22,440.94l2.2.35,1.22.2c.46.05,1,.08,1.5.12l1.76.12c.63.06,1.31,0,2,0a60.27,60.27,0,0,0,10.55-1.08c4.14-.72,8.84-1.88,14.17-3.07s11.32-2.44,18-2.28a41.13,41.13,0,0,1,10.28,1.49c3.49.88,7,2.1,10.83,2.86a50.51,50.51,0,0,0,11.91,1.07,55.25,55.25,0,0,0,12.59-2c1.06-.28,2.12-.59,3.19-.91a21.07,21.07,0,0,1,3.3-.74,21.6,21.6,0,0,1,6.89.29c4.61.86,9,3,13.69,4a16.66,16.66,0,0,0,7.27.08,17.24,17.24,0,0,0,6.66-3.28c1.94-1.58,4-3.3,4.74-5.82a11.55,11.55,0,0,0,.55-3.8,19.75,19.75,0,0,0-.51-3.89,43.68,43.68,0,0,0-2.61-7.59c-.54-1.24-1.09-2.49-1.65-3.74l-1.73-3.75c-2.36-5-4.91-10-7.58-15.1C145.87,384.41,140,374.1,134,363.48q-2.27-4-4.54-8a28.91,28.91,0,0,1-2.13-4.19,8.66,8.66,0,0,1-.4-4.76,3.13,3.13,0,0,1,1.5-2,3.44,3.44,0,0,1,1.22-.36,3.34,3.34,0,0,1,1.26.17,5.25,5.25,0,0,1,2,1.4,11.86,11.86,0,0,1,1.47,1.93l5,8.25,10.08,16.79c1.7,2.82,3.39,5.7,5.14,8.52a8.77,8.77,0,0,0,3.47,3.34,4.13,4.13,0,0,0,4.42-.75,2.55,2.55,0,0,0,.57-1,1.83,1.83,0,0,0,.08-.57,1.89,1.89,0,0,0,0-.58,4.06,4.06,0,0,0-1.15-2.06c-1.13-1.22-2.58-2.15-3.71-3.52a3.86,3.86,0,0,1-1-2.49,2.69,2.69,0,0,1,1.3-2.35,4.33,4.33,0,0,1,2.62-.58,5.62,5.62,0,0,1,2.55.8,5.21,5.21,0,0,1,1.84,1.95,12.69,12.69,0,0,1,1.06,2.42c.55,1.66.88,3.37,1.51,5a13.76,13.76,0,0,0,12,8.32,11.28,11.28,0,0,0,1.3,0,9.14,9.14,0,0,0,1.28-.16c.85-.12,1.69-.42,2.58-.58a4.66,4.66,0,0,1,2.76.16,4.17,4.17,0,0,1,2,1.91,19.33,19.33,0,0,1,1.52,5.18,34.18,34.18,0,0,0,3.9,9.88,43.13,43.13,0,0,0,6.52,8.54,62.5,62.5,0,0,0,17.78,12.44,184.46,184.46,0,0,0,20.6,8.13,14.38,14.38,0,0,0,3.67.9,4.14,4.14,0,0,0,3.38-.91,4.22,4.22,0,0,0,.75-3.43c0-.63-.13-1.27-.16-1.92a4,4,0,0,1,.32-2,2.32,2.32,0,0,1,1.68-1.23,2.19,2.19,0,0,1,1.92.79,5.16,5.16,0,0,1,1.21,3.74,5.75,5.75,0,0,1-.57,1.9c-.26.58-.55,1.15-.82,1.72a8.21,8.21,0,0,0-1,3.5,3.36,3.36,0,0,0,1.71,2.89,5.54,5.54,0,0,0,3.49.61,6.58,6.58,0,0,0,3.26-1.49,17.48,17.48,0,0,0,2.61-2.62c1.57-1.91,3.11-4,5.32-5.33a7,7,0,0,1,3.67-1.07,8.38,8.38,0,0,1,3.65,1.08c2.21,1.15,4.18,2.78,6.61,2.94a4.2,4.2,0,0,0,3.26-.88,4.35,4.35,0,0,0,1.19-3.15c0-1.2-.1-2.41-.13-3.65a8,8,0,0,1,.16-1.88,3.11,3.11,0,0,1,1-1.68,2.83,2.83,0,0,1,1.85-.65,3.16,3.16,0,0,1,1.81.72,5,5,0,0,1,1.77,3.28,7.82,7.82,0,0,1-.76,3.63c-.48,1.12-1.08,2.17-1.57,3.25a13.12,13.12,0,0,0-1.09,6.85,14.06,14.06,0,0,0,7.51,11l-.17,0c7-1.89,14.08-3.43,20.58-6.23a55.82,55.82,0,0,0,17.12-11.76,90.5,90.5,0,0,0,12.42-16q1.34-2.11,2.65-4.23c.42-.7.9-1.41,1.27-2.11a9.11,9.11,0,0,0,.79-2.27,33,33,0,0,1,1.21-4.79,4,4,0,0,1,1.54-2,3.91,3.91,0,0,1,2.5-.41h0l0,0a1.25,1.25,0,0,1,.65.63,1.47,1.47,0,0,1,0,.88,8.78,8.78,0,0,1-.55,1.44,17,17,0,0,0-1,2.74,9.52,9.52,0,0,0,.38,5.59l-.44,0a18.22,18.22,0,0,1,2.19-5.75,32.53,32.53,0,0,1,3.49-5,35.54,35.54,0,0,1,4.26-4.24,23.19,23.19,0,0,1,2.4-1.77,8.22,8.22,0,0,1,2.73-1.23,4.35,4.35,0,0,1,3,.19,2.76,2.76,0,0,1,1.47,2.6,4.41,4.41,0,0,1-1.44,2.61,13.7,13.7,0,0,1-2.28,1.82c-.8.53-1.65,1-2.43,1.5a20.58,20.58,0,0,0-2.23,1.71,24.28,24.28,0,0,0-3.68,4.17,50.36,50.36,0,0,0-5.11,9.71l-2,5c-.68,1.65-1.35,3.3-2,5a34.55,34.55,0,0,0-2.32,10.07,9.6,9.6,0,0,0,.93,4.87,6.29,6.29,0,0,0,3.7,3,21.7,21.7,0,0,0,4.81.88,43.91,43.91,0,0,0,4.84.28,22.41,22.41,0,0,0,4.71-.49,23.09,23.09,0,0,0,4.4-1.51c2.82-1.27,5.6-2.68,8.58-3.24A24,24,0,0,1,392,443a51.73,51.73,0,0,1,8.12,2.42,26.12,26.12,0,0,0,15.51.24,71.39,71.39,0,0,0,6.84-2.66,34.86,34.86,0,0,1,6.62-2.23,14.4,14.4,0,0,1,6.57.12c4.18,1.13,7.44,3.6,10.63,5.46a29.93,29.93,0,0,0,4.76,2.4,23.27,23.27,0,0,0,4.75,1.23,37.35,37.35,0,0,0,8.53.15c5.1-.47,9-1.2,11.56-1.68l3.94-.8s-1.33.34-3.92.87-6.46,1.25-11.57,1.75a37.5,37.5,0,0,1-8.56-.12A23,23,0,0,1,451,449a32.08,32.08,0,0,1-4.8-2.4c-3.2-1.86-6.46-4.31-10.57-5.41a14.25,14.25,0,0,0-6.47-.1,34.84,34.84,0,0,0-6.57,2.22,67.92,67.92,0,0,1-6.86,2.68,26.36,26.36,0,0,1-15.68-.21,51.59,51.59,0,0,0-8.08-2.39,23.57,23.57,0,0,0-8.69.21,39.06,39.06,0,0,0-8.51,3.22,20.74,20.74,0,0,1-9.25,2.05,44.49,44.49,0,0,1-4.88-.28,21.52,21.52,0,0,1-4.9-.89,6.7,6.7,0,0,1-3.91-3.18,10,10,0,0,1-1-5.05,34.79,34.79,0,0,1,2.33-10.2c.6-1.66,1.27-3.32,1.95-5l2-5a50.14,50.14,0,0,1,5.14-9.8,24.3,24.3,0,0,1,3.75-4.24,18.51,18.51,0,0,1,2.27-1.75c.81-.53,1.64-1,2.43-1.51a13.45,13.45,0,0,0,2.21-1.76,4,4,0,0,0,1.31-2.34,2.37,2.37,0,0,0-1.24-2.19,3.93,3.93,0,0,0-2.71-.15,7.83,7.83,0,0,0-2.6,1.18,21.94,21.94,0,0,0-2.35,1.74,34.63,34.63,0,0,0-4.2,4.19,32.1,32.1,0,0,0-3.44,4.89,17.73,17.73,0,0,0-2.13,5.6l-.14.83-.3-.79a10,10,0,0,1-.39-5.84,16.32,16.32,0,0,1,1-2.82,10,10,0,0,0,.53-1.36.75.75,0,0,0-.42-1l.07,0a3.57,3.57,0,0,0-2.2.35,3.62,3.62,0,0,0-1.36,1.81,36.18,36.18,0,0,0-1.18,4.72,10,10,0,0,1-.82,2.38c-.41.75-.86,1.42-1.29,2.14-.88,1.41-1.77,2.82-2.65,4.24A91.5,91.5,0,0,1,334,433.89a56.52,56.52,0,0,1-17.26,11.87c-6.57,2.82-13.64,4.36-20.65,6.25l-.09,0-.09,0a14.56,14.56,0,0,1-7.79-11.42,13.52,13.52,0,0,1,1.13-7.12c.5-1.11,1.1-2.15,1.56-3.24a7.37,7.37,0,0,0,.73-3.38,4.45,4.45,0,0,0-1.59-2.93,2.64,2.64,0,0,0-1.51-.61,2.28,2.28,0,0,0-1.5.53,3.91,3.91,0,0,0-.95,3.16c0,1.2.17,2.43.12,3.68a4.86,4.86,0,0,1-1.36,3.51,4.64,4.64,0,0,1-3.64,1,9.12,9.12,0,0,1-3.6-1.15c-1.09-.6-2.12-1.28-3.21-1.84a7.76,7.76,0,0,0-3.42-1,6.43,6.43,0,0,0-3.39,1c-2.11,1.26-3.6,3.29-5.2,5.22a17.54,17.54,0,0,1-2.68,2.7,7.1,7.1,0,0,1-3.51,1.59,5.93,5.93,0,0,1-3.82-.68,3.84,3.84,0,0,1-2-3.32c0-2.75,2.07-4.81,2.42-7.18a4.64,4.64,0,0,0-1.08-3.34,1.63,1.63,0,0,0-1.46-.62,1.83,1.83,0,0,0-1.29.94,3.71,3.71,0,0,0-.26,1.75c0,.62.11,1.25.16,1.9a8.22,8.22,0,0,1,0,2,3.49,3.49,0,0,1-.87,1.85,3.45,3.45,0,0,1-1.81,1,6.69,6.69,0,0,1-2,.11,14.85,14.85,0,0,1-3.81-.93,185.37,185.37,0,0,1-20.65-8.16,62.77,62.77,0,0,1-17.92-12.54,43.81,43.81,0,0,1-6.59-8.64,34.54,34.54,0,0,1-4-10,19,19,0,0,0-1.47-5,3.61,3.61,0,0,0-1.77-1.68,4.11,4.11,0,0,0-2.46-.14c-.85.16-1.69.46-2.59.58a8.62,8.62,0,0,1-1.34.17,12.16,12.16,0,0,1-1.35,0,13.66,13.66,0,0,1-5.19-1.23,13.87,13.87,0,0,1-7.31-7.41c-.65-1.65-1-3.37-1.52-5a11.75,11.75,0,0,0-1-2.32,4.75,4.75,0,0,0-1.66-1.78,4.67,4.67,0,0,0-4.64-.22,2.2,2.2,0,0,0-1.07,1.93,3.37,3.37,0,0,0,.85,2.17c1,1.28,2.5,2.22,3.69,3.49a4.7,4.7,0,0,1,1.27,2.32,3.39,3.39,0,0,1-.06,1.37,3.12,3.12,0,0,1-.69,1.18,4.58,4.58,0,0,1-5,.86,9.18,9.18,0,0,1-3.68-3.52c-1.78-2.86-3.44-5.71-5.15-8.54l-10.08-16.8q-2.47-4.14-4.94-8.23a7.29,7.29,0,0,0-3.25-3.14,2.81,2.81,0,0,0-1.07-.15,2.91,2.91,0,0,0-1,.31,2.59,2.59,0,0,0-1.26,1.68,8.06,8.06,0,0,0,.38,4.47,28.48,28.48,0,0,0,2.09,4.12l4.54,8c6,10.63,11.9,20.94,17.24,31.1,2.67,5.08,5.22,10.12,7.58,15.13l1.73,3.75,1.65,3.75a45.31,45.31,0,0,1,2.63,7.66,20.55,20.55,0,0,1,.51,4,12.18,12.18,0,0,1-.58,3.94,10.93,10.93,0,0,1-.8,1.82,10.8,10.8,0,0,1-1.19,1.57,25.14,25.14,0,0,1-2.88,2.6,17.55,17.55,0,0,1-6.82,3.35,17,17,0,0,1-7.42-.09c-4.81-1.06-9.13-3.19-13.68-4a21.24,21.24,0,0,0-6.78-.3,20,20,0,0,0-3.26.73c-1.07.31-2.13.62-3.2.9a55.26,55.26,0,0,1-12.66,2,51,51,0,0,1-12-1.09c-3.81-.78-7.36-2-10.84-2.89a41.16,41.16,0,0,0-10.22-1.5c-6.64-.18-12.63,1.11-18,2.23s-10,2.31-14.18,3a59,59,0,0,1-10.58,1c-.71,0-1.39,0-2,0l-1.77-.14c-.54-.05-1-.08-1.5-.13l-1.22-.22Z" style="fill:#263238"></path></g><g id="freepik--drops-2--inject-37"><path d="M413.33,63.18s-22.37,32-28,42.41c-3.95,7.27-10.85,23.18.25,42.09,9.3,15.85,21.94,16.78,31.06,16.78,12.82,0,31.56-12.78,31.56-37.29,0,0-.34-13.57-6.41-22.64-4.69-7-27.46-42.62-27.46-42.62Z" style="fill:#f5f5f5"></path><path d="M445.49,127.69s-.32-12.57-5.94-21c-4.31-6.44-25.14-39-25.4-39.44-2.27,3-2.28,7.51-1.71,11.45,1,7,3.17,13.73,5.05,20.51S421,113,420.89,120.1s-2.13,14.36-6.69,19.45a19.69,19.69,0,0,1-14.51,6.63c-5.39,0-11.73-2.37-15.48-6.56a40.73,40.73,0,0,0,3.31,7c8.6,14.68,20.31,15.54,28.75,15.54C428.14,162.21,445.49,150.37,445.49,127.69Z" style="fill:#e0e0e0"></path><path d="M436.25,115.31c.76-.36,2.67,1.87,3.9,6.45a30.48,30.48,0,0,1-1.2,18.38,27.66,27.66,0,0,1-11.33,13.79c-3.89,2.25-6.7,2.33-7,1.49s1.66-2.59,4.33-5.45A39.54,39.54,0,0,0,433,137.45a42.22,42.22,0,0,0,2.63-15C435.69,118.41,435.38,115.68,436.25,115.31Z" style="fill:#fff"></path><path d="M436.45,110.88a2.19,2.19,0,1,1-2.18-2.36A2.27,2.27,0,0,1,436.45,110.88Z" style="fill:#fff"></path><path d="M395.71,104.22c.92.6.69,2.64,0,5.49s-1.72,6.55-2.68,10.68-1.61,7.91-2.24,10.78-1.32,4.78-2.41,4.93-2.33-1.63-3.11-4.82a24.6,24.6,0,0,1-.65-5.68A31.46,31.46,0,0,1,387.76,112a24.37,24.37,0,0,1,3.05-4.84C392.91,104.66,394.84,103.63,395.71,104.22Z" style="fill:#fff"></path><path d="M409.39,101.32c4.39-.87,10.45-6.25,10.45-6.25a105.15,105.15,0,0,0-11.46,1c-2.77.56-8.53,3.25-10.57,4.23.54-.81,1.07-1.62,1.59-2.44,1.56-1,6.69-4.63,8.82-7.76,2.53-3.72,2.68-12.34,2.68-12.34s-5.69,5.74-7.63,8.62S398.75,98,398.75,98l.05,0c-.28.37-.6.76-.93,1.18.12-1.66.49-7.89-.61-11.61-.06-.19-.14-.39-.21-.58-1.37,2-2.71,4.08-4,6,1.6,3,3.66,6.26,4.14,7-1.95,2.47-4.48,5.63-7.26,9a47,47,0,0,0-.64-10.18c-1.54,2.44-2.84,4.58-3.76,6.25,1.3,2.17,2.64,4.22,3.32,5.24-2.41,2.95-5,6-7.48,8.95.11-1.23.25-3.25.28-5.47a42.33,42.33,0,0,0-1.61,6.48l.19.31L380,121c-.09.57-.15,1.14-.21,1.73.36-.38.74-.75,1.1-1.14l.08.18s8.16,4.41,13.5,5,14.57-4,14.57-4-9.22-2.87-13.35-3.33c-3.31-.38-11,.74-14,1.2q4.26-4.58,8.14-9.46v.14s8.84,2.8,14.2,2.43,13.58-6.61,13.58-6.61-9.6-1.1-13.74-.79c-3.32.25-10.29,2.52-12.91,3.41,2.14-2.76,4.2-5.59,6.15-8.49C397.93,101.44,405.26,102.14,409.39,101.32Z" style="fill:#15A0FF;opacity:0.1"></path><path d="M446.29,115a91.8,91.8,0,0,0-13.39,7.44s7.85,1.27,15.08,2A59,59,0,0,0,446.29,115Z" style="fill:#15A0FF;opacity:0.1"></path><path d="M441.22,141.75s1.63.35,4.11.85a38,38,0,0,0,1.3-3.86C443.39,140.43,441.22,141.75,441.22,141.75Z" style="fill:#15A0FF;opacity:0.1"></path><path d="M434.39,93.21a83.67,83.67,0,0,0-13.85,7.09s13,2.44,20.28,2.81C439.33,100.85,437,97.3,434.39,93.21Z" style="fill:#15A0FF;opacity:0.1"></path><path d="M413.33,63.18s.18-.28.95-1.29l0,0,0,0c2,3,10.55,16.16,23.1,35.56q2.35,3.64,4.88,7.58a35.77,35.77,0,0,1,3.89,8.86,59.27,59.27,0,0,1,2,10.09c.09.87.17,1.76.22,2.65s-.06,1.79-.08,2.7-.05,1.81-.17,2.72-.27,1.82-.4,2.73a20.07,20.07,0,0,1-.57,2.73c-.25.9-.42,1.83-.74,2.72s-.64,1.79-1,2.68-.8,1.74-1.19,2.62a37,37,0,0,1-6.8,9.56,35.56,35.56,0,0,1-9.91,7c-.92.47-1.91.77-2.87,1.17s-2,.59-3,.88-2.05.42-3.11.48a30.24,30.24,0,0,1-3.15.11,39.51,39.51,0,0,1-13.28-2.05,29,29,0,0,1-10.94-7.07A40,40,0,0,1,384,145.27a43.53,43.53,0,0,1-4-11.4,39.79,39.79,0,0,1,2.18-22,56.3,56.3,0,0,1,4.52-9.06c1.66-2.79,3.35-5.4,5-7.9,6.48-9.94,12-17.84,15.74-23.3l4.38-6.26,1.16-1.62c.26-.36.41-.54.41-.54s-.12.2-.37.57l-1.11,1.65c-1,1.46-2.45,3.58-4.31,6.32-3.72,5.49-9.15,13.42-15.59,23.38-1.6,2.5-3.28,5.12-4.93,7.9a56.82,56.82,0,0,0-4.46,9,39.36,39.36,0,0,0-2.1,21.77,43,43,0,0,0,4,11.26,39.7,39.7,0,0,0,7.15,10.19,28.53,28.53,0,0,0,10.76,6.94,39,39,0,0,0,13.1,2,29.2,29.2,0,0,0,3.11-.11c1-.06,2-.32,3-.47s2-.52,2.94-.86,1.92-.69,2.82-1.15a34.83,34.83,0,0,0,9.76-6.87,36.58,36.58,0,0,0,6.72-9.42c.39-.87.87-1.69,1.18-2.58l1-2.65c.32-.88.48-1.8.73-2.69a19.22,19.22,0,0,0,.57-2.69c.13-.91.27-1.81.4-2.7s.11-1.8.17-2.69.14-1.79.08-2.66-.12-1.76-.21-2.62a58,58,0,0,0-1.93-10,35.17,35.17,0,0,0-3.81-8.77l-4.85-7.58C424.63,78.22,416.2,65,414.27,61.92h.06C413.55,62.93,413.33,63.18,413.33,63.18Z" style="fill:#263238"></path><path d="M441.21,143.76a2.49,2.49,0,0,1-.17.52,15.35,15.35,0,0,1-.65,1.44,33.6,33.6,0,0,1-3.14,4.88,31.23,31.23,0,0,1-6,6.14,27.48,27.48,0,0,1-9.75,4,37.16,37.16,0,0,1-10.52.65,31.72,31.72,0,0,1-8.41-1.87,25.26,25.26,0,0,1-5.17-2.63,14.27,14.27,0,0,1-1.28-.93c-.28-.22-.42-.34-.41-.36s.63.42,1.8,1.12a28.11,28.11,0,0,0,5.19,2.46,32.71,32.71,0,0,0,8.32,1.73,37.64,37.64,0,0,0,10.37-.68,27.51,27.51,0,0,0,9.58-3.88,32.18,32.18,0,0,0,6-6,38.57,38.57,0,0,0,3.25-4.75C440.88,144.44,441.16,143.74,441.21,143.76Z" style="fill:#263238"></path><path d="M412.85,66.3s0,.08-.1.21l-.34.59c-.31.51-.76,1.26-1.36,2.22-1.2,1.92-3,4.68-5.22,8.05l-7.92,11.82c-3,4.45-6.23,9.35-9.41,14.64a55.53,55.53,0,0,0-4.16,8,38.48,38.48,0,0,0-2.19,8,40.12,40.12,0,0,0,.33,14.07A53.57,53.57,0,0,0,385.2,143c.39,1.06.76,1.86,1,2.41l.26.63a.92.92,0,0,1,.07.22.68.68,0,0,1-.12-.2l-.3-.61c-.26-.54-.66-1.32-1.08-2.38a49.3,49.3,0,0,1-2.89-9.16,39.93,39.93,0,0,1-.45-14.21,38.48,38.48,0,0,1,2.2-8.15,55.39,55.39,0,0,1,4.18-8c3.19-5.3,6.47-10.2,9.46-14.64l8-11.75,5.35-8L412.32,67l.39-.56Z" style="fill:#fff"></path><path d="M261.93,19.3S248.85,38,245.54,44.12c-2.31,4.25-6.35,13.56.14,24.62,5.44,9.27,12.84,9.82,18.18,9.82,7.5,0,18.46-7.48,18.46-21.82,0,0-.2-7.94-3.75-13.25-2.74-4.09-16.07-24.93-16.07-24.93Z" style="fill:#f5f5f5"></path><path d="M280.75,57s-.18-7.35-3.47-12.26C274.76,41,262.57,22,262.41,21.71c-1.32,1.76-1.33,4.39-1,6.69a97,97,0,0,0,3,12,43.6,43.6,0,0,1,2,12.19c-.07,4.15-1.25,8.41-3.92,11.38A11.49,11.49,0,0,1,254,67.86a12.74,12.74,0,0,1-9-3.84,23.39,23.39,0,0,0,1.93,4.13c5,8.59,11.89,9.09,16.83,9.09C270.6,77.24,280.75,70.32,280.75,57Z" style="fill:#e0e0e0"></path><path d="M275.34,49.8c.45-.21,1.57,1.09,2.29,3.77a17.89,17.89,0,0,1-.71,10.76,16.16,16.16,0,0,1-6.62,8.07c-2.28,1.31-3.92,1.36-4.1.87s1-1.52,2.53-3.19a23,23,0,0,0,4.73-7.32A24.47,24.47,0,0,0,275,54C275,51.61,274.84,50,275.34,49.8Z" style="fill:#fff"></path><ellipse cx="274.19" cy="47.21" rx="1.28" ry="1.38" style="fill:#fff"></ellipse><path d="M251.63,43.31c.91.6,1.12,2,1,3.73a37.33,37.33,0,0,1-1,6.09,38.32,38.32,0,0,1-1.74,5.92c-.67,1.6-1.48,2.77-2.56,2.91s-2.21-.85-3-2.79a14.65,14.65,0,0,1,3.36-14.64C249.27,43.12,250.74,42.72,251.63,43.31Z" style="fill:#fff"></path><path d="M259.63,41.62c2.57-.51,6.12-3.66,6.12-3.66a62.23,62.23,0,0,0-6.71.57A38.63,38.63,0,0,0,252.86,41l.93-1.43c.91-.61,3.91-2.71,5.15-4.54,1.48-2.17,1.57-7.22,1.57-7.22a54.42,54.42,0,0,0-4.46,5c-1.13,1.68-2.65,6.79-2.65,6.79l0,0-.55.69a23.2,23.2,0,0,0-.36-6.79c0-.12-.08-.23-.12-.35-.8,1.2-1.59,2.39-2.33,3.54.93,1.75,2.14,3.65,2.42,4.1-1.14,1.44-2.62,3.29-4.25,5.28a27.16,27.16,0,0,0-.38-5.95c-.89,1.43-1.65,2.68-2.19,3.65.76,1.27,1.54,2.47,1.94,3.07-1.41,1.72-2.91,3.52-4.38,5.24.07-.72.15-1.89.16-3.17a25.52,25.52,0,0,0-.93,3.76l.11.18-.16.18c0,.33-.1.66-.13,1,.21-.21.43-.42.64-.64l0,.11s4.77,2.57,7.89,2.95,8.53-2.32,8.53-2.32a63.81,63.81,0,0,0-7.81-1.95c-1.94-.22-6.46.43-8.18.7,1.66-1.78,3.25-3.63,4.77-5.53v.08s5.17,1.64,8.31,1.42,7.94-3.87,7.94-3.87a64.5,64.5,0,0,0-8-.46,44.25,44.25,0,0,0-7.55,2c1.25-1.62,2.46-3.27,3.6-5A31.72,31.72,0,0,0,259.63,41.62Z" style="fill:#15A0FF;opacity:0.1"></path><path d="M278.26,65.27s.95.21,2.39.49a23.52,23.52,0,0,0,.75-2.24C279.52,64.5,278.26,65.27,278.26,65.27Z" style="fill:#15A0FF;opacity:0.1"></path><path d="M281.21,49.64A54.77,54.77,0,0,0,273.39,54s4.58.75,8.82,1.17A34.56,34.56,0,0,0,281.21,49.64Z" style="fill:#15A0FF;opacity:0.1"></path><path d="M274.26,36.87A49,49,0,0,0,266.15,41,118.21,118.21,0,0,0,278,42.66C277.15,41.34,275.8,39.27,274.26,36.87Z" style="fill:#15A0FF;opacity:0.1"></path><path d="M261.93,19.3s.1-.16.55-.76l0,0,0,0c1.21,1.76,6.22,9.43,13.57,20.77L279,43.74A21.1,21.1,0,0,1,281.25,49a34,34,0,0,1,1.16,5.91c.06.52.1,1,.13,1.56s0,1,0,1.59,0,1.06-.1,1.6-.16,1.06-.23,1.6a22.12,22.12,0,0,1-6,11.94,20.83,20.83,0,0,1-5.83,4.11c-.54.27-1.12.45-1.68.69s-1.18.34-1.77.51a15.76,15.76,0,0,1-3.69.35,23,23,0,0,1-7.8-1.21,17,17,0,0,1-6.44-4.16,23.56,23.56,0,0,1-4.25-6.06,26,26,0,0,1-2.34-6.7,23.29,23.29,0,0,1,1.29-12.93,33.29,33.29,0,0,1,2.65-5.31c1-1.63,2-3.16,2.91-4.62,3.8-5.81,7-10.43,9.24-13.61L261,20.55l.69-.94a3.9,3.9,0,0,1,.24-.31,1.74,1.74,0,0,1-.2.34l-.64,1-2.51,3.71c-2.16,3.22-5.33,7.87-9.09,13.7-.93,1.46-1.91,3-2.87,4.62A33.87,33.87,0,0,0,244,47.9a22.94,22.94,0,0,0-1.22,12.69,25.3,25.3,0,0,0,2.31,6.56,23,23,0,0,0,4.17,5.93,16.44,16.44,0,0,0,6.25,4,22.67,22.67,0,0,0,7.64,1.18,15.77,15.77,0,0,0,3.57-.33c.57-.17,1.15-.31,1.71-.5s1.11-.41,1.64-.68a20.15,20.15,0,0,0,5.68-4,21.72,21.72,0,0,0,5.92-11.66c.08-.53.15-1.05.23-1.57s.07-1.05.1-1.57.08-1.05.05-1.55-.07-1-.12-1.53a33.91,33.91,0,0,0-1.12-5.84A21.18,21.18,0,0,0,278.61,44l-2.83-4.44c-7.29-11.39-12.2-19.11-13.3-20.94h0C262.07,19.16,261.93,19.3,261.93,19.3Z" style="fill:#263238"></path><path d="M261.66,21.13a2.74,2.74,0,0,1-.24.48l-.78,1.31c-.69,1.13-1.73,2.75-3,4.73-2.57,4-6.37,9.32-10.11,15.49a32.61,32.61,0,0,0-2.42,4.63,22.14,22.14,0,0,0-1.29,4.68,23.53,23.53,0,0,0,.17,8.2A32.09,32.09,0,0,0,245.52,66a20.5,20.5,0,0,1,.72,1.92,2.61,2.61,0,0,1-.26-.46c-.16-.31-.4-.77-.65-1.39a27.66,27.66,0,0,1-1.73-5.36,23.14,23.14,0,0,1-.28-8.34,22.42,22.42,0,0,1,1.28-4.79,32.2,32.2,0,0,1,2.46-4.72c3.75-6.19,7.6-11.5,10.25-15.43l3.16-4.63c.34-.51.63-.92.86-1.26S261.64,21.12,261.66,21.13Z" style="fill:#fff"></path><path d="M78.29,118.18S64,138.64,60.38,145.29c-2.52,4.64-6.93,14.81.16,26.9,5.94,10.13,14,10.72,19.85,10.72,8.2,0,20.17-8.17,20.17-23.83,0,0-.21-8.68-4.09-14.47-3-4.48-17.55-27.24-17.55-27.24Z" style="fill:#f5f5f5"></path><path d="M98.85,159.41s-.2-8-3.79-13.4C92.3,141.9,79,121.08,78.82,120.81c-1.45,1.92-1.46,4.8-1.09,7.31A105.5,105.5,0,0,0,81,141.24a47.17,47.17,0,0,1,2.18,13.32c-.07,4.53-1.36,9.18-4.28,12.43a12.59,12.59,0,0,1-9.27,4.24,13.94,13.94,0,0,1-9.89-4.2,25.9,25.9,0,0,0,2.11,4.51c5.5,9.38,13,9.93,18.38,9.93C87.76,181.47,98.85,173.91,98.85,159.41Z" style="fill:#e0e0e0"></path><path d="M92.94,151.5c.49-.23,1.71,1.19,2.5,4.12a19.54,19.54,0,0,1-.77,11.75,17.68,17.68,0,0,1-7.24,8.81c-2.49,1.44-4.28,1.49-4.47,1s1.06-1.66,2.76-3.49a25.31,25.31,0,0,0,5.17-8,27.26,27.26,0,0,0,1.68-9.58C92.59,153.48,92.39,151.74,92.94,151.5Z" style="fill:#fff"></path><ellipse cx="91.68" cy="148.67" rx="1.39" ry="1.51" style="fill:#fff"></ellipse><path d="M67,144.41c.91.6,1.07,2.09.9,4a54.23,54.23,0,0,1-1.23,6.69,54.49,54.49,0,0,1-1.81,6.55c-.67,1.76-1.46,3-2.54,3.17s-2.22-.95-3-3.05A16.45,16.45,0,0,1,63,145.86C64.62,144.3,66.15,143.82,67,144.41Z" style="fill:#fff"></path><path d="M96.64,161.73q-1.23-3.79-2.75-7.48l.07.05A40.88,40.88,0,0,0,98.62,149a20.39,20.39,0,0,0-2.15-4.37L96,144c-.19.35-.36.68-.49,1a48.28,48.28,0,0,0-2.1,8.27c-.88-2.05-1.83-4.08-2.84-6.07a40.23,40.23,0,0,0,3.51-6.1c-.7-1.07-1.47-2.28-2.31-3.57-.27.64-.51,1.24-.66,1.71a41.92,41.92,0,0,0-.91,7.22c-.29-.55-.58-1.1-.88-1.65-.1-1.2-.5-5.17-1.59-7.33-1.3-2.57-6.07-5.33-6.07-5.33A57.28,57.28,0,0,0,84.15,139c1,2,5.08,6.13,5.08,6.13l0,0,.37.89c-.89-.58-4.26-2.72-6.67-3.26-2.81-.63-8,1.32-8,1.32a58.6,58.6,0,0,0,6.92,2.49c2,.43,7.13.14,8,.09.77,1.85,1.75,4.25,2.8,6.86a26.06,26.06,0,0,0-6.78-3c-3-.6-8.51,1.62-8.51,1.62a62.92,62.92,0,0,0,7.49,2.5c1.94.37,6.63,0,8.2-.09.89,2.26,1.81,4.64,2.67,7-1.42-1-4.9-3.2-7.49-3.86-3.33-.84-9.56,1.32-9.56,1.32a70.93,70.93,0,0,0,8.19,3.21c2.19.54,7.65.42,9.25.37.28.79.56,1.56.82,2.31a41.84,41.84,0,0,1,1.37,5c.12-.27.24-.54.35-.81-.55-2.21-1.15-4.41-1.84-6.58H97s1.72-1.11,3.54-2.58c0-.27,0-.54,0-.82a35.18,35.18,0,0,0-.58-5A57.71,57.71,0,0,0,96.64,161.73Z" style="fill:#15A0FF;opacity:0.1"></path><path d="M78.29,118.18s.12-.18.6-.83l0,0,0,0c1.32,1.93,6.79,10.31,14.82,22.7l3.12,4.84a22.74,22.74,0,0,1,2.5,5.68,37.12,37.12,0,0,1,1.26,6.46c.06.56.11,1.13.14,1.7s0,1.15,0,1.73,0,1.17-.11,1.75-.17,1.16-.26,1.75a24.2,24.2,0,0,1-6.58,13,22.77,22.77,0,0,1-6.36,4.48c-.59.3-1.23.5-1.84.75s-1.29.38-1.93.56-1.32.27-2,.31a19.6,19.6,0,0,1-2,.08,25.45,25.45,0,0,1-8.52-1.33,18.51,18.51,0,0,1-7-4.54,25.64,25.64,0,0,1-4.63-6.61,27.93,27.93,0,0,1-2.56-7.31,25.53,25.53,0,0,1,1.4-14.12,36.82,36.82,0,0,1,2.9-5.79c1.06-1.79,2.15-3.45,3.18-5.05C68.53,132.07,72,127,74.46,123.54l2.82-4,.74-1,.27-.34a2.36,2.36,0,0,1-.22.37l-.71,1.06-2.73,4c-2.37,3.52-5.83,8.59-9.94,15-1,1.6-2.09,3.27-3.14,5a35.77,35.77,0,0,0-2.84,5.75,25,25,0,0,0-1.34,13.87,27.65,27.65,0,0,0,2.53,7.17A25.33,25.33,0,0,0,64.46,177a18.14,18.14,0,0,0,6.84,4.41,24.68,24.68,0,0,0,8.34,1.28,17.57,17.57,0,0,0,3.91-.36c.62-.19,1.25-.34,1.87-.55s1.21-.44,1.79-.73a22.46,22.46,0,0,0,6.21-4.37,23.68,23.68,0,0,0,6.47-12.76c.09-.57.18-1.14.26-1.71s.07-1.15.11-1.72.09-1.14,0-1.69-.07-1.12-.13-1.67A37,37,0,0,0,99,150.7a22.5,22.5,0,0,0-2.42-5.59l-3.09-4.85c-8-12.44-13.34-20.87-14.55-22.87h0C78.44,118,78.29,118.18,78.29,118.18Z" style="fill:#263238"></path><path d="M96.11,169.68a4.29,4.29,0,0,1-.49,1.27,20.54,20.54,0,0,1-2,3.14,19.57,19.57,0,0,1-3.87,4,17.43,17.43,0,0,1-6.26,2.57,21.9,21.9,0,0,1-12.14-.8,16,16,0,0,1-3.3-1.72c-.37-.24-.63-.46-.81-.6s-.26-.24-.25-.25a25.52,25.52,0,0,0,4.49,2.22,22.6,22.6,0,0,0,11.9.64,17.7,17.7,0,0,0,6.1-2.45,21.33,21.33,0,0,0,3.85-3.79,26.26,26.26,0,0,0,2.09-3C95.88,170.11,96.07,169.66,96.11,169.68Z" style="fill:#263238"></path><path d="M78,120.18a1.93,1.93,0,0,1-.26.52c-.2.33-.48.81-.86,1.43-.76,1.23-1.89,3-3.31,5.16-2.82,4.35-7,10.18-11.05,16.92a35.17,35.17,0,0,0-2.65,5.07,25,25,0,0,0-1.41,5.11,25.61,25.61,0,0,0,.2,9,35,35,0,0,0,1.7,5.86c.51,1.34.85,2.07.8,2.09a2.62,2.62,0,0,1-.28-.5c-.17-.35-.43-.85-.71-1.52a30.88,30.88,0,0,1-1.87-5.85,25.28,25.28,0,0,1-.31-9.11,24.78,24.78,0,0,1,1.4-5.23,36.11,36.11,0,0,1,2.68-5.15c4.11-6.77,8.3-12.56,11.2-16.85L76.7,122l.94-1.38A2.46,2.46,0,0,1,78,120.18Z" style="fill:#fff"></path><path d="M456.76,382.15s-8.6,12.31-10.78,16.32a15.67,15.67,0,0,0,.09,16.18c3.58,6.1,8.44,6.46,11.95,6.46,4.94,0,12.14-4.92,12.14-14.35,0,0-.13-5.22-2.46-8.7-1.81-2.7-10.57-16.4-10.57-16.4Z" style="fill:#f5f5f5"></path><path d="M469.13,407s-.12-4.83-2.28-8.06c-1.66-2.48-9.67-15-9.77-15.17a6,6,0,0,0-.66,4.4,64.57,64.57,0,0,0,1.94,7.9,28.39,28.39,0,0,1,1.31,8,11.53,11.53,0,0,1-2.57,7.48,7.61,7.61,0,0,1-5.59,2.55,8.43,8.43,0,0,1-5.95-2.53,16.06,16.06,0,0,0,1.27,2.72c3.31,5.64,7.82,6,11.06,6C462.46,420.24,469.13,415.69,469.13,407Z" style="fill:#e0e0e0"></path><path d="M465.58,402.2c.29-.13,1,.72,1.5,2.48a11.67,11.67,0,0,1-.47,7.08,10.61,10.61,0,0,1-4.35,5.3c-1.5.86-2.58.9-2.69.57s.64-1,1.66-2.1a15.2,15.2,0,0,0,3.11-4.81,16.19,16.19,0,0,0,1-5.76C465.36,403.39,465.24,402.35,465.58,402.2Z" style="fill:#fff"></path><path d="M465.66,400.5a.84.84,0,1,1-.84-.91A.88.88,0,0,1,465.66,400.5Z" style="fill:#fff"></path><path d="M450,397.94a4,4,0,0,1,1.53,2.88,11.38,11.38,0,0,1-1.71,7.45,4.07,4.07,0,0,1-2.63,1.93,3,3,0,0,1-2.89-1.82,8.35,8.35,0,0,1,2.31-10.07A3,3,0,0,1,450,397.94Z" style="fill:#fff"></path><path d="M456.76,382.15s.06-.11.35-.51l0,0,0,0c.82,1.15,4.12,6.18,9,13.63l1.89,2.91a13.87,13.87,0,0,1,1.51,3.44,21.37,21.37,0,0,1,.77,3.9,9.6,9.6,0,0,1,.06,2.08,12.71,12.71,0,0,1-.22,2.12,14.67,14.67,0,0,1-4,7.9,13.92,13.92,0,0,1-3.86,2.71,10.35,10.35,0,0,1-4.73,1,15.23,15.23,0,0,1-5.16-.81,11.23,11.23,0,0,1-4.27-2.75,15.8,15.8,0,0,1-2.81-4,17,17,0,0,1-1.54-4.43,15.33,15.33,0,0,1,.86-8.54,37.22,37.22,0,0,1,3.67-6.54c2.51-3.82,4.63-6.85,6.1-8.94l1.71-2.39.46-.61a.81.81,0,0,1,.17-.2s0,.08-.13.23l-.41.64-1.63,2.45c-1.42,2.12-3.49,5.18-6,9a37.83,37.83,0,0,0-3.58,6.49,15.07,15.07,0,0,0-.79,8.3,16.55,16.55,0,0,0,1.52,4.29,15.19,15.19,0,0,0,2.72,3.88,10.91,10.91,0,0,0,4.08,2.63,15.07,15.07,0,0,0,5,.77,9.69,9.69,0,0,0,4.51-1,13.19,13.19,0,0,0,3.71-2.6,14.24,14.24,0,0,0,3.88-7.62,14.56,14.56,0,0,0,.22-2.06,9.64,9.64,0,0,0-.05-2,22.07,22.07,0,0,0-.73-3.82,13.83,13.83,0,0,0-1.44-3.35c-.65-1-1.27-2-1.86-2.92-4.78-7.49-8-12.58-8.7-13.8h.05C456.85,382.06,456.76,382.15,456.76,382.15Z" style="fill:#263238"></path><path d="M456.58,383.35a6.71,6.71,0,0,1-.64,1.2c-.45.75-1.12,1.82-2,3.12-1.68,2.63-4.17,6.15-6.62,10.2a21.5,21.5,0,0,0-1.59,3,15.1,15.1,0,0,0-.85,3.06,15.52,15.52,0,0,0,.1,5.36,39.58,39.58,0,0,0,1.43,4.8,5.84,5.84,0,0,1-.63-1.2,17.31,17.31,0,0,1-1.16-3.52,14.88,14.88,0,0,1,.63-8.69,22,22,0,0,1,1.62-3.11c2.48-4.08,5-7.56,6.77-10.13l2.1-3A6.58,6.58,0,0,1,456.58,383.35Z" style="fill:#fff"></path><path d="M106.82,403.26s-6.52,9.32-8.17,12.35a11.86,11.86,0,0,0,.08,12.26c2.7,4.61,6.39,4.88,9,4.88,3.74,0,9.19-3.72,9.19-10.86a14.48,14.48,0,0,0-1.86-6.59c-1.37-2-8-12.41-8-12.41Z" style="fill:#f5f5f5"></path><path d="M116.18,422a13.33,13.33,0,0,0-1.73-6.1c-1.25-1.87-7.32-11.36-7.4-11.48a4.54,4.54,0,0,0-.49,3.33,46.86,46.86,0,0,0,1.47,6,21.66,21.66,0,0,1,1,6.08,8.69,8.69,0,0,1-2,5.66,5.75,5.75,0,0,1-4.23,1.93,6.32,6.32,0,0,1-4.5-1.91,11.71,11.71,0,0,0,1,2.05c2.51,4.28,5.91,4.53,8.37,4.53C111.13,432.1,116.18,428.65,116.18,422Z" style="fill:#e0e0e0"></path><path d="M113.49,418.44c.22-.1.78.54,1.14,1.88a8.88,8.88,0,0,1-.35,5.35,8.12,8.12,0,0,1-3.3,4c-1.14.65-2,.68-2,.43s.48-.75,1.26-1.59a11.28,11.28,0,0,0,2.35-3.64,12.14,12.14,0,0,0,.77-4.37C113.33,419.34,113.24,418.55,113.49,418.44Z" style="fill:#fff"></path><path d="M113.55,417.15a.64.64,0,1,1-.63-.69A.66.66,0,0,1,113.55,417.15Z" style="fill:#fff"></path><path d="M101.69,415.21a4.73,4.73,0,0,1,1.75,2.49,5,5,0,0,1-1.23,5.32,4.66,4.66,0,0,1-2.66,1.47,3,3,0,0,1-2.86-1.36,5.86,5.86,0,0,1,1.83-7.94A3,3,0,0,1,101.69,415.21Z" style="fill:#fff"></path><path d="M106.82,403.26s0-.09.25-.39l0,0,0,0c.63.86,3.14,4.66,6.82,10.29l1.43,2.21a10.27,10.27,0,0,1,1.16,2.61,13.7,13.7,0,0,1,.47,6.16,11.13,11.13,0,0,1-3,6,10.17,10.17,0,0,1-2.93,2.07,7.72,7.72,0,0,1-3.61.79,11.59,11.59,0,0,1-3.93-.61,8.49,8.49,0,0,1-3.25-2.1,11.87,11.87,0,0,1-2.14-3.05,13,13,0,0,1-1.17-3.37,11.67,11.67,0,0,1,.66-6.5,27.7,27.7,0,0,1,2.79-4.95c1.9-2.89,3.52-5.18,4.63-6.76l1.31-1.8a3.52,3.52,0,0,1,.49-.61,6.19,6.19,0,0,1-.4.67l-1.23,1.86c-1.07,1.61-2.63,3.93-4.49,6.84a28,28,0,0,0-2.7,4.9,11.32,11.32,0,0,0-.59,6.26A12.71,12.71,0,0,0,98.55,427a11.54,11.54,0,0,0,2.06,2.92,8,8,0,0,0,3.06,2,11,11,0,0,0,3.76.58,8.63,8.63,0,0,0,6.18-2.7,10.63,10.63,0,0,0,2.92-5.73,13.13,13.13,0,0,0-.42-5.95,10.19,10.19,0,0,0-1.08-2.52c-.49-.76-1-1.5-1.4-2.21-3.61-5.68-6-9.54-6.56-10.47h.05A2.15,2.15,0,0,1,106.82,403.26Z" style="fill:#263238"></path><path d="M106.68,404.17a4.17,4.17,0,0,1-.47.92c-.33.57-.83,1.38-1.47,2.38-1.26,2-3.14,4.66-5,7.72a16.79,16.79,0,0,0-1.2,2.29,11.27,11.27,0,0,0-.58,6.34A37,37,0,0,0,99,427.47a3.32,3.32,0,0,1-.51-.91,13,13,0,0,1-.9-2.66,11.67,11.67,0,0,1-.17-4.2,11,11,0,0,1,.64-2.41,16.2,16.2,0,0,1,1.23-2.37c1.87-3.09,3.8-5.72,5.14-7.66L106,405A3.8,3.8,0,0,1,106.68,404.17Z" style="fill:#fff"></path></g><g id="freepik--drop-1--inject-37"><path d="M263.49,114.06s-59,84.43-74,111.9c-10.42,19.16-28.62,61.14.65,111,24.54,41.82,57.9,44.28,82,44.28,33.82,0,83.26-33.74,83.26-98.4,0,0-.9-35.81-16.91-59.73-12.37-18.48-72.45-112.45-72.45-112.45Z" style="fill:#f5f5f5"></path><path d="M348.34,284.25s-.83-33.15-15.65-55.3c-11.38-17-66.34-102.94-67-104-6,7.93-6,19.81-4.51,30.19,2.66,18.47,8.36,36.23,13.33,54.14s9.26,36.3,9,55-5.61,37.9-17.65,51.32A51.92,51.92,0,0,1,227.5,333c-14.22,0-30.94-6.25-40.82-17.3a107.2,107.2,0,0,0,8.71,18.61c22.71,38.72,53.59,41,75.87,41C302.58,375.33,348.34,344.1,348.34,284.25Z" style="fill:#e0e0e0"></path><path d="M324,251.6c2-.95,7,4.92,10.3,17,3.27,11.88,3.9,30.31-3.18,48.5s-19.73,30.6-29.88,36.38c-10.27,5.94-17.68,6.15-18.46,3.94-.94-2.45,4.38-6.85,11.41-14.4a104.32,104.32,0,0,0,21.32-33c5.57-14.34,6.92-28.87,6.94-39.54S321.68,252.58,324,251.6Z" style="fill:#fff"></path><path d="M324.51,239.9a5.78,5.78,0,1,1-5.76-6.22A6,6,0,0,1,324.51,239.9Z" style="fill:#fff"></path><path d="M217,222.33c1,.62-1,5.18-4,12.42l-1.15,2.85c-.4,1-.75,2-1.16,3.1-.85,2.12-1.6,4.44-2.45,6.86-1.59,4.87-3.17,10.25-4.52,16s-2.22,11.29-2.91,16.37c-.28,2.54-.62,5-.78,7.24-.1,1.14-.24,2.24-.31,3.3s-.14,2.08-.21,3c-.52,7.8-.71,12.77-1.84,12.92s-2.77-4.66-3.68-12.8c-.09-1-.19-2.09-.3-3.2s-.09-2.27-.14-3.48c-.11-2.4,0-5,.09-7.69A103.79,103.79,0,0,1,201.54,245c1.1-2.48,2.12-4.84,3.27-7,.57-1.07,1.08-2.11,1.65-3.07s1.13-1.87,1.66-2.75C212.49,225.31,216.17,221.76,217,222.33Z" style="fill:#fff"></path><path d="M253.1,214.69c11.6-2.29,27.58-16.5,27.58-16.5s-21.3.77-30.25,2.59c-7.29,1.48-22.5,8.59-27.87,11.16q2.12-3.19,4.19-6.45c4.12-2.76,17.64-12.19,23.26-20.46,6.67-9.8,7.06-32.56,7.06-32.56s-15,15.14-20.1,22.75S225,205.85,225,205.85l.15.13-2.46,3.12c.32-4.38,1.28-20.84-1.61-30.63a16.13,16.13,0,0,0-.55-1.56c-3.6,5.4-7.16,10.77-10.53,15.94,4.21,7.9,9.64,16.5,10.92,18.49-5.15,6.5-11.83,14.86-19.17,23.85.19-5.85.28-17.85-1.68-26.87-4.05,6.44-7.48,12.1-9.92,16.49,3.42,5.72,7,11.14,8.78,13.84-6.36,7.76-13.12,15.88-19.75,23.61.29-3.25.68-8.59.73-14.45a113.11,113.11,0,0,0-4.24,17.08l.51.86-.78.89c-.23,1.52-.42,3.06-.58,4.62,1-1,2-2,2.94-3.06l.22.47s21.51,11.62,35.59,13.3,38.46-10.45,38.46-10.45-24.34-7.57-35.23-8.8c-8.74-1-29.13,2-36.85,3.17q11.22-12,21.48-24.94l0,.35s23.31,7.4,37.46,6.41,35.83-17.44,35.83-17.44-25.33-2.9-36.26-2.07c-8.76.67-27.13,6.65-34.06,9q8.49-10.92,16.24-22.4C222.87,215,242.19,216.84,253.1,214.69Z" style="fill:#15A0FF;opacity:0.1"></path><path d="M337.09,321.36s4.29.92,10.87,2.24a101.86,101.86,0,0,0,3.43-10.21C342.8,317.85,337.09,321.36,337.09,321.36Z" style="fill:#15A0FF;opacity:0.1"></path><path d="M319.06,193.28c-18.62,7-36.55,18.72-36.55,18.72s34.27,6.44,53.52,7.41C332.11,213.44,326,204.08,319.06,193.28Z" style="fill:#15A0FF;opacity:0.1"></path><path d="M350.44,250.85a243.64,243.64,0,0,0-35.31,19.65s20.7,3.35,39.79,5.26A155,155,0,0,0,350.44,250.85Z" style="fill:#15A0FF;opacity:0.1"></path><path d="M263.49,114.06s.51-.71,2.54-3.38l0,0,0,0,60.75,94c4.12,6.42,8.46,13,12.85,20A94.16,94.16,0,0,1,349.86,248,154.22,154.22,0,0,1,355,274.52c.24,2.3.44,4.63.57,7a34.84,34.84,0,0,1,0,3.54l-.09,3.56A117.29,117.29,0,0,1,354,302.92a102.17,102.17,0,0,1-9.13,28.27,92.87,92.87,0,0,1-7.89,13.15,93.86,93.86,0,0,1-10.06,11.93,92,92,0,0,1-26,18.33,78.86,78.86,0,0,1-15.4,5.36,67.29,67.29,0,0,1-8.14,1.3l-2.06.18-2.07.06c-1.39.07-2.77,0-4.15,0-11.93-.14-23.9-1.33-34.89-5.4a81.16,81.16,0,0,1-8-3.37c-1.29-.66-2.54-1.4-3.81-2.09l-1.89-1-1.79-1.2-3.57-2.4-3.34-2.69L210.06,362c-.55-.45-1-1-1.56-1.46l-3.07-2.94c-8-8-14.11-17.44-19.07-27.08a111.59,111.59,0,0,1-10.47-30,100.35,100.35,0,0,1-1.17-30.2,111.14,111.14,0,0,1,6.85-27.68,128.29,128.29,0,0,1,5.52-12.42c2-4,4.19-7.75,6.36-11.44l3.29-5.43,3.3-5.27c2.16-3.49,4.36-6.83,6.47-10.14,8.52-13.14,16.43-24.9,23.4-35.2s13-19.14,18-26.35l11.51-16.57c1.32-1.88,2.33-3.31,3-4.29s1.05-1.45,1.05-1.45l-1,1.48-3,4.32-11.42,16.63c-5,7.22-11,16.08-17.94,26.39S215.31,185,206.82,198.12c-2.1,3.31-4.3,6.66-6.46,10.14q-1.62,2.61-3.29,5.27L193.8,219c-2.16,3.68-4.36,7.45-6.34,11.42A131,131,0,0,0,182,242.77a111.41,111.41,0,0,0-6.8,27.58,100.41,100.41,0,0,0,1.19,30.06,111.09,111.09,0,0,0,10.45,29.85c4.94,9.6,11.05,19,19,26.95l3,2.93c.51.47,1,1,1.54,1.44l1.66,1.33,3.31,2.67,3.55,2.39,1.78,1.19,1.88,1c1.26.68,2.49,1.41,3.78,2.06a80.06,80.06,0,0,0,8,3.36c10.92,4,22.82,5.22,34.73,5.36,1.37,0,2.76.06,4.13,0l2.05-.06,2-.18a64.42,64.42,0,0,0,8.08-1.29,77.32,77.32,0,0,0,15.29-5.32,91.56,91.56,0,0,0,25.87-18.22,94.37,94.37,0,0,0,10-11.86A93.41,93.41,0,0,0,344.38,331a101.77,101.77,0,0,0,9.1-28.13,118.35,118.35,0,0,0,1.57-14.27c0-1.19.06-2.37.08-3.54a34.24,34.24,0,0,0,0-3.51c-.13-2.34-.33-4.66-.57-6.95a153.28,153.28,0,0,0-5.12-26.47,94.16,94.16,0,0,0-10.11-23.22c-4.37-6.94-8.72-13.59-12.83-20L266,110.72h.05C264,113.38,263.49,114.06,263.49,114.06Z" style="fill:#263238"></path><path d="M337.05,326.65a39.94,39.94,0,0,1-2.31,5.1,90.54,90.54,0,0,1-8.37,12.77,98.58,98.58,0,0,1-6.87,8,66.5,66.5,0,0,1-9.05,8.06A72.53,72.53,0,0,1,284.85,371a97.47,97.47,0,0,1-27.64,1.74,84,84,0,0,1-22.1-4.81,69.13,69.13,0,0,1-13.66-6.8c-1.53-1-2.65-1.8-3.41-2.37l-.86-.66a1.69,1.69,0,0,1-.28-.23,1.92,1.92,0,0,1,.32.19c.22.15.51.36.89.61.77.54,1.9,1.37,3.45,2.29a71.64,71.64,0,0,0,13.67,6.62,84.78,84.78,0,0,0,22,4.68,98,98,0,0,0,27.5-1.77,72.59,72.59,0,0,0,25.42-10.32,66.82,66.82,0,0,0,9-8,100.68,100.68,0,0,0,6.89-7.93,96.28,96.28,0,0,0,8.48-12.64c.85-1.59,1.49-2.83,1.86-3.7.19-.41.34-.74.46-1A1.71,1.71,0,0,1,337.05,326.65Z" style="fill:#263238"></path><path d="M262.24,122.29l-.3.53c-.23.36-.54.87-.94,1.52-.84,1.34-2.05,3.32-3.66,5.83-3.2,5.05-7.94,12.28-13.87,21.17s-13.09,19.41-21,31.12S206,207.12,197.62,221.09a145.89,145.89,0,0,0-11,21,102.31,102.31,0,0,0-5.8,21.29,105.18,105.18,0,0,0,1,37.24,136,136,0,0,0,7.3,24.16c1.06,2.79,2,4.89,2.67,6.34.31.71.55,1.25.71,1.64s.23.57.23.57-.1-.18-.27-.55-.44-.92-.76-1.62c-.66-1.43-1.67-3.52-2.77-6.3a132.36,132.36,0,0,1-7.47-24.16,105.08,105.08,0,0,1-1.1-37.39,102.09,102.09,0,0,1,5.8-21.41,145.35,145.35,0,0,1,11-21.11c8.39-14,17-26.91,24.91-38.62l21.07-31.07c6-8.85,10.75-16.06,14-21.07,1.61-2.49,2.87-4.44,3.74-5.77l1-1.5C262.11,122.46,262.24,122.29,262.24,122.29Z" style="fill:#fff"></path></g></svg>