<svg xmlns="http://www.w3.org/2000/svg" viewBox="0 0 500 500"><g id="freepik--Plant--inject-126"><g id="freepik--Leaves--inject-126" style="opacity:0.2"><path d="M440.13,313.86c-3.46,8.81-7.38,16.87-13.28,24.36A88.17,88.17,0,0,1,409,355.13a240.79,240.79,0,0,1-21.56,13.34,181.37,181.37,0,0,1-29.22,13.62,120.19,120.19,0,0,1-28.29,6.06,148.08,148.08,0,0,1-23.72.71,174.6,174.6,0,0,1-51.55-10.23c-7.2-2.61-14-6.68-20.71-10.3-3.93-2.1-7.49-5-11.13-7.5-1.58-1.1-3.09-2.38-4.51-3.54s-2.56-2.26-4-3.28l-.73-.48-.48-.31c-.11-.07.14.12.08.09s-.06-.07-.09-.09c-1.8-.74-3.6,0-2.79,2.09,0,.06.16.2.12.1l-.34-.61a7.89,7.89,0,0,0,2.28,3c1.32,1.15,2.44,2.21,3.77,3.2,3.65,2.69,7.08,5.67,11,8,6.82,4,13.74,8.32,21.15,11.07,16.85,6.25,34.36,10.82,52,11.69a172.79,172.79,0,0,0,52.27-5.05c9.93-2.42,20.26-7.31,30-12.43,7.32-3.85,16.3-9.66,23.3-14.34a89.87,89.87,0,0,0,18.27-15.8c6.09-7,10.07-14.84,13.89-23.12a71.14,71.14,0,0,0,2.32-7c.07-.22-.13-.44-.24-.18S440.11,313.9,440.13,313.86Z" style="fill:#0687F3"></path><path d="M444.43,296.45a25.27,25.27,0,0,1-5.49,8.79c-2.48,2.68-5.53,4.61-7.72,7.66a41.28,41.28,0,0,0-7.09,17.86,57.78,57.78,0,0,0-.32,11.39.92.92,0,0,0,.73.89c.42.06.61-.28.6-.67-.15-6.78.33-13.27,2.44-19.72a29.92,29.92,0,0,1,4.51-8.55c2.23-3,5-5.32,7.44-8.18a22.4,22.4,0,0,0,5.11-9.41c.06-.22-.14-.24-.21-.06S444.43,296.49,444.43,296.45Z" style="fill:#0687F3"></path><path d="M444.88,296a16.24,16.24,0,0,0-.21,3.05c0,1.05.1,2.13.17,3.2.12,2.16.43,4.31.42,6.49a49.49,49.49,0,0,1-1.08,11.05A31.34,31.34,0,0,1,439.86,330a37.85,37.85,0,0,1-7.86,8.13c-1.63,1.34-3.49,2.55-5.22,3.77-.88.62-1.78,1.16-2.67,1.73a11,11,0,0,0-1.36.88c-.39.33-.79.65-1.13,1s-.31,1.21.23,1.07a12.43,12.43,0,0,0,2.86-1.26,29.74,29.74,0,0,0,2.56-1.52c1.62-1.09,3.26-2.17,4.78-3.39,3-2.43,6-4.78,8.25-7.95a31.83,31.83,0,0,0,4.92-10.51,42.41,42.41,0,0,0,1-11.57c0-2.37-.52-4.69-.73-7-.11-1.23-.26-2.46-.32-3.69s0-2.46-.13-3.69c0-.12-.12,0-.13.05Z" style="fill:#0687F3"></path><path d="M444.24,346.33a58.19,58.19,0,0,0-7.9,6.05c-1.33,1.17-2.55,2.34-3.89,3.5a39.37,39.37,0,0,1-4.06,3.41c-3.12,2.09-6.18,3.86-10,4.4s-7.57,0-11.38-.6a31.6,31.6,0,0,0-4.75-.81,14.06,14.06,0,0,0-2.88.21,5.35,5.35,0,0,0-3.41,1.7.64.64,0,0,0,.57,1,30.38,30.38,0,0,0,3.45-.78,9.12,9.12,0,0,1,2.25-.06c1.36.09,2.6.48,3.89.66,3.87.54,7.84,1.13,11.67.62a24.33,24.33,0,0,0,10.27-4.06c3-2,5-4.39,7.37-6.86a63.75,63.75,0,0,1,8.81-8c.14-.1.17-.52,0-.4S444.19,346.33,444.24,346.33Z" style="fill:#0687F3"></path><path d="M443.48,346.82c-1.2.38-2.35.81-3.52,1.31s-2.29,1.17-3.52,1.58a26.76,26.76,0,0,1-7.54,1.48c-5.2.22-10.27.42-15.3,2a19,19,0,0,0-3.75,1.81,14.15,14.15,0,0,0-1.73,1.22,11.73,11.73,0,0,0-1.52,1.46c-.41.5.19,1.21.68.91a38.66,38.66,0,0,1,6.93-3.78,29,29,0,0,1,7.24-1.57c5.14-.47,10-.53,14.92-2.24a28.09,28.09,0,0,0,3.44-1.78c1.17-.61,2.44-1.34,3.63-1.93.14-.07.25-.5,0-.43S443.44,346.81,443.48,346.82Z" style="fill:#0687F3"></path><path d="M419.62,323.9a40,40,0,0,1-6.8,6.1,29.85,29.85,0,0,0-6.74,6.63,31.63,31.63,0,0,0-4.09,8.74c-.5,1.59-.82,3.12-1.23,4.87s-.71,3.79-1.32,5.61a28.58,28.58,0,0,1-2.49,5.33,23.29,23.29,0,0,1-1.77,2.58,28,28,0,0,0-2.14,2.83c-.16.3,0,1,.49.73a15.26,15.26,0,0,0,4-4.36,25.28,25.28,0,0,0,2.54-4.68c1.34-3.4,1.87-7.16,2.72-10.52a33.53,33.53,0,0,1,3.48-9.06,31.43,31.43,0,0,1,6.21-7.18c1.31-1.2,2.75-2.19,4-3.41a23.42,23.42,0,0,0,3.24-4c.07-.1.06-.36-.07-.2S419.6,323.92,419.62,323.9Z" style="fill:#0687F3"></path><path d="M419,325.09c-1.65,1.37-2.25,3.21-2.72,5.2-.69,2.85-1,5.6-1.7,8.41a52.1,52.1,0,0,1-5.1,14.22,30.06,30.06,0,0,1-5.81,6.63c-.3.27,0,1.08.36.81a25.37,25.37,0,0,0,8.77-11c2.15-5.09,2.79-10.19,3.71-15.5.28-1.6.38-3.15.68-4.7A7.38,7.38,0,0,1,419,325.3c0-.05.09-.29,0-.21S419,325.08,419,325.09Z" style="fill:#0687F3"></path><path d="M411.53,337.05c-2,3.62-2.89,7.4-4.12,11.32a33.93,33.93,0,0,1-5.31,10.83,31.57,31.57,0,0,1-5.32,4.78c-.34.27,0,1,.36.81a22.92,22.92,0,0,0,8-8.07c2.26-4,3.05-8,4.14-12.26a36.41,36.41,0,0,1,2.34-7.26c0-.08,0-.27-.07-.15S411.5,337.07,411.53,337.05Z" style="fill:#0687F3"></path><path d="M425.65,356.24a35.08,35.08,0,0,1-11,2.46,61.56,61.56,0,0,0-11.15,1.53,17.29,17.29,0,0,0-2.9,1.18,12.1,12.1,0,0,0-1.21.71,4.73,4.73,0,0,0-.7.54,2.4,2.4,0,0,0-.53.73c-.14.28-.17.81.33.69a9.38,9.38,0,0,0,1.48-.6c.53-.24.86-.46,1.51-.76a24.18,24.18,0,0,1,2.47-1,35.89,35.89,0,0,1,5.13-1.15c3.63-.51,7.17-.78,10.77-1.6a24.66,24.66,0,0,0,5.83-2.41c.1,0,.17-.35,0-.28Z" style="fill:#0687F3"></path><path d="M350.15,385.44a14.21,14.21,0,0,0,5.76,8,22.37,22.37,0,0,0,10,3.69c7.85.85,15.65-.08,23.51.77a18.65,18.65,0,0,1,5.6,1.71,29.16,29.16,0,0,1,5.3,3.48c.37.28.51-.35.24-.56-5.7-4.56-11.84-6-19-6.27-4.55-.21-8.71.17-13.18-.18a27.93,27.93,0,0,1-10.45-2.71,14,14,0,0,1-4.16-3.31,15.83,15.83,0,0,1-2.66-4.67c-.21-.5-1.21-.7-1,0Z" style="fill:#0687F3"></path><path d="M363.87,381.75c1.49.09,3.07.25,4.54.42s2.93.18,4.36.39a32.28,32.28,0,0,1,8.06,1.89,35.23,35.23,0,0,1,13.38,9.05c2.55,2.85,4.1,6.29,6.1,9.49.16.27.33-.13.26-.3a37.21,37.21,0,0,0-4.86-8.69,27.48,27.48,0,0,0-6.24-6.18,38.72,38.72,0,0,0-15.41-6.08,37.45,37.45,0,0,0-4.89-.29c-1.68-.06-3.55.16-5.27.23,0,0-.06.07,0,.07Z" style="fill:#0687F3"></path><path d="M353.79,385.64a9,9,0,0,1,3.45-.45c1.21.06,2.67,0,4,.11a74.9,74.9,0,0,1,7.87.79,64.69,64.69,0,0,1,14.28,4.27c1.35.56,2.54,1.35,3.88,2a31.11,31.11,0,0,1,3.86,2.23s.1-.09.05-.12a64,64,0,0,0-6.3-4.07,49.72,49.72,0,0,0-7.19-3.36,59.26,59.26,0,0,0-15.56-3,40.86,40.86,0,0,0-4.57,0,9.12,9.12,0,0,0-4,.91c-.33.17-.16.84.22.71Z" style="fill:#0687F3"></path><path d="M338,374.69a40,40,0,0,0-13.26,6c-2.2,1.44-4.13,3-6.35,4.19a41.63,41.63,0,0,1-6.58,3,32.08,32.08,0,0,1-3.85,1.06c-1.36.3-2.92.28-4.33.58-.46.09-.56.68-.48,1a1.42,1.42,0,0,0,.46.69.82.82,0,0,0,.64.23c.15,0-.27-.05-.15,0a2.63,2.63,0,0,0,.41.07c.2,0,.29,0,.61,0a8.83,8.83,0,0,0,1.14,0,13.22,13.22,0,0,0,1.92-.24c1.15-.27,2.36-.48,3.53-.84a33.75,33.75,0,0,0,7-2.92,62.71,62.71,0,0,0,6.17-4.33c2-1.54,3.83-3.16,6-4.58a30.27,30.27,0,0,1,7.12-3.27c.24-.08.33-.71,0-.64S337.93,374.66,338,374.69Z" style="fill:#0687F3"></path><path d="M354.36,366a33.48,33.48,0,0,0-5.71,5.7,33.61,33.61,0,0,1-5.88,5.56,35.81,35.81,0,0,1-14,5.55c-1.66.33-3.22.4-4.83.84a18.81,18.81,0,0,0-4.73,1.58c-.7.4.15,1.6.8,1.48,1.52-.27,3.08-.83,4.54-1.17s2.77-.47,4.19-.76a38.47,38.47,0,0,0,7.32-2,27.41,27.41,0,0,0,6.64-3.69,37.68,37.68,0,0,0,5.64-5.72c1-1.18,1.89-2.52,2.87-3.73a33.17,33.17,0,0,1,3.2-3.4c.06-.05.13-.29,0-.2S354.33,366,354.36,366Z" style="fill:#0687F3"></path><path d="M354.37,365.92a23.09,23.09,0,0,1-3.95,1.19c-1.38.27-2.81.36-4.24.54-3.09.38-6.09.39-9.17,1.16a27.52,27.52,0,0,0-15,9.38,16.33,16.33,0,0,0-2.34,4.27,15.51,15.51,0,0,1-2.42,4.11c-.37.41,0,1.39.5,1.08,1.25-.7,1.78-1.88,2.46-3.13a32.49,32.49,0,0,1,1.89-4,28.23,28.23,0,0,1,6-6.4,24.4,24.4,0,0,1,8.24-3.7,80.69,80.69,0,0,1,9.22-1.59c1.55-.23,3.17-.41,4.7-.77a11.76,11.76,0,0,0,4.15-1.8c.11-.07.2-.47,0-.38S354.34,365.93,354.37,365.92Z" style="fill:#0687F3"></path><path d="M295.49,404.58a25.43,25.43,0,0,0-2.63-.78c-.85-.21-1.66-.28-2.5-.43-1.59-.28-3.16-.21-4.76-.54-3-.62-5.75-1-8.52-2.42A35,35,0,0,1,265,389.8c-.93-1.24-1.49-2.65-2.34-4a11.42,11.42,0,0,0-3.09-3.77c-.72-.46-.91.5-.56,1.06s.91,1.25,1.33,1.84.77,1.19,1.14,1.82c.76,1.26,1.39,2.63,2.25,3.84a36.33,36.33,0,0,0,5.61,6.52,27.77,27.77,0,0,0,7.07,4.73,33.78,33.78,0,0,0,8.4,2.26c1.8.29,3.64.31,5.45.54.86.1,1.72.17,2.57.27s1.7.14,2.56.21c.25,0,.37-.47.13-.55S295.46,404.55,295.49,404.58Z" style="fill:#0687F3"></path><path d="M300.17,407a17.52,17.52,0,0,1-3.42-1.84,14.68,14.68,0,0,1-2.57-2.39,68.92,68.92,0,0,1-4.13-5.88,26.28,26.28,0,0,0-4.88-5.62,23.35,23.35,0,0,0-5.72-3.63,25.09,25.09,0,0,0-7.72-2.16c-.93-.08-.73,1.2,0,1.53a22.08,22.08,0,0,0,2.4.86c.76.24,1,.25,1.87.54a26.26,26.26,0,0,1,2.95,1.07,25.06,25.06,0,0,1,5.12,3.24,35.41,35.41,0,0,1,4.95,5.18c1.47,1.86,3,3.91,4.56,5.71a16.42,16.42,0,0,0,2.77,2.44,9.38,9.38,0,0,0,1.64.87,4.72,4.72,0,0,0,.95.24c.36.1.76.22,1.07.28a.24.24,0,0,0,.18-.44C300,406.89,300.14,407,300.17,407Z" style="fill:#0687F3"></path><path d="M283.07,399.06a84.38,84.38,0,0,0-7.36-7.64,47.09,47.09,0,0,0-4.1-3.35,37.16,37.16,0,0,0-3.74-2.31,17.39,17.39,0,0,0-1.92-.91,2.54,2.54,0,0,0-1.64-.31c-.62.12-.27,1,0,1.26a14.33,14.33,0,0,0,3,1.48,22.23,22.23,0,0,1,2.39,1.27,40,40,0,0,1,4.56,3.15c3,2.46,5.68,5.12,8.73,7.46,0,0,.09-.07.06-.1Z" style="fill:#0687F3"></path><path d="M304.65,368.91a5.27,5.27,0,0,0-1.92-.35,11.27,11.27,0,0,0-2,.39,20.57,20.57,0,0,0-3.66,1.54,67.93,67.93,0,0,0-7.17,4.69c-4.66,3.49-9.13,6.75-14.79,8.38-3.1.89-6.17.44-9.3.09-.94-.1-.7,1.27,0,1.42a22.16,22.16,0,0,0,16.1-2.36c5.14-2.86,9.19-6.92,14.17-10a28.21,28.21,0,0,1,4.2-2.16,13.67,13.67,0,0,1,2-.58,20.7,20.7,0,0,0,2.22-.59c.17-.06.42-.37.1-.5S304.79,369,304.65,368.91Z" style="fill:#0687F3"></path><path d="M285.81,372.19a13.57,13.57,0,0,0-2.55.42,18.29,18.29,0,0,0-2.39.95,46,46,0,0,0-4.5,2.48,73.94,73.94,0,0,1-9.27,5,29.43,29.43,0,0,1-2.82,1,15.11,15.11,0,0,0-2.91.75c-.79.46-.41,1.33.38,1.44a6.29,6.29,0,0,0,2.57-.45,18.51,18.51,0,0,0,2.35-.88,41.28,41.28,0,0,0,4.62-2.51c3.08-1.92,6-4.06,9.18-5.79a23.39,23.39,0,0,1,2.62-1.15c.88-.35,1.76-.69,2.65-1,.09,0,.19-.28.07-.27S285.78,372.18,285.81,372.19Z" style="fill:#0687F3"></path><path d="M266.55,375.51c-2.15,1.18-4.33,2.38-6.48,3.54-1.08.59-2.2,1.12-3.25,1.73-.51.31-1.29.81-.37,1.31s2.36,0,3.13-.61a18.7,18.7,0,0,1,2.18-1.21c1.46-.82,2.85-1.66,4.27-2.42,3.24-1.72,6.14-3.75,9.55-5.18a54.52,54.52,0,0,1,19-4,50.26,50.26,0,0,1,9.95.74c.24,0,.41-.43.18-.49s0,0,0,0a50,50,0,0,0-18.95-1,41.88,41.88,0,0,0-9.67,2.58A86,86,0,0,0,266.55,375.51Z" style="fill:#0687F3"></path></g></g><g id="freepik--water-drop--inject-126"><g id="freepik--Drop--inject-126"><path d="M141.28,177.72c-51.17,59.57-91.7,118.24-91.7,167s41.05,88.24,91.7,88.24S233,393.42,233,344.69,192.44,237.29,141.28,177.72Z" style="fill:#0687F3"></path><path d="M141.28,177.72c-51.17,59.57-91.7,118.24-91.7,167s41.05,88.24,91.7,88.24S233,393.42,233,344.69,192.44,237.29,141.28,177.72Z" style="fill:#fff;opacity:0.6000000000000001"></path><path d="M233,344.69c0-38.06-24.72-82.18-59.92-128a29.42,29.42,0,0,1-14.38,5.57c-17.25,1.64-23.46-9.26-37.14-20.84-41.47,51.32-72,101.06-72,143.32,0,48.73,41.05,88.24,91.7,88.24S233,393.42,233,344.69Z" style="fill:#0687F3;opacity:0.1"></path><path d="M233,344.69c0-38.06-24.72-82.18-59.92-128a29.42,29.42,0,0,1-14.38,5.57c-17.25,1.64-23.46-9.26-37.14-20.84-41.47,51.32-72,101.06-72,143.32,0,48.73,41.05,88.24,91.7,88.24S233,393.42,233,344.69Z" style="fill:#0687F3"></path><path d="M233,344.69c0-38.06-24.72-82.18-59.92-128a29.42,29.42,0,0,1-14.38,5.57c-17.25,1.64-23.46-9.26-37.14-20.84-41.47,51.32-72,101.06-72,143.32,0,48.73,41.05,88.24,91.7,88.24S233,393.42,233,344.69Z" style="fill:#fff;opacity:0.45"></path><path d="M233,344.69c0-33.41-19-71.48-47.52-111.32C168,230.88,154.11,246,135.58,252c-16.41,5.25-32.55.58-45.78-8.11-24.38,36-40.22,70.38-40.22,100.85,0,48.73,41.05,88.24,91.7,88.24S233,393.42,233,344.69Z" style="fill:#0687F3;opacity:0.1"></path><path d="M233,344.69c0-33.41-19-71.48-47.52-111.32C168,230.88,154.11,246,135.58,252c-16.41,5.25-32.55.58-45.78-8.11-24.38,36-40.22,70.38-40.22,100.85,0,48.73,41.05,88.24,91.7,88.24S233,393.42,233,344.69Z" style="fill:#0687F3"></path><path d="M233,344.69c0-33.41-19-71.48-47.52-111.32C168,230.88,154.11,246,135.58,252c-16.41,5.25-32.55.58-45.78-8.11-24.38,36-40.22,70.38-40.22,100.85,0,48.73,41.05,88.24,91.7,88.24S233,393.42,233,344.69Z" style="fill:#fff;opacity:0.30000000000000004"></path><path d="M224.07,301.56c-31.49,4.14-50.91,29.28-85.87,23-28.19-5.06-47.83-30.06-69-46.64C56.89,301.51,49.58,324,49.58,344.69c0,48.73,41.05,88.24,91.7,88.24S233,393.42,233,344.69C233,331,229.79,316.58,224.07,301.56Z" style="fill:#0687F3"></path><path d="M224.07,301.56c-31.49,4.14-50.91,29.28-85.87,23-28.19-5.06-47.83-30.06-69-46.64C56.89,301.51,49.58,324,49.58,344.69c0,48.73,41.05,88.24,91.7,88.24S233,393.42,233,344.69C233,331,229.79,316.58,224.07,301.56Z" style="fill:#fff;opacity:0.15"></path><path d="M138,383.91c-52.28-20.18-48.62-60.48-81-78.26-4.77,13.56-7.42,26.62-7.42,39,0,48.73,41.05,88.24,91.7,88.24,40.29,0,74.49-25,86.79-59.78C206.47,388.52,173.52,397.63,138,383.91Z" style="fill:#0687F3"></path><g id="freepik--World--inject-126"><path d="M77.22,387a78.49,78.49,0,1,0-9.76-72.08A78.49,78.49,0,0,0,77.22,387Z" style="fill:#0687F3"></path><path d="M77.22,387a78.49,78.49,0,1,0-9.76-72.08A78.49,78.49,0,0,0,77.22,387Z" style="fill:#fff;opacity:0.85"></path><path d="M82.28,291.76c.11-.18.76-1.26.51-1.72-.13-.23-.38-.19-.65,0-.32.37-.63.75-1,1.13a3,3,0,0,0,.26.74C81.59,292.3,82.16,291.94,82.28,291.76Zm35.47,77.47c-.92-.37-2-1.94-3-1.88l-.33,0c-1,.06-2.6-1.22-3.65-1.57a6.31,6.31,0,0,0-.72-.18,5,5,0,0,1-2.88-2.55,5.57,5.57,0,0,0-2.06-2.5c-1.16-.57-2.63.41-3.64-.75a4.92,4.92,0,0,0-1.5-1.28,5.54,5.54,0,0,1-1.6-1.16c-.66-.77-1.16-.14-1.89-.43-.42-.17-.58-.39-1.07-.37a17,17,0,0,1-1.88.09c-.51,0-.7-.29-1.12-.59a2.31,2.31,0,0,0-3,.74c-.28.41-.36,1-.63,1.4-.54.74-1.87.21-2.66-.18a4.72,4.72,0,0,1-1.6-1.26c-.51-.66-.89-.83-.9-1.7a2.93,2.93,0,0,0-.39-2,1.94,1.94,0,0,0-1.51-.47c-.4,0-.92.18-1.32,0a1.46,1.46,0,0,1-.68-1.34c.07-.34.42-.55.58-.83a1.2,1.2,0,0,0,.18-.5c0-.09-.1-.47-.09-.51.34-.7.17-1.1-.23-1.25a1.71,1.71,0,0,0-2,1.32,2,2,0,0,1-2.45,1.16c-1.81-.71-2.8-4-2.33-6.29.21-1,1.27-2.51,2.19-2.67a12.18,12.18,0,0,1,2.41.19c.35,0,.33-.21.31-.46,0-.4.78-.42,1.36-.47a3,3,0,0,1,2.52,1,7.2,7.2,0,0,1,.69,1.39c.43,1,1.83,1.55,1.52.45-.2-.69-.59-1.56-.82-2.34a3.64,3.64,0,0,1,1.13-3.19,13,13,0,0,0,1.23-1.11,2.41,2.41,0,0,0,.71-1.32c0-.6-.4-1.14-.38-1.8a3.28,3.28,0,0,1,.28-1.31,4,4,0,0,1,1.41-1.67c.56-.36,1.56-.29,1.85-1.1a4.25,4.25,0,0,1,.89-1.95,6,6,0,0,1,1.3-1c.77-.45.4,1,1.35.8A7.83,7.83,0,0,0,96,326.4c.86-.65,1.21-1.7.92-2s-1,1.5-1.95,1.33a1.52,1.52,0,0,1-.28-.09c-.85-.38-.75-1.81-.91-1.78s-.15-.21.06-.31.46-1.66-.45-1.26a3.17,3.17,0,0,0-.48.25c-.89.49-1-.23-.13-.74a20.53,20.53,0,0,1,4.67-1.48c1-.28,1.31.22.78,1.29s-.8,1.79-.1,1.91c.94.15,2.06-.32,2.09.05s0,.47.35.22c.47-.37,1,.42,1.4-.21a1,1,0,0,0-.11-1c-.27-.5-.62-1.39-1.18-1.4s-.72-1.43-.44-2.61l.09-.37c.23-1.19-1.22-2.08-1.94-2.69C96.23,313.68,97,313.56,96,311c-.38-.94-1.22-.76-2,.09-.4.45-.81.78-1.13.75-.83-.09-.31-2.59-.87-2.82-.3-.14-.7-.17-.86-.67a1.57,1.57,0,0,0-2-1,3,3,0,0,0-1.61,2.56c0,.88-.76,2.25-.47,2.87a3.62,3.62,0,0,1,0,3.13c-.4.57-1,1-1.29,1.59-.59,1,.14,2.57-.24,3.14a.65.65,0,0,1-.87.3,2.49,2.49,0,0,1-1.1-1.55c-.16-1.4.39-2.23-.8-2.51A12.14,12.14,0,0,1,78.46,315c-.6-.45-.51-1.06-.66-1.85s-.83-1,.09-2.12c.58-.71,1.45-1.22,1.83-2.26s-.55-1.06.06-1.88,2-.54,2.63-.84a1.37,1.37,0,0,0,.82-.72c.31-.72-.25-.74-.37-1.09,0-.11.18-.19.39-.23a2.1,2.1,0,0,0,.84-.26,1.39,1.39,0,0,0,.39-.44c.11-.19.1-.34.25-.53a.92.92,0,0,1,.49-.31,2.79,2.79,0,0,0,1.1-.45,3.86,3.86,0,0,0,1.43-1.46,3.16,3.16,0,0,0,.34-1.34c-.07-.25-.38-.21-.34-.6.11-1.28,1.48-1.32,1.93-1.42.69-.16,1.5-.37,1.25.9-.11.56-.28,1.91.46,1.16.42-.43.58-.64.83-.26a1.18,1.18,0,0,1,.29,1.12,1.51,1.51,0,0,1-.73,1c-.49.35-1.07,2.17-1.86,2.33l-.39.08c-.79.18-.81,2,0,1.66a1.89,1.89,0,0,1,2.19.75c.74.9,1.85,1.86,2.41,1.85.84,0,.34-1.82.75-2a2.1,2.1,0,0,1,.74-.2c.14,0,.24-1.07.23-1.18a1.55,1.55,0,0,0-.3-.87c-.34-.44-.86-.47-1-1.18s.62-1.52,1-1.25a1.52,1.52,0,0,1,.42.77c.18.5.61.77.8.68a1.35,1.35,0,0,0,.35-.28c.27-.32.26-.71.48-1,.34-.54.81-.39,1.15-.91a.68.68,0,0,0-.18-1c-.62-.47-1.32-.73-1.92-1.16-.12-.09-.24-.14-.34-.23a1.77,1.77,0,0,1-.12-1.25,4.07,4.07,0,0,0,.12-.81,1.31,1.31,0,0,0-.44-.84,3.87,3.87,0,0,0-.74-.67c-.43-.31-1.49-.35-1.83-1S92.73,292,92.18,292c-.07,0-.28.21-.38.25a.54.54,0,0,1-.37,0c-.23-.06-.37-.27-.57-.37a1.39,1.39,0,0,0-1.46.13,5.54,5.54,0,0,1-.65.36,6.28,6.28,0,0,1-1.19.24,5.51,5.51,0,0,0-1.66,1.1,4.37,4.37,0,0,0-.9,1c-.36.62-.65,1.63-.25,1.74a10.21,10.21,0,0,0,1.63-.09c.44,0,1.53,0,1.08,1.07-.33.82-1.23.59-1.36,1.57a2.26,2.26,0,0,1-.13,1,4.35,4.35,0,0,1-.71.87,4.93,4.93,0,0,1-.7.61c-.33.23-.77.13-.71-.34s.43-.69.54-1.08a.44.44,0,0,0-.29-.59,1,1,0,0,0-.34-.1,1,1,0,0,1-.59-.44,2,2,0,0,1-.17-.43c-.08-.26-.22-.5-.31-.79a2.21,2.21,0,0,1,.42-1.62c.14-.13.3-.26.48-.44a9.52,9.52,0,0,0,1-1.27c.63-1,.81-1.89.1-1.82a3.5,3.5,0,0,0-2.35,2.07,11.73,11.73,0,0,1-.87,2c-.39.58-.91,1-1.26,1.58a10.57,10.57,0,0,0-.58,1.62c-.25.54-.36.43-.68.62-.73.44-.68,1.69-1.39,2.26a1.85,1.85,0,0,1-.75.27,2.49,2.49,0,0,1-1.27,0c-.11,0-.27-.07-.18-.33s.49-.47.71-.62a3.65,3.65,0,0,0,1.29-2.41c0-.43-.41-.41-.62-.6a1.66,1.66,0,0,1-.32-1.68q-1.77,2.6-3.31,5.31a.38.38,0,0,1,.33.25c.08.2,0,.45-.19.77a4,4,0,0,0-.27.62c-.13.34-.68,1.62-1.07,1.34a1.69,1.69,0,0,1-.28-.26,78.34,78.34,0,0,0-8.83,35.74.66.66,0,0,1,.65.18c.7.62,1.09,2.25,1.79,2.87a12.28,12.28,0,0,1,3.18,3.83,7.19,7.19,0,0,0,1.89,3,9.46,9.46,0,0,0,5.34,1.77c1.76-.12,3.49,2.86,5.13,2,.19-.11,1,1.29,1.17,1.47a5.85,5.85,0,0,0,1.78,1.63A12.39,12.39,0,0,0,86,359c1.42.55,3.13,1.41,2.78,3.57a31.88,31.88,0,0,1-1.17,3.79,5.14,5.14,0,0,0,0,4c.64,1.26,1.74,2.2,2.41,3.45s.4,2.86,1.1,4.23c.88,1.72,2.18,2,3.85,2.74a5.72,5.72,0,0,1,3,2.63,49.65,49.65,0,0,1,4,8.79c1.33,3.77,2.39,7.78,4.53,11.18a16.49,16.49,0,0,0,3.79,4.41c1,.79,2,.84,2-.68,0-.93-.71-1.72-1-2.56s0-1.56,0-2.44c0-.72-.61-1.84-.09-2.41s1.27-.16,1.57-.94c.38-1-.66-1.45-.81-2.22s1.15-.75,1.57-1.43c.27-.42.15-1,.34-1.45s.36-.42.59-.68a4.15,4.15,0,0,0,.74-1.8c.22-1.05-.77-2.27-.34-3.26A4.71,4.71,0,0,1,117,386.1c.6-.28,1-.32,1.4-1.1a5.15,5.15,0,0,0,.29-2.94c-.16-.65.1-1.3,0-1.77a10.28,10.28,0,0,1-.59-3.06c.07-1.92,1.73-3.19,1.86-5.21C120,370.76,118.67,369.61,117.75,369.23ZM77.43,326c.8-.72,2.24-2.35,3-1.93a2.85,2.85,0,0,1,.85,1.12c.47.85,1.71,1.17,2.43,1.53s-.31,1.05-.44,1.75-.63,1-.6.57c0-.24,0-.42-.34-.29s-.35-.17-.21-.56c.19-.54-1.06-1-1.41.08a7.58,7.58,0,0,0-.22.91c-.22,1.12-1.31,1.07-1.07,0,0-.14.06-.29.1-.43.3-1.11,0-2.44-.92-2.36S76.56,326.75,77.43,326Zm-14,17.08a.32.32,0,0,0,.12-.3c0-.09-.44-.37-.73-.68q0,1.44.06,2.88c.33.36.85.71,1.1,1s1,1.46,1.39,1.43c.75-.06-.19-1.55-.37-1.77S63.37,343.08,63.4,343.06Zm15.5-45.45c.85.43,1.85-.52,2.4-1.41.7-1.13-.52-1.14,0-1.54s.74-.63.57-.81-.16-.05-.21-.11-.59,0-1.46.46-1.08,1.36-1.71,1.66S78.34,297.31,78.9,297.61Zm5.32-8.09a2.62,2.62,0,0,0,1.11.18.79.79,0,0,1,.47.12c.39.29-.4,1.39-.09,1.75s.63.12,1,.11a6.57,6.57,0,0,0,1.5-.13,4.61,4.61,0,0,0,.93-.39,14.65,14.65,0,0,1,2.31-.81,1.28,1.28,0,0,0,1-1.33c0-.57-.51-.54-1.11-.35-.8.25-1.72.68-2,.74s-.35,0-.27-.13,1.12-.65,1.3-.73c.39-.17.77-.36,1.15-.54.63-.3,1.35-.56,1.65-.69a3.25,3.25,0,0,0,.56-.28,3.47,3.47,0,0,0,.79-.64c.41-.55.08-.82.47-1.31a4.3,4.3,0,0,1,1.15-.87,12.69,12.69,0,0,0,1.22-.84c.73-.64.67-1.38,1.2-2.15a4.94,4.94,0,0,1,1.07-1.11c.59-.46,1.39-1,1.83-1.35l.79-.65a5.36,5.36,0,0,0,.87-.9c.17-.22.33-.49.49-.71a1.71,1.71,0,0,1,.54-.49,3.81,3.81,0,0,0,1.43-1.65c.36-.88-.31-.64-.46-.82s-.68-.25-1.14-.16c-1,.2-2.22.75-3.42,1.12-1.59,1-3.15,2-4.69,3.07-1.32.94-2.59,1.92-3.83,2.92a2.36,2.36,0,0,0,.84.27c.71.17,1.85-.63,2.76-1,.41-.15,1.66-.76,1.75-.37.13.59-1.25,1.35-1.55,1.51a1.59,1.59,0,0,0-.65.51c-.34.47-.9,1.1-1.29.86a1.85,1.85,0,0,0-.73-.39.5.5,0,0,0-.52.3c-.26.43-1,1.15-1.18.66-.08-.28-.08-.7-.31-.81s-.46-.08-.63-.19l-.08-.09q-1.86,1.57-3.6,3.24a1.3,1.3,0,0,0,.32.34,2.24,2.24,0,0,0,1.43.4,4.7,4.7,0,0,0,.84-.18c.34-.11,1.12-.66,1.34-.57s-.16.87-.47,1.31a7.21,7.21,0,0,1-1.87,1.72,3.34,3.34,0,0,1-2.5.64c-.25-.05-1.27-.3-1.67.11S84,289.39,84.22,289.52Zm53.36-13.74c.21.21.4.48.6.7a3.51,3.51,0,0,0,.8.64,8.75,8.75,0,0,1,1,.67l.11.15c.12.2,0,.16,0,.31s.17.44.46.58.46.29.7.44,1.11.34,1.22-.06a3.14,3.14,0,0,0,.06-.82,6.24,6.24,0,0,1,0-1.37,1,1,0,0,0,0-.2c0-.1.26-.25.6-.08l.62.34a1.31,1.31,0,0,1,.24.12c.14.08.14.29.14.36a.2.2,0,0,0,.06.14c.08.11.17.12.27.17a3.3,3.3,0,0,0,1,.32,1.11,1.11,0,0,0,.4,0,.39.39,0,0,0,0-.67,9.62,9.62,0,0,1-1.47-.72,3.36,3.36,0,0,1-.82-.82c-.44-.61,0-.75.4-.76a4.72,4.72,0,0,0,.92-.11,2,2,0,0,0,1.15-.71.92.92,0,0,0-.06-.71l0-.06a1.28,1.28,0,0,0-1.24-.33c-.48.05-1,.08-1.53.09a3.08,3.08,0,0,1-.68,0,1.38,1.38,0,0,0-.52-.08,2,2,0,0,0-.84.39,1.69,1.69,0,0,1-1,.32c-.21,0-.57-.12-.58.15s.48.72.58,1.09-.26.18-.47,0-.22-.54-.42-.74-.32-.1-.35,0,0,.5-.38.26c-.22-.13-.32-.32-.56-.39-.41-.11-1.3.21-.92.92C137.2,275.52,137.4,275.61,137.58,275.78ZM133,314.93c-.08.25-.25.54-.14.83.3.76,1.11.26,1.56.1a2.14,2.14,0,0,0,1.16-1.45,2,2,0,0,0-.24-1.4c-.24-.39-.86-1.07-1.27-.76-.16.13-.11.36-.24.48s-.59,0-.82.11c-.65.19-.11.87,0,1.26A1.46,1.46,0,0,1,133,314.93Zm36.45-26.36a8.43,8.43,0,0,0,1,.61,1.38,1.38,0,0,0,1.38-.06c.23-.22-.1-.72-.3-1.08-.07-.14-.16-.27-.24-.4a3.72,3.72,0,0,1-.37-1.39,3.07,3.07,0,0,1,.07-.87,3.37,3.37,0,0,1,.83-1.52,10.08,10.08,0,0,1,2.26-1.61,13.08,13.08,0,0,1,1.2-.56l.76-.31a5,5,0,0,0,.61-.15.62.62,0,0,0-.06-1.08l-.25-.12a.78.78,0,0,0-.61.09,5.22,5.22,0,0,1-1.63.44c-2.33.28-4.2,1.18-4.91,3.31a11.13,11.13,0,0,0-.63,2.3c0,.29,0,.58-.33.63s-.28.11-.19.37A2.85,2.85,0,0,0,169.41,288.57Zm-34.3,20.84.07.06a10.21,10.21,0,0,0,0,1c.06.55.85.75.92,1.22s.81.08,1.07.5.29,1.33-.13,1.52-.22,1.09-.5,1.32-.38.28-.19.59.63-.19.65.26-.54.5-.36.88.59.21.83.18a4.29,4.29,0,0,0,3-1.4c.25-.36.76-1.25.27-1.59-.19-.12-.42-.12-.61-.29a2.71,2.71,0,0,1-.49-.78,10.4,10.4,0,0,0-.68-1.33c-.41-.61-1.34-.91-1.24-1.86,0-.31.41-.6.29-.94s-.27-.22-.41-.31-.76-.61-.71-.88-1.51-.27-1.35.26C135.77,308.63,134.5,308.93,135.11,309.41Zm83.18,17c-.06-.35-.18-.91-.28-1.39a78.94,78.94,0,0,0-23.75-41.32,3.52,3.52,0,0,1-.49.05,12,12,0,0,0-2.26.2,2,2,0,0,0-1.24,1.22,1.89,1.89,0,0,1-.62.88,2.08,2.08,0,0,1-1.2.26c-.31,0-.93,0-.8.5s.95,1.17,1.24,1.63c.66,1.05-.82.21-1.2,0a4,4,0,0,0-1.31-.54c-.26,0-.84-.2-.86.11a2.68,2.68,0,0,0,.46,1c.23.39.27.52,0,.62s-.63.14-.93.23a2.26,2.26,0,0,1-3.1-1.51,2.14,2.14,0,0,0-.68-.95,1.94,1.94,0,0,0-.95-.42c-.66,0-.74.6-.59,1.26s-.46.87-.25,1.49a4.29,4.29,0,0,0,1.24,1.57c.4.38,1.1.91.93,1.38-.24.66-1.15.17-1.78-.21-.85-.52-1.72-.91-2.58-1.43a5.3,5.3,0,0,0-2.33-.73c-.43,0-.68.2-.17.71.23.23,1,.65,1,1.08s-1,.34-1.33.38a10.59,10.59,0,0,1-2.6.15,6.73,6.73,0,0,0-2-.2,3.39,3.39,0,0,0-.83.31,2.05,2.05,0,0,0-.75.94.44.44,0,0,1-.22.23,1.69,1.69,0,0,1-.34.11,1,1,0,0,1-.95-.84c0-.4,0-.83-.39-1.05A1.61,1.61,0,0,0,165,292a.51.51,0,0,0-.25.41c0,.32.17,1.16.12,1.75a1.31,1.31,0,0,1-.36.87,2.85,2.85,0,0,1-.67.35,1.45,1.45,0,0,0-.65.83c-.3.66-.54,1.26-1.2,1.43s-1.17-.09-1.84-.78a17,17,0,0,1-1.38-1.54c-.62-.85.65-.46,1-.4.5.09,1,.05,1.49.11a5.53,5.53,0,0,0,1.22,0c.32-.05.89-.14.83-.67-.14-1.17-2.49-2.37-3.17-2.75l-1-.52c-.55-.26-1.48-.7-2.08-1a3.4,3.4,0,0,0-1.07-.32c-.56,0-1,.75-1.62-.33a1.69,1.69,0,0,0-1.23-1,5.43,5.43,0,0,0-3.19.29,2.9,2.9,0,0,0-.76.51c-.38.33-.76,1-1.06,1.16a1.12,1.12,0,0,1-.62.14c-1.34-.08-1.76,1.13-1.82,2.75,0,.44,0,.93,0,1.35a2.69,2.69,0,0,1-.2.7c-.14.35-.51,1.16-.79,1.83-.17.41-.35.82-.52,1.25-.49,1.2-1.06,2.43-1.65,3.71a4.67,4.67,0,0,0-.54,3,3,3,0,0,0,1.38,1.79,2,2,0,0,0,2.13,0c1-.42,1.44.07,2,1.26a3.31,3.31,0,0,0,.93,1.45,1.82,1.82,0,0,0,1.53.18c.53-.22.69-.82.58-1.52a2,2,0,0,1,.31-1.64,1.6,1.6,0,0,0,0-1.6c-.36-.91-1.09-2.06-1.26-2.67a2.75,2.75,0,0,1-.09-1.07,4.25,4.25,0,0,1,.22-.87,23,23,0,0,1,1.17-2,4.93,4.93,0,0,0,.57-1.56,2.33,2.33,0,0,1,.22-.73,1.06,1.06,0,0,1,1.14-.34,1,1,0,0,1,.63.52,2.24,2.24,0,0,1-.08,1.72c-.22.57-.71.73-1,1.25a4.37,4.37,0,0,0-.1,2.13,4.54,4.54,0,0,0,.51,2.17c.53.7,1.46.47,2.08.39a7.91,7.91,0,0,1,.91-.1,3.17,3.17,0,0,1,1.34.2c.22.12.47.7.25.84a1.2,1.2,0,0,1-.43.13c-.62.11-1.26.08-1.88.17-.38.05-1,.05-1,.67s.45.83.71,1.11a1.31,1.31,0,0,1,.52,1,.37.37,0,0,1-.43.33,1.89,1.89,0,0,1-.88-.52c-.17-.16-.39-.48-.59-.36s-.06,1.34,0,1.71a3.15,3.15,0,0,1-.17,1.85c-.6,1.08-1.94,1.12-3,1.14a10.76,10.76,0,0,1-1.94-.26,3.41,3.41,0,0,1-1.24-.33c-.89-.57-.53-2.21-.77-3.15-.29-1.1-1.18-.26-1.31.41-.21,1.06.7,2.24.42,3.24-.2.7-1,.77-1.54,1a2.24,2.24,0,0,0-1.09,2,2,2,0,0,1-.61,1.1c-.33.45-.73.83-1.08,1.23a1.41,1.41,0,0,1-1,.57c-.26,0-.64-.15-.83,0s0,.59-.41.76-.94,0-1.37.12-.7.29-.4.64a4.5,4.5,0,0,0,1.2.65,2.56,2.56,0,0,1,1.12,2c.18,1.17,0,2.12-1.14,2.29a9.07,9.07,0,0,0-3.19.57c-.92.49-.77,2.31-.71,3.33a2,2,0,0,0,.39,1.16c.2.28.29.67.54.89a1.52,1.52,0,0,0,1.18.26,1.41,1.41,0,0,1,1.16.35,2.08,2.08,0,0,0,.26.18c.16.07.34-.36.65-.45a1.8,1.8,0,0,1,.57,0,1.69,1.69,0,0,0,.55,0c.18-.05.25-.24.38-.3a1.82,1.82,0,0,0,.85-1.37c.07-.28.1-.57.18-.85a9.17,9.17,0,0,1,.41-.9,4.11,4.11,0,0,1,.21-.68c.23-.41.6-.37,1-.52a1.19,1.19,0,0,0,.75-1.11c.06-.43,0-.92.39-1.12s.71.07,1,.06a3.17,3.17,0,0,0,1.5-.77c.94-.61,1.76-.35,2.44.65a8.33,8.33,0,0,0,1,1.29c.29.29.65.44.94.73s.81.64,1.16,1a2,2,0,0,1,.29,1.72c0,.22-.18.58,0,.77s.4,0,.52-.18a2.21,2.21,0,0,0,.23-1.69c0-.3-.09-.66.15-.76s.23,0,.35.05.13-.59-.3-.88a1.59,1.59,0,0,0-.8-.31c-.2,0-.78-.7-.95-.86a11.82,11.82,0,0,1-1.26-1.29,2.63,2.63,0,0,1-.67-1.29c0-.72.68-.71,1.09-.42s.4.66.61,1c.47.78,1.31.89,2,1.27.46.27.48.67.7,1.19a8.15,8.15,0,0,1,.54,1.16c.07.31.05.36.26.57a4.07,4.07,0,0,0,.64.54,3.37,3.37,0,0,1,.61.46c.18.22.11.2.09.45,0,.53,0,1.07.47,1.33s.54-.71.71-1.11a1,1,0,0,0,.08-.86c-.11-.27-.41-.43-.54-.7-.34-.67.31-.65.61-.89s.76-.84,1.34-.46c.32.21.28.45.27.81a3.21,3.21,0,0,0,.33,1.12,4.17,4.17,0,0,0,.35,1.1,2.75,2.75,0,0,0,2.26,1.16c.35,0,.65-.32,1-.25.15,0,.26.15.4.2a1.58,1.58,0,0,0,.78,0c.34,0,.67-.18,1-.2.56,0,.74.11.64.77a23.36,23.36,0,0,0-.34,3c0,.38.15,1.32-.06,1.6s-.86-.21-1.15-.33a5.11,5.11,0,0,0-2.62-.26,10.56,10.56,0,0,1-1.37.12,2.38,2.38,0,0,1-1.29-.18c-.7-.48-2.51-1.86-3.14-.69-.43.78-.09,2.19-1.26,2a5.38,5.38,0,0,1-1.56-.67,11.58,11.58,0,0,0-2.39-.8,3,3,0,0,1-1.54-.82c-.59-.66.28-.93.33-1.63a1.87,1.87,0,0,0-.69-1.64,2.19,2.19,0,0,0-1.43-.16c-.25,0-.48,0-.72,0a2.88,2.88,0,0,0-.8.26,7.9,7.9,0,0,1-1.73.28l-.92.09c-.18,0-.66,0-.8.14a4.09,4.09,0,0,1-2.71,1.55,3.86,3.86,0,0,0-1.91.14,6.27,6.27,0,0,0-1.65,1.36c-.41.44-.8.9-1.18,1.37a2.59,2.59,0,0,0-.32,2,1.93,1.93,0,0,1-.29,1.22,4.24,4.24,0,0,1-1.43,1.54,4.06,4.06,0,0,0-1.62,1.59,11.65,11.65,0,0,0-.78,2.11,6.42,6.42,0,0,0,.5,4.5c.21.36-.2,1.55-.26,2a3.76,3.76,0,0,0,.26,2.19,3.51,3.51,0,0,0,.9,1.2,18.72,18.72,0,0,1,1.91,2.44,14.87,14.87,0,0,0,2,2.14,5.38,5.38,0,0,0,3.27,1.31,3.18,3.18,0,0,0,1.66-.36,2.32,2.32,0,0,1,.87-.27,5.26,5.26,0,0,0,1.81-.59c.3-.19.59-.41.85-.6a2.07,2.07,0,0,1,1.94-.41,3.07,3.07,0,0,1,.8.46,7.3,7.3,0,0,0,1.56,1,2.28,2.28,0,0,0,.84.15,2,2,0,0,1,1.34.51c1,.88.58,2.2.11,3.35a3.14,3.14,0,0,0,.57,2.92c.25.39.43.8.69,1.16a4.34,4.34,0,0,1,.72,1.31c.12.47.26.89.39,1.33a10.19,10.19,0,0,1,.31,2.75c0,.45-.06.91-.12,1.37,0,.22-.06.44-.1.67a7.05,7.05,0,0,1-.28,1.22,3.8,3.8,0,0,0-.18.54,8,8,0,0,0-.13,1.39c0,.77-.07,2.12-.08,2.89a6.88,6.88,0,0,0,.12,1.38,35.25,35.25,0,0,0,2,5.68c.35.87.66,1.79,1,2.65.18.45.31.93.51,1.36a6.06,6.06,0,0,1,.37,1.48c.25,1,.63,1.65,1.47,1.84a3.71,3.71,0,0,0,2.1-.41,8.83,8.83,0,0,0,3.77-2.9,11.44,11.44,0,0,0,1.46-2.95,7.13,7.13,0,0,0,.43-1.49c.07-.55.1-1.11.22-1.65.18-.83.32-1.74.54-2.55a8.14,8.14,0,0,1,1.31-3.38,16.66,16.66,0,0,1,1.25-1.27c.68-.68,1.94-1.78,1.9-3.08-.18-6.12-2.22-10.77,3-15.6a17,17,0,0,0,3.52-7.06c.19-1.21-.65-1.92-1.38-1.57a12,12,0,0,1-1.35.56c-.42.15-.86.22-1.28.34a2.13,2.13,0,0,1-1.27-.23,1.27,1.27,0,0,1-.85-.84c-.18-.45-.15-.92-.3-1.38a2.25,2.25,0,0,0-.81-1,8.52,8.52,0,0,1-1.77-2.2,10.78,10.78,0,0,1-.9-2.8,4.57,4.57,0,0,0-.9-1.72,12.8,12.8,0,0,1-1-1.71c-.29-.6-1.37-2.66-.55-3.15.64-.39,1.26,1.5,1.52,2,.52,1,1.07,1.87,1.63,2.74l.87,1.34c.48.75,1.06,1.66,1.29,2l.41.69a5.78,5.78,0,0,1,.74,1.36c.4,1.91,1,2.92,2.11,2.79s2.34-1.24,3.2-1.79a29.73,29.73,0,0,0,4.32-3.31,7.12,7.12,0,0,0,.82-1.36,5.07,5.07,0,0,0,.72-1.67,1.05,1.05,0,0,0-.52-1.19c-.28-.16-.59,0-.83-.22s-.38-.74-.61-1c-.45-.57-.88-.12-1.33.18s-1.37.95-1.85.6c-.33-.25-.18-.58-.36-.91s-.37-.15-.61-.21c-.61-.16-.91-1-1.23-1.59s-.79-1.38-.66-1.92c.22-.92,1.22.23,1.51.52s.79.61,1.11,1a2,2,0,0,0,1,.66,7.57,7.57,0,0,0,1.14.43c.3,0,.59-.09.9,0a1.12,1.12,0,0,1,.47.3,3,3,0,0,0,2,.85c.84-.05,1.69-.3,2.47-.41a3.7,3.7,0,0,1,1.87.06,3.49,3.49,0,0,1,1.71,1.56c.29.58.55,1.41,1.16,1.67s.92-1.16,1.29-.84c.2.17.21.73.25,1a7.63,7.63,0,0,0,.2.95c.19.72.36,1.45.55,2.19a34.7,34.7,0,0,0,1.35,4.46c.27.69.68,1.72,1.32,1.92.29.08.71-.33.88-.61a3.26,3.26,0,0,0,.32-1,10,10,0,0,0,.23-1.31,14.89,14.89,0,0,1,.48-2.41c.13-.35.28-.69.44-1a8.23,8.23,0,0,1,1.09-1.68,7,7,0,0,0,1-1.12c.11-.19.22-.38.32-.57a11.78,11.78,0,0,1,.66-1.05,1.21,1.21,0,0,1,.43-.39,2.69,2.69,0,0,1,.62-.11c.43-.1.54-.45.88-.68s.71.06.94.3a5.2,5.2,0,0,1,.88,2.82c.07.48.14,1.1.61,1.13s.72-.28,1.11.08.47,1.17.71,1.71.69.72.78,1.32c.06.39-.09.46-.23.77s-.05.51.06.82a1.91,1.91,0,0,1,.09,1.06,3.12,3.12,0,0,0-.2,1,.47.47,0,0,0,.34.4,1.35,1.35,0,0,1,.68.83c.06.24.12.48.16.66a4.09,4.09,0,0,0,.23.77c0,.08.09.14.13.21a1.72,1.72,0,0,1,.17.85.59.59,0,0,1-.23.51c-.14.07-.32,0-.5-.13s-.66-.44-.9-.56a1,1,0,0,0-.45-.15c-.81,0,.17,1.86.38,2.16s.38.43.56.68a2.2,2.2,0,0,1,.31.87,10.18,10.18,0,0,0,.83,1.86,7.26,7.26,0,0,0,1,1.57,3.3,3.3,0,0,0,.62.57c.07.05.71.34.7.37,0,2.34,1.87.8,2.72,1.47.66.62,1.44.35,2.22.24a3.52,3.52,0,0,0,.6-.14c.06-.2.11-.4.17-.6-.29-.06-.57-.13-.69-.37a1,1,0,0,0-.73-.49,11.24,11.24,0,0,0-2,.06,2.53,2.53,0,0,1-1.07-.14,1.11,1.11,0,0,1-.47-.37,2.35,2.35,0,0,1-.12-1.53,2.17,2.17,0,0,0-.5-1.58c-.15-.19-.29-.41-.43-.59s-.57-.43-.8-.74a1.75,1.75,0,0,1-.41-1.11,1.06,1.06,0,0,1,.28-.66,2,2,0,0,0,.22-1.5c-.1-.29-.23-.56-.3-.77a10.35,10.35,0,0,0-.54-1.11c-.1-.18-.24-.29-.34-.46a8.5,8.5,0,0,1-1-4.22c0-.44.18-.87.55-.86a.58.58,0,0,1,.32.12,3.22,3.22,0,0,1,.67.75c.18.24.36.48.42.47.75-.08.85,2.65,1.81,1.5.3-.35.73-.56,1-.92a3.38,3.38,0,0,0,.37-.46,4.07,4.07,0,0,0,.6-1.5,3.49,3.49,0,0,0,0-1,5.38,5.38,0,0,0-.81-2,5.22,5.22,0,0,0-.69-1,1.15,1.15,0,0,1-.47-.87c-.06-1,.78-2.21,1.67-1.92a1.43,1.43,0,0,0,1.6-.35,7.06,7.06,0,0,1,1.7-1.5,8.13,8.13,0,0,0,2.73-1.64l.18-.21A77.67,77.67,0,0,0,218.29,326.42Zm-51-1.36a8.59,8.59,0,0,1-2.1-.45,7.63,7.63,0,0,0-3.44.4,3,3,0,0,1-1.41.11c-1-.23-.51-2.46-.16-3.52a4.18,4.18,0,0,1,.75-1.57c.69-.75,2.25.11,2,.39s.14.53.21.81.36.52.62.26-.13-1.5.71-2l.33-.17c.88-.41,1.36.07,1.28,1.23a2.24,2.24,0,0,0,.07.83c.34,1.16,1.53,1.24,1.54,1.37s.47.27.84.68S168.25,325.06,167.26,325.06Zm8.4,3.7c-.95-.41-1.15-2.05-1.2-3.09s-1.73-1.94-2-3.11c-.43-2.07,1.24-3.75,2.54-3.71,1,0,.4,1.53,0,2.52-.15.34,0,.64.38,1.06a11.6,11.6,0,0,0,2.07,1.67c.45.4,0,.95-.56,1.14s1.13,1.7.95,2.82C177.68,329,176.67,329.19,175.66,328.76Zm-32.12-1.54c.33-.38.24-.75-.79-.66-.16,0-.39.29-.54.6S143,327.85,143.54,327.22Zm74.94,23.71c-.78-.09-1.09.72-1.63,1.34a16.82,16.82,0,0,1-2.15,2c-.47.36-1.29,0-1.43.91a4.14,4.14,0,0,0,.37,2.32,4,4,0,0,0,.81,1.49,1.93,1.93,0,0,0,2.84.07,2.3,2.3,0,0,0,.36-.52c.16-.32.33-1,.55-1.35.21-1.05.39-2.1.56-3.16a1.24,1.24,0,0,1,0-1.35C219.19,352,219.24,351,218.48,350.93ZM84,305.08c-.4,1-.47,2,0,2.18s1.65-.54,2.49-.81c1.19-.37.19-.9-.63-1.68C85.34,304.25,84.44,304,84,305.08Zm67.4,24.49a.83.83,0,0,0-.57-1.05c-.28-.11-.31.2-.31.56S151.19,330.28,151.43,329.57ZM148,326.85c.36-1-.58-4-.94-2.9a3.76,3.76,0,0,0-.15.62C146.68,325.74,147.59,327.89,148,326.85ZM88.68,348.47a4.58,4.58,0,0,1-2.11-.64c-.64-.34-1.39-.76-2-.44-.48.23.15.75.49,1a7.37,7.37,0,0,0,.78.43c.43.22,1,.66,1.36.82a.92.92,0,0,0,.62.11c.85-.11,1.69-.68,2.59-.07.21.14.57.58.83.53h.05c.27-.12.19-.62.06-.88C90.79,348.3,89.43,348.49,88.68,348.47Zm32.76-69.56c-1.47-1.71,3-5.32,2.57-6.14a.71.71,0,0,0-.42-.25,3.86,3.86,0,0,0-1-.11,1.65,1.65,0,0,0-.57.12,1.79,1.79,0,0,0-.66.63c-.33.44-.75.93-.89.79s-.08-.19-.2-.36c-.34-.5-.37-.1-.75.13-.19.11-.85.2-.91-.39s.53-1.24.7-1.57a1.51,1.51,0,0,1,.53-.6c.32-.2.25-1-.27-1.44a3.53,3.53,0,0,0-1.7-.7,5.36,5.36,0,0,0-3.44.57,8.18,8.18,0,0,0-1.69,1.15c-.75.66-1.44,2.13-2.29,2.88a1.27,1.27,0,0,1-1.39.27c-.8-.2-1.84-.44-3.21,1.12-.84,1-.25,1-.59,1.89s-1.35.73-1.71.91a2.39,2.39,0,0,0-.53.35,2.58,2.58,0,0,0-.61,1.55c0,.18,0,.34-.53.82a14.28,14.28,0,0,1-2.09,1.61,3.53,3.53,0,0,0-1.38,1.63c-.32.69-.07.66.13.87a.93.93,0,0,1,.23.38c.1.26.15,1,.47,1.06a6.46,6.46,0,0,0,2.08-.71c1.26-.53,2.46-.91,3.11.13a2.53,2.53,0,0,1,.35,1.19,12.46,12.46,0,0,1-.6,3.18,2.36,2.36,0,0,0-.12,1.4c.32.75,1.24.7,1.58,1.55a3.51,3.51,0,0,1-.34,2.49,16.05,16.05,0,0,1-1.51,2.15,5.49,5.49,0,0,0-.39,2.52,7.88,7.88,0,0,0,.3,3,21.63,21.63,0,0,0,1.06,3,3.74,3.74,0,0,0,.62,1,2.69,2.69,0,0,0,2.37.3,2.57,2.57,0,0,0,1.37-.89c.84-1.06.59-2.65.9-3.94a3.29,3.29,0,0,1,1.66-2.31,6.69,6.69,0,0,0,2.35-1.54c.49-.66.77-1.68,1.3-2.29.72-.83,1.88-.85,2.7-1.24.56-.28,1.68-.91,1.75-1.77,0-.46-.15-.69,0-1.14a1.9,1.9,0,0,1,.61-.62c.09-.06.27-.11.43-.19s.3-.7.11-1-.27-.37-.34-.5c-.5-1-.6-1.78.15-2.37s1.73-1.51,1.43-2.74c-.18-.74-.61-1-.63-1.82a3.23,3.23,0,0,1,.12-.91,8.75,8.75,0,0,1,.72-1.4,1,1,0,0,0,0-.84C122.26,279.27,121.72,279.24,121.44,278.91Zm55.12,93.27a2.87,2.87,0,0,1-.14-.3,1.52,1.52,0,0,0-.2-.33c-.13-.15-.65.08-.75.62a7.93,7.93,0,0,0-.1,1c-.13,1.39-1.24,2.08-1.88,3.11-.89,1.43-.58,2.92-.58,4.4,0,1-.44,2.3-.08,3.15,1.2,2.76,2.73-1.71,3.15-3.1a26,26,0,0,0,1.1-5.59c0-.37,0-.76,0-1.14a3.41,3.41,0,0,0-.31-1.48A2.57,2.57,0,0,1,176.56,372.18ZM127.05,296.6c-.34.06-.65.38-.92.51a5.72,5.72,0,0,1-1.1.16c-.6.09-1.16,1-1.63.41s-.8,1.3-.13,2.35c1.52,2.4,4.46.87,5.21-.81C129,298.12,127.6,296.49,127.05,296.6Z" style="fill:#0687F3"></path><path d="M82.28,291.76c.11-.18.76-1.26.51-1.72-.13-.23-.38-.19-.65,0-.32.37-.63.75-1,1.13a3,3,0,0,0,.26.74C81.59,292.3,82.16,291.94,82.28,291.76Zm35.47,77.47c-.92-.37-2-1.94-3-1.88l-.33,0c-1,.06-2.6-1.22-3.65-1.57a6.31,6.31,0,0,0-.72-.18,5,5,0,0,1-2.88-2.55,5.57,5.57,0,0,0-2.06-2.5c-1.16-.57-2.63.41-3.64-.75a4.92,4.92,0,0,0-1.5-1.28,5.54,5.54,0,0,1-1.6-1.16c-.66-.77-1.16-.14-1.89-.43-.42-.17-.58-.39-1.07-.37a17,17,0,0,1-1.88.09c-.51,0-.7-.29-1.12-.59a2.31,2.31,0,0,0-3,.74c-.28.41-.36,1-.63,1.4-.54.74-1.87.21-2.66-.18a4.72,4.72,0,0,1-1.6-1.26c-.51-.66-.89-.83-.9-1.7a2.93,2.93,0,0,0-.39-2,1.94,1.94,0,0,0-1.51-.47c-.4,0-.92.18-1.32,0a1.46,1.46,0,0,1-.68-1.34c.07-.34.42-.55.58-.83a1.2,1.2,0,0,0,.18-.5c0-.09-.1-.47-.09-.51.34-.7.17-1.1-.23-1.25a1.71,1.71,0,0,0-2,1.32,2,2,0,0,1-2.45,1.16c-1.81-.71-2.8-4-2.33-6.29.21-1,1.27-2.51,2.19-2.67a12.18,12.18,0,0,1,2.41.19c.35,0,.33-.21.31-.46,0-.4.78-.42,1.36-.47a3,3,0,0,1,2.52,1,7.2,7.2,0,0,1,.69,1.39c.43,1,1.83,1.55,1.52.45-.2-.69-.59-1.56-.82-2.34a3.64,3.64,0,0,1,1.13-3.19,13,13,0,0,0,1.23-1.11,2.41,2.41,0,0,0,.71-1.32c0-.6-.4-1.14-.38-1.8a3.28,3.28,0,0,1,.28-1.31,4,4,0,0,1,1.41-1.67c.56-.36,1.56-.29,1.85-1.1a4.25,4.25,0,0,1,.89-1.95,6,6,0,0,1,1.3-1c.77-.45.4,1,1.35.8A7.83,7.83,0,0,0,96,326.4c.86-.65,1.21-1.7.92-2s-1,1.5-1.95,1.33a1.52,1.52,0,0,1-.28-.09c-.85-.38-.75-1.81-.91-1.78s-.15-.21.06-.31.46-1.66-.45-1.26a3.17,3.17,0,0,0-.48.25c-.89.49-1-.23-.13-.74a20.53,20.53,0,0,1,4.67-1.48c1-.28,1.31.22.78,1.29s-.8,1.79-.1,1.91c.94.15,2.06-.32,2.09.05s0,.47.35.22c.47-.37,1,.42,1.4-.21a1,1,0,0,0-.11-1c-.27-.5-.62-1.39-1.18-1.4s-.72-1.43-.44-2.61l.09-.37c.23-1.19-1.22-2.08-1.94-2.69C96.23,313.68,97,313.56,96,311c-.38-.94-1.22-.76-2,.09-.4.45-.81.78-1.13.75-.83-.09-.31-2.59-.87-2.82-.3-.14-.7-.17-.86-.67a1.57,1.57,0,0,0-2-1,3,3,0,0,0-1.61,2.56c0,.88-.76,2.25-.47,2.87a3.62,3.62,0,0,1,0,3.13c-.4.57-1,1-1.29,1.59-.59,1,.14,2.57-.24,3.14a.65.65,0,0,1-.87.3,2.49,2.49,0,0,1-1.1-1.55c-.16-1.4.39-2.23-.8-2.51A12.14,12.14,0,0,1,78.46,315c-.6-.45-.51-1.06-.66-1.85s-.83-1,.09-2.12c.58-.71,1.45-1.22,1.83-2.26s-.55-1.06.06-1.88,2-.54,2.63-.84a1.37,1.37,0,0,0,.82-.72c.31-.72-.25-.74-.37-1.09,0-.11.18-.19.39-.23a2.1,2.1,0,0,0,.84-.26,1.39,1.39,0,0,0,.39-.44c.11-.19.1-.34.25-.53a.92.92,0,0,1,.49-.31,2.79,2.79,0,0,0,1.1-.45,3.86,3.86,0,0,0,1.43-1.46,3.16,3.16,0,0,0,.34-1.34c-.07-.25-.38-.21-.34-.6.11-1.28,1.48-1.32,1.93-1.42.69-.16,1.5-.37,1.25.9-.11.56-.28,1.91.46,1.16.42-.43.58-.64.83-.26a1.18,1.18,0,0,1,.29,1.12,1.51,1.51,0,0,1-.73,1c-.49.35-1.07,2.17-1.86,2.33l-.39.08c-.79.18-.81,2,0,1.66a1.89,1.89,0,0,1,2.19.75c.74.9,1.85,1.86,2.41,1.85.84,0,.34-1.82.75-2a2.1,2.1,0,0,1,.74-.2c.14,0,.24-1.07.23-1.18a1.55,1.55,0,0,0-.3-.87c-.34-.44-.86-.47-1-1.18s.62-1.52,1-1.25a1.52,1.52,0,0,1,.42.77c.18.5.61.77.8.68a1.35,1.35,0,0,0,.35-.28c.27-.32.26-.71.48-1,.34-.54.81-.39,1.15-.91a.68.68,0,0,0-.18-1c-.62-.47-1.32-.73-1.92-1.16-.12-.09-.24-.14-.34-.23a1.77,1.77,0,0,1-.12-1.25,4.07,4.07,0,0,0,.12-.81,1.31,1.31,0,0,0-.44-.84,3.87,3.87,0,0,0-.74-.67c-.43-.31-1.49-.35-1.83-1S92.73,292,92.18,292c-.07,0-.28.21-.38.25a.54.54,0,0,1-.37,0c-.23-.06-.37-.27-.57-.37a1.39,1.39,0,0,0-1.46.13,5.54,5.54,0,0,1-.65.36,6.28,6.28,0,0,1-1.19.24,5.51,5.51,0,0,0-1.66,1.1,4.37,4.37,0,0,0-.9,1c-.36.62-.65,1.63-.25,1.74a10.21,10.21,0,0,0,1.63-.09c.44,0,1.53,0,1.08,1.07-.33.82-1.23.59-1.36,1.57a2.26,2.26,0,0,1-.13,1,4.35,4.35,0,0,1-.71.87,4.93,4.93,0,0,1-.7.61c-.33.23-.77.13-.71-.34s.43-.69.54-1.08a.44.44,0,0,0-.29-.59,1,1,0,0,0-.34-.1,1,1,0,0,1-.59-.44,2,2,0,0,1-.17-.43c-.08-.26-.22-.5-.31-.79a2.21,2.21,0,0,1,.42-1.62c.14-.13.3-.26.48-.44a9.52,9.52,0,0,0,1-1.27c.63-1,.81-1.89.1-1.82a3.5,3.5,0,0,0-2.35,2.07,11.73,11.73,0,0,1-.87,2c-.39.58-.91,1-1.26,1.58a10.57,10.57,0,0,0-.58,1.62c-.25.54-.36.43-.68.62-.73.44-.68,1.69-1.39,2.26a1.85,1.85,0,0,1-.75.27,2.49,2.49,0,0,1-1.27,0c-.11,0-.27-.07-.18-.33s.49-.47.71-.62a3.65,3.65,0,0,0,1.29-2.41c0-.43-.41-.41-.62-.6a1.66,1.66,0,0,1-.32-1.68q-1.77,2.6-3.31,5.31a.38.38,0,0,1,.33.25c.08.2,0,.45-.19.77a4,4,0,0,0-.27.62c-.13.34-.68,1.62-1.07,1.34a1.69,1.69,0,0,1-.28-.26,78.34,78.34,0,0,0-8.83,35.74.66.66,0,0,1,.65.18c.7.62,1.09,2.25,1.79,2.87a12.28,12.28,0,0,1,3.18,3.83,7.19,7.19,0,0,0,1.89,3,9.46,9.46,0,0,0,5.34,1.77c1.76-.12,3.49,2.86,5.13,2,.19-.11,1,1.29,1.17,1.47a5.85,5.85,0,0,0,1.78,1.63A12.39,12.39,0,0,0,86,359c1.42.55,3.13,1.41,2.78,3.57a31.88,31.88,0,0,1-1.17,3.79,5.14,5.14,0,0,0,0,4c.64,1.26,1.74,2.2,2.41,3.45s.4,2.86,1.1,4.23c.88,1.72,2.18,2,3.85,2.74a5.72,5.72,0,0,1,3,2.63,49.65,49.65,0,0,1,4,8.79c1.33,3.77,2.39,7.78,4.53,11.18a16.49,16.49,0,0,0,3.79,4.41c1,.79,2,.84,2-.68,0-.93-.71-1.72-1-2.56s0-1.56,0-2.44c0-.72-.61-1.84-.09-2.41s1.27-.16,1.57-.94c.38-1-.66-1.45-.81-2.22s1.15-.75,1.57-1.43c.27-.42.15-1,.34-1.45s.36-.42.59-.68a4.15,4.15,0,0,0,.74-1.8c.22-1.05-.77-2.27-.34-3.26A4.71,4.71,0,0,1,117,386.1c.6-.28,1-.32,1.4-1.1a5.15,5.15,0,0,0,.29-2.94c-.16-.65.1-1.3,0-1.77a10.28,10.28,0,0,1-.59-3.06c.07-1.92,1.73-3.19,1.86-5.21C120,370.76,118.67,369.61,117.75,369.23ZM77.43,326c.8-.72,2.24-2.35,3-1.93a2.85,2.85,0,0,1,.85,1.12c.47.85,1.71,1.17,2.43,1.53s-.31,1.05-.44,1.75-.63,1-.6.57c0-.24,0-.42-.34-.29s-.35-.17-.21-.56c.19-.54-1.06-1-1.41.08a7.58,7.58,0,0,0-.22.91c-.22,1.12-1.31,1.07-1.07,0,0-.14.06-.29.1-.43.3-1.11,0-2.44-.92-2.36S76.56,326.75,77.43,326Zm-14,17.08a.32.32,0,0,0,.12-.3c0-.09-.44-.37-.73-.68q0,1.44.06,2.88c.33.36.85.71,1.1,1s1,1.46,1.39,1.43c.75-.06-.19-1.55-.37-1.77S63.37,343.08,63.4,343.06Zm15.5-45.45c.85.43,1.85-.52,2.4-1.41.7-1.13-.52-1.14,0-1.54s.74-.63.57-.81-.16-.05-.21-.11-.59,0-1.46.46-1.08,1.36-1.71,1.66S78.34,297.31,78.9,297.61Zm5.32-8.09a2.62,2.62,0,0,0,1.11.18.79.79,0,0,1,.47.12c.39.29-.4,1.39-.09,1.75s.63.12,1,.11a6.57,6.57,0,0,0,1.5-.13,4.61,4.61,0,0,0,.93-.39,14.65,14.65,0,0,1,2.31-.81,1.28,1.28,0,0,0,1-1.33c0-.57-.51-.54-1.11-.35-.8.25-1.72.68-2,.74s-.35,0-.27-.13,1.12-.65,1.3-.73c.39-.17.77-.36,1.15-.54.63-.3,1.35-.56,1.65-.69a3.25,3.25,0,0,0,.56-.28,3.47,3.47,0,0,0,.79-.64c.41-.55.08-.82.47-1.31a4.3,4.3,0,0,1,1.15-.87,12.69,12.69,0,0,0,1.22-.84c.73-.64.67-1.38,1.2-2.15a4.94,4.94,0,0,1,1.07-1.11c.59-.46,1.39-1,1.83-1.35l.79-.65a5.36,5.36,0,0,0,.87-.9c.17-.22.33-.49.49-.71a1.71,1.71,0,0,1,.54-.49,3.81,3.81,0,0,0,1.43-1.65c.36-.88-.31-.64-.46-.82s-.68-.25-1.14-.16c-1,.2-2.22.75-3.42,1.12-1.59,1-3.15,2-4.69,3.07-1.32.94-2.59,1.92-3.83,2.92a2.36,2.36,0,0,0,.84.27c.71.17,1.85-.63,2.76-1,.41-.15,1.66-.76,1.75-.37.13.59-1.25,1.35-1.55,1.51a1.59,1.59,0,0,0-.65.51c-.34.47-.9,1.1-1.29.86a1.85,1.85,0,0,0-.73-.39.5.5,0,0,0-.52.3c-.26.43-1,1.15-1.18.66-.08-.28-.08-.7-.31-.81s-.46-.08-.63-.19l-.08-.09q-1.86,1.57-3.6,3.24a1.3,1.3,0,0,0,.32.34,2.24,2.24,0,0,0,1.43.4,4.7,4.7,0,0,0,.84-.18c.34-.11,1.12-.66,1.34-.57s-.16.87-.47,1.31a7.21,7.21,0,0,1-1.87,1.72,3.34,3.34,0,0,1-2.5.64c-.25-.05-1.27-.3-1.67.11S84,289.39,84.22,289.52Zm53.36-13.74c.21.21.4.48.6.7a3.51,3.51,0,0,0,.8.64,8.75,8.75,0,0,1,1,.67l.11.15c.12.2,0,.16,0,.31s.17.44.46.58.46.29.7.44,1.11.34,1.22-.06a3.14,3.14,0,0,0,.06-.82,6.24,6.24,0,0,1,0-1.37,1,1,0,0,0,0-.2c0-.1.26-.25.6-.08l.62.34a1.31,1.31,0,0,1,.24.12c.14.08.14.29.14.36a.2.2,0,0,0,.06.14c.08.11.17.12.27.17a3.3,3.3,0,0,0,1,.32,1.11,1.11,0,0,0,.4,0,.39.39,0,0,0,0-.67,9.62,9.62,0,0,1-1.47-.72,3.36,3.36,0,0,1-.82-.82c-.44-.61,0-.75.4-.76a4.72,4.72,0,0,0,.92-.11,2,2,0,0,0,1.15-.71.92.92,0,0,0-.06-.71l0-.06a1.28,1.28,0,0,0-1.24-.33c-.48.05-1,.08-1.53.09a3.08,3.08,0,0,1-.68,0,1.38,1.38,0,0,0-.52-.08,2,2,0,0,0-.84.39,1.69,1.69,0,0,1-1,.32c-.21,0-.57-.12-.58.15s.48.72.58,1.09-.26.18-.47,0-.22-.54-.42-.74-.32-.1-.35,0,0,.5-.38.26c-.22-.13-.32-.32-.56-.39-.41-.11-1.3.21-.92.92C137.2,275.52,137.4,275.61,137.58,275.78ZM133,314.93c-.08.25-.25.54-.14.83.3.76,1.11.26,1.56.1a2.14,2.14,0,0,0,1.16-1.45,2,2,0,0,0-.24-1.4c-.24-.39-.86-1.07-1.27-.76-.16.13-.11.36-.24.48s-.59,0-.82.11c-.65.19-.11.87,0,1.26A1.46,1.46,0,0,1,133,314.93Zm36.45-26.36a8.43,8.43,0,0,0,1,.61,1.38,1.38,0,0,0,1.38-.06c.23-.22-.1-.72-.3-1.08-.07-.14-.16-.27-.24-.4a3.72,3.72,0,0,1-.37-1.39,3.07,3.07,0,0,1,.07-.87,3.37,3.37,0,0,1,.83-1.52,10.08,10.08,0,0,1,2.26-1.61,13.08,13.08,0,0,1,1.2-.56l.76-.31a5,5,0,0,0,.61-.15.62.62,0,0,0-.06-1.08l-.25-.12a.78.78,0,0,0-.61.09,5.22,5.22,0,0,1-1.63.44c-2.33.28-4.2,1.18-4.91,3.31a11.13,11.13,0,0,0-.63,2.3c0,.29,0,.58-.33.63s-.28.11-.19.37A2.85,2.85,0,0,0,169.41,288.57Zm-34.3,20.84.07.06a10.21,10.21,0,0,0,0,1c.06.55.85.75.92,1.22s.81.08,1.07.5.29,1.33-.13,1.52-.22,1.09-.5,1.32-.38.28-.19.59.63-.19.65.26-.54.5-.36.88.59.21.83.18a4.29,4.29,0,0,0,3-1.4c.25-.36.76-1.25.27-1.59-.19-.12-.42-.12-.61-.29a2.71,2.71,0,0,1-.49-.78,10.4,10.4,0,0,0-.68-1.33c-.41-.61-1.34-.91-1.24-1.86,0-.31.41-.6.29-.94s-.27-.22-.41-.31-.76-.61-.71-.88-1.51-.27-1.35.26C135.77,308.63,134.5,308.93,135.11,309.41Zm83.18,17c-.06-.35-.18-.91-.28-1.39a78.94,78.94,0,0,0-23.75-41.32,3.52,3.52,0,0,1-.49.05,12,12,0,0,0-2.26.2,2,2,0,0,0-1.24,1.22,1.89,1.89,0,0,1-.62.88,2.08,2.08,0,0,1-1.2.26c-.31,0-.93,0-.8.5s.95,1.17,1.24,1.63c.66,1.05-.82.21-1.2,0a4,4,0,0,0-1.31-.54c-.26,0-.84-.2-.86.11a2.68,2.68,0,0,0,.46,1c.23.39.27.52,0,.62s-.63.14-.93.23a2.26,2.26,0,0,1-3.1-1.51,2.14,2.14,0,0,0-.68-.95,1.94,1.94,0,0,0-.95-.42c-.66,0-.74.6-.59,1.26s-.46.87-.25,1.49a4.29,4.29,0,0,0,1.24,1.57c.4.38,1.1.91.93,1.38-.24.66-1.15.17-1.78-.21-.85-.52-1.72-.91-2.58-1.43a5.3,5.3,0,0,0-2.33-.73c-.43,0-.68.2-.17.71.23.23,1,.65,1,1.08s-1,.34-1.33.38a10.59,10.59,0,0,1-2.6.15,6.73,6.73,0,0,0-2-.2,3.39,3.39,0,0,0-.83.31,2.05,2.05,0,0,0-.75.94.44.44,0,0,1-.22.23,1.69,1.69,0,0,1-.34.11,1,1,0,0,1-.95-.84c0-.4,0-.83-.39-1.05A1.61,1.61,0,0,0,165,292a.51.51,0,0,0-.25.41c0,.32.17,1.16.12,1.75a1.31,1.31,0,0,1-.36.87,2.85,2.85,0,0,1-.67.35,1.45,1.45,0,0,0-.65.83c-.3.66-.54,1.26-1.2,1.43s-1.17-.09-1.84-.78a17,17,0,0,1-1.38-1.54c-.62-.85.65-.46,1-.4.5.09,1,.05,1.49.11a5.53,5.53,0,0,0,1.22,0c.32-.05.89-.14.83-.67-.14-1.17-2.49-2.37-3.17-2.75l-1-.52c-.55-.26-1.48-.7-2.08-1a3.4,3.4,0,0,0-1.07-.32c-.56,0-1,.75-1.62-.33a1.69,1.69,0,0,0-1.23-1,5.43,5.43,0,0,0-3.19.29,2.9,2.9,0,0,0-.76.51c-.38.33-.76,1-1.06,1.16a1.12,1.12,0,0,1-.62.14c-1.34-.08-1.76,1.13-1.82,2.75,0,.44,0,.93,0,1.35a2.69,2.69,0,0,1-.2.7c-.14.35-.51,1.16-.79,1.83-.17.41-.35.82-.52,1.25-.49,1.2-1.06,2.43-1.65,3.71a4.67,4.67,0,0,0-.54,3,3,3,0,0,0,1.38,1.79,2,2,0,0,0,2.13,0c1-.42,1.44.07,2,1.26a3.31,3.31,0,0,0,.93,1.45,1.82,1.82,0,0,0,1.53.18c.53-.22.69-.82.58-1.52a2,2,0,0,1,.31-1.64,1.6,1.6,0,0,0,0-1.6c-.36-.91-1.09-2.06-1.26-2.67a2.75,2.75,0,0,1-.09-1.07,4.25,4.25,0,0,1,.22-.87,23,23,0,0,1,1.17-2,4.93,4.93,0,0,0,.57-1.56,2.33,2.33,0,0,1,.22-.73,1.06,1.06,0,0,1,1.14-.34,1,1,0,0,1,.63.52,2.24,2.24,0,0,1-.08,1.72c-.22.57-.71.73-1,1.25a4.37,4.37,0,0,0-.1,2.13,4.54,4.54,0,0,0,.51,2.17c.53.7,1.46.47,2.08.39a7.91,7.91,0,0,1,.91-.1,3.17,3.17,0,0,1,1.34.2c.22.12.47.7.25.84a1.2,1.2,0,0,1-.43.13c-.62.11-1.26.08-1.88.17-.38.05-1,.05-1,.67s.45.83.71,1.11a1.31,1.31,0,0,1,.52,1,.37.37,0,0,1-.43.33,1.89,1.89,0,0,1-.88-.52c-.17-.16-.39-.48-.59-.36s-.06,1.34,0,1.71a3.15,3.15,0,0,1-.17,1.85c-.6,1.08-1.94,1.12-3,1.14a10.76,10.76,0,0,1-1.94-.26,3.41,3.41,0,0,1-1.24-.33c-.89-.57-.53-2.21-.77-3.15-.29-1.1-1.18-.26-1.31.41-.21,1.06.7,2.24.42,3.24-.2.7-1,.77-1.54,1a2.24,2.24,0,0,0-1.09,2,2,2,0,0,1-.61,1.1c-.33.45-.73.83-1.08,1.23a1.41,1.41,0,0,1-1,.57c-.26,0-.64-.15-.83,0s0,.59-.41.76-.94,0-1.37.12-.7.29-.4.64a4.5,4.5,0,0,0,1.2.65,2.56,2.56,0,0,1,1.12,2c.18,1.17,0,2.12-1.14,2.29a9.07,9.07,0,0,0-3.19.57c-.92.49-.77,2.31-.71,3.33a2,2,0,0,0,.39,1.16c.2.28.29.67.54.89a1.52,1.52,0,0,0,1.18.26,1.41,1.41,0,0,1,1.16.35,2.08,2.08,0,0,0,.26.18c.16.07.34-.36.65-.45a1.8,1.8,0,0,1,.57,0,1.69,1.69,0,0,0,.55,0c.18-.05.25-.24.38-.3a1.82,1.82,0,0,0,.85-1.37c.07-.28.1-.57.18-.85a9.17,9.17,0,0,1,.41-.9,4.11,4.11,0,0,1,.21-.68c.23-.41.6-.37,1-.52a1.19,1.19,0,0,0,.75-1.11c.06-.43,0-.92.39-1.12s.71.07,1,.06a3.17,3.17,0,0,0,1.5-.77c.94-.61,1.76-.35,2.44.65a8.33,8.33,0,0,0,1,1.29c.29.29.65.44.94.73s.81.64,1.16,1a2,2,0,0,1,.29,1.72c0,.22-.18.58,0,.77s.4,0,.52-.18a2.21,2.21,0,0,0,.23-1.69c0-.3-.09-.66.15-.76s.23,0,.35.05.13-.59-.3-.88a1.59,1.59,0,0,0-.8-.31c-.2,0-.78-.7-.95-.86a11.82,11.82,0,0,1-1.26-1.29,2.63,2.63,0,0,1-.67-1.29c0-.72.68-.71,1.09-.42s.4.66.61,1c.47.78,1.31.89,2,1.27.46.27.48.67.7,1.19a8.15,8.15,0,0,1,.54,1.16c.07.31.05.36.26.57a4.07,4.07,0,0,0,.64.54,3.37,3.37,0,0,1,.61.46c.18.22.11.2.09.45,0,.53,0,1.07.47,1.33s.54-.71.71-1.11a1,1,0,0,0,.08-.86c-.11-.27-.41-.43-.54-.7-.34-.67.31-.65.61-.89s.76-.84,1.34-.46c.32.21.28.45.27.81a3.21,3.21,0,0,0,.33,1.12,4.17,4.17,0,0,0,.35,1.1,2.75,2.75,0,0,0,2.26,1.16c.35,0,.65-.32,1-.25.15,0,.26.15.4.2a1.58,1.58,0,0,0,.78,0c.34,0,.67-.18,1-.2.56,0,.74.11.64.77a23.36,23.36,0,0,0-.34,3c0,.38.15,1.32-.06,1.6s-.86-.21-1.15-.33a5.11,5.11,0,0,0-2.62-.26,10.56,10.56,0,0,1-1.37.12,2.38,2.38,0,0,1-1.29-.18c-.7-.48-2.51-1.86-3.14-.69-.43.78-.09,2.19-1.26,2a5.38,5.38,0,0,1-1.56-.67,11.58,11.58,0,0,0-2.39-.8,3,3,0,0,1-1.54-.82c-.59-.66.28-.93.33-1.63a1.87,1.87,0,0,0-.69-1.64,2.19,2.19,0,0,0-1.43-.16c-.25,0-.48,0-.72,0a2.88,2.88,0,0,0-.8.26,7.9,7.9,0,0,1-1.73.28l-.92.09c-.18,0-.66,0-.8.14a4.09,4.09,0,0,1-2.71,1.55,3.86,3.86,0,0,0-1.91.14,6.27,6.27,0,0,0-1.65,1.36c-.41.44-.8.9-1.18,1.37a2.59,2.59,0,0,0-.32,2,1.93,1.93,0,0,1-.29,1.22,4.24,4.24,0,0,1-1.43,1.54,4.06,4.06,0,0,0-1.62,1.59,11.65,11.65,0,0,0-.78,2.11,6.42,6.42,0,0,0,.5,4.5c.21.36-.2,1.55-.26,2a3.76,3.76,0,0,0,.26,2.19,3.51,3.51,0,0,0,.9,1.2,18.72,18.72,0,0,1,1.91,2.44,14.87,14.87,0,0,0,2,2.14,5.38,5.38,0,0,0,3.27,1.31,3.18,3.18,0,0,0,1.66-.36,2.32,2.32,0,0,1,.87-.27,5.26,5.26,0,0,0,1.81-.59c.3-.19.59-.41.85-.6a2.07,2.07,0,0,1,1.94-.41,3.07,3.07,0,0,1,.8.46,7.3,7.3,0,0,0,1.56,1,2.28,2.28,0,0,0,.84.15,2,2,0,0,1,1.34.51c1,.88.58,2.2.11,3.35a3.14,3.14,0,0,0,.57,2.92c.25.39.43.8.69,1.16a4.34,4.34,0,0,1,.72,1.31c.12.47.26.89.39,1.33a10.19,10.19,0,0,1,.31,2.75c0,.45-.06.91-.12,1.37,0,.22-.06.44-.1.67a7.05,7.05,0,0,1-.28,1.22,3.8,3.8,0,0,0-.18.54,8,8,0,0,0-.13,1.39c0,.77-.07,2.12-.08,2.89a6.88,6.88,0,0,0,.12,1.38,35.25,35.25,0,0,0,2,5.68c.35.87.66,1.79,1,2.65.18.45.31.93.51,1.36a6.06,6.06,0,0,1,.37,1.48c.25,1,.63,1.65,1.47,1.84a3.71,3.71,0,0,0,2.1-.41,8.83,8.83,0,0,0,3.77-2.9,11.44,11.44,0,0,0,1.46-2.95,7.13,7.13,0,0,0,.43-1.49c.07-.55.1-1.11.22-1.65.18-.83.32-1.74.54-2.55a8.14,8.14,0,0,1,1.31-3.38,16.66,16.66,0,0,1,1.25-1.27c.68-.68,1.94-1.78,1.9-3.08-.18-6.12-2.22-10.77,3-15.6a17,17,0,0,0,3.52-7.06c.19-1.21-.65-1.92-1.38-1.57a12,12,0,0,1-1.35.56c-.42.15-.86.22-1.28.34a2.13,2.13,0,0,1-1.27-.23,1.27,1.27,0,0,1-.85-.84c-.18-.45-.15-.92-.3-1.38a2.25,2.25,0,0,0-.81-1,8.52,8.52,0,0,1-1.77-2.2,10.78,10.78,0,0,1-.9-2.8,4.57,4.57,0,0,0-.9-1.72,12.8,12.8,0,0,1-1-1.71c-.29-.6-1.37-2.66-.55-3.15.64-.39,1.26,1.5,1.52,2,.52,1,1.07,1.87,1.63,2.74l.87,1.34c.48.75,1.06,1.66,1.29,2l.41.69a5.78,5.78,0,0,1,.74,1.36c.4,1.91,1,2.92,2.11,2.79s2.34-1.24,3.2-1.79a29.73,29.73,0,0,0,4.32-3.31,7.12,7.12,0,0,0,.82-1.36,5.07,5.07,0,0,0,.72-1.67,1.05,1.05,0,0,0-.52-1.19c-.28-.16-.59,0-.83-.22s-.38-.74-.61-1c-.45-.57-.88-.12-1.33.18s-1.37.95-1.85.6c-.33-.25-.18-.58-.36-.91s-.37-.15-.61-.21c-.61-.16-.91-1-1.23-1.59s-.79-1.38-.66-1.92c.22-.92,1.22.23,1.51.52s.79.61,1.11,1a2,2,0,0,0,1,.66,7.57,7.57,0,0,0,1.14.43c.3,0,.59-.09.9,0a1.12,1.12,0,0,1,.47.3,3,3,0,0,0,2,.85c.84-.05,1.69-.3,2.47-.41a3.7,3.7,0,0,1,1.87.06,3.49,3.49,0,0,1,1.71,1.56c.29.58.55,1.41,1.16,1.67s.92-1.16,1.29-.84c.2.17.21.73.25,1a7.63,7.63,0,0,0,.2.95c.19.72.36,1.45.55,2.19a34.7,34.7,0,0,0,1.35,4.46c.27.69.68,1.72,1.32,1.92.29.08.71-.33.88-.61a3.26,3.26,0,0,0,.32-1,10,10,0,0,0,.23-1.31,14.89,14.89,0,0,1,.48-2.41c.13-.35.28-.69.44-1a8.23,8.23,0,0,1,1.09-1.68,7,7,0,0,0,1-1.12c.11-.19.22-.38.32-.57a11.78,11.78,0,0,1,.66-1.05,1.21,1.21,0,0,1,.43-.39,2.69,2.69,0,0,1,.62-.11c.43-.1.54-.45.88-.68s.71.06.94.3a5.2,5.2,0,0,1,.88,2.82c.07.48.14,1.1.61,1.13s.72-.28,1.11.08.47,1.17.71,1.71.69.72.78,1.32c.06.39-.09.46-.23.77s-.05.51.06.82a1.91,1.91,0,0,1,.09,1.06,3.12,3.12,0,0,0-.2,1,.47.47,0,0,0,.34.4,1.35,1.35,0,0,1,.68.83c.06.24.12.48.16.66a4.09,4.09,0,0,0,.23.77c0,.08.09.14.13.21a1.72,1.72,0,0,1,.17.85.59.59,0,0,1-.23.51c-.14.07-.32,0-.5-.13s-.66-.44-.9-.56a1,1,0,0,0-.45-.15c-.81,0,.17,1.86.38,2.16s.38.43.56.68a2.2,2.2,0,0,1,.31.87,10.18,10.18,0,0,0,.83,1.86,7.26,7.26,0,0,0,1,1.57,3.3,3.3,0,0,0,.62.57c.07.05.71.34.7.37,0,2.34,1.87.8,2.72,1.47.66.62,1.44.35,2.22.24a3.52,3.52,0,0,0,.6-.14c.06-.2.11-.4.17-.6-.29-.06-.57-.13-.69-.37a1,1,0,0,0-.73-.49,11.24,11.24,0,0,0-2,.06,2.53,2.53,0,0,1-1.07-.14,1.11,1.11,0,0,1-.47-.37,2.35,2.35,0,0,1-.12-1.53,2.17,2.17,0,0,0-.5-1.58c-.15-.19-.29-.41-.43-.59s-.57-.43-.8-.74a1.75,1.75,0,0,1-.41-1.11,1.06,1.06,0,0,1,.28-.66,2,2,0,0,0,.22-1.5c-.1-.29-.23-.56-.3-.77a10.35,10.35,0,0,0-.54-1.11c-.1-.18-.24-.29-.34-.46a8.5,8.5,0,0,1-1-4.22c0-.44.18-.87.55-.86a.58.58,0,0,1,.32.12,3.22,3.22,0,0,1,.67.75c.18.24.36.48.42.47.75-.08.85,2.65,1.81,1.5.3-.35.73-.56,1-.92a3.38,3.38,0,0,0,.37-.46,4.07,4.07,0,0,0,.6-1.5,3.49,3.49,0,0,0,0-1,5.38,5.38,0,0,0-.81-2,5.22,5.22,0,0,0-.69-1,1.15,1.15,0,0,1-.47-.87c-.06-1,.78-2.21,1.67-1.92a1.43,1.43,0,0,0,1.6-.35,7.06,7.06,0,0,1,1.7-1.5,8.13,8.13,0,0,0,2.73-1.64l.18-.21A77.67,77.67,0,0,0,218.29,326.42Zm-51-1.36a8.59,8.59,0,0,1-2.1-.45,7.63,7.63,0,0,0-3.44.4,3,3,0,0,1-1.41.11c-1-.23-.51-2.46-.16-3.52a4.18,4.18,0,0,1,.75-1.57c.69-.75,2.25.11,2,.39s.14.53.21.81.36.52.62.26-.13-1.5.71-2l.33-.17c.88-.41,1.36.07,1.28,1.23a2.24,2.24,0,0,0,.07.83c.34,1.16,1.53,1.24,1.54,1.37s.47.27.84.68S168.25,325.06,167.26,325.06Zm8.4,3.7c-.95-.41-1.15-2.05-1.2-3.09s-1.73-1.94-2-3.11c-.43-2.07,1.24-3.75,2.54-3.71,1,0,.4,1.53,0,2.52-.15.34,0,.64.38,1.06a11.6,11.6,0,0,0,2.07,1.67c.45.4,0,.95-.56,1.14s1.13,1.7.95,2.82C177.68,329,176.67,329.19,175.66,328.76Zm-32.12-1.54c.33-.38.24-.75-.79-.66-.16,0-.39.29-.54.6S143,327.85,143.54,327.22Zm74.94,23.71c-.78-.09-1.09.72-1.63,1.34a16.82,16.82,0,0,1-2.15,2c-.47.36-1.29,0-1.43.91a4.14,4.14,0,0,0,.37,2.32,4,4,0,0,0,.81,1.49,1.93,1.93,0,0,0,2.84.07,2.3,2.3,0,0,0,.36-.52c.16-.32.33-1,.55-1.35.21-1.05.39-2.1.56-3.16a1.24,1.24,0,0,1,0-1.35C219.19,352,219.24,351,218.48,350.93ZM84,305.08c-.4,1-.47,2,0,2.18s1.65-.54,2.49-.81c1.19-.37.19-.9-.63-1.68C85.34,304.25,84.44,304,84,305.08Zm67.4,24.49a.83.83,0,0,0-.57-1.05c-.28-.11-.31.2-.31.56S151.19,330.28,151.43,329.57ZM148,326.85c.36-1-.58-4-.94-2.9a3.76,3.76,0,0,0-.15.62C146.68,325.74,147.59,327.89,148,326.85ZM88.68,348.47a4.58,4.58,0,0,1-2.11-.64c-.64-.34-1.39-.76-2-.44-.48.23.15.75.49,1a7.37,7.37,0,0,0,.78.43c.43.22,1,.66,1.36.82a.92.92,0,0,0,.62.11c.85-.11,1.69-.68,2.59-.07.21.14.57.58.83.53h.05c.27-.12.19-.62.06-.88C90.79,348.3,89.43,348.49,88.68,348.47Zm32.76-69.56c-1.47-1.71,3-5.32,2.57-6.14a.71.71,0,0,0-.42-.25,3.86,3.86,0,0,0-1-.11,1.65,1.65,0,0,0-.57.12,1.79,1.79,0,0,0-.66.63c-.33.44-.75.93-.89.79s-.08-.19-.2-.36c-.34-.5-.37-.1-.75.13-.19.11-.85.2-.91-.39s.53-1.24.7-1.57a1.51,1.51,0,0,1,.53-.6c.32-.2.25-1-.27-1.44a3.53,3.53,0,0,0-1.7-.7,5.36,5.36,0,0,0-3.44.57,8.18,8.18,0,0,0-1.69,1.15c-.75.66-1.44,2.13-2.29,2.88a1.27,1.27,0,0,1-1.39.27c-.8-.2-1.84-.44-3.21,1.12-.84,1-.25,1-.59,1.89s-1.35.73-1.71.91a2.39,2.39,0,0,0-.53.35,2.58,2.58,0,0,0-.61,1.55c0,.18,0,.34-.53.82a14.28,14.28,0,0,1-2.09,1.61,3.53,3.53,0,0,0-1.38,1.63c-.32.69-.07.66.13.87a.93.93,0,0,1,.23.38c.1.26.15,1,.47,1.06a6.46,6.46,0,0,0,2.08-.71c1.26-.53,2.46-.91,3.11.13a2.53,2.53,0,0,1,.35,1.19,12.46,12.46,0,0,1-.6,3.18,2.36,2.36,0,0,0-.12,1.4c.32.75,1.24.7,1.58,1.55a3.51,3.51,0,0,1-.34,2.49,16.05,16.05,0,0,1-1.51,2.15,5.49,5.49,0,0,0-.39,2.52,7.88,7.88,0,0,0,.3,3,21.63,21.63,0,0,0,1.06,3,3.74,3.74,0,0,0,.62,1,2.69,2.69,0,0,0,2.37.3,2.57,2.57,0,0,0,1.37-.89c.84-1.06.59-2.65.9-3.94a3.29,3.29,0,0,1,1.66-2.31,6.69,6.69,0,0,0,2.35-1.54c.49-.66.77-1.68,1.3-2.29.72-.83,1.88-.85,2.7-1.24.56-.28,1.68-.91,1.75-1.77,0-.46-.15-.69,0-1.14a1.9,1.9,0,0,1,.61-.62c.09-.06.27-.11.43-.19s.3-.7.11-1-.27-.37-.34-.5c-.5-1-.6-1.78.15-2.37s1.73-1.51,1.43-2.74c-.18-.74-.61-1-.63-1.82a3.23,3.23,0,0,1,.12-.91,8.75,8.75,0,0,1,.72-1.4,1,1,0,0,0,0-.84C122.26,279.27,121.72,279.24,121.44,278.91Zm55.12,93.27a2.87,2.87,0,0,1-.14-.3,1.52,1.52,0,0,0-.2-.33c-.13-.15-.65.08-.75.62a7.93,7.93,0,0,0-.1,1c-.13,1.39-1.24,2.08-1.88,3.11-.89,1.43-.58,2.92-.58,4.4,0,1-.44,2.3-.08,3.15,1.2,2.76,2.73-1.71,3.15-3.1a26,26,0,0,0,1.1-5.59c0-.37,0-.76,0-1.14a3.41,3.41,0,0,0-.31-1.48A2.57,2.57,0,0,1,176.56,372.18ZM127.05,296.6c-.34.06-.65.38-.92.51a5.72,5.72,0,0,1-1.1.16c-.6.09-1.16,1-1.63.41s-.8,1.3-.13,2.35c1.52,2.4,4.46.87,5.21-.81C129,298.12,127.6,296.49,127.05,296.6Z" style="fill:#fff;opacity:0.55"></path><path d="M195.12,297c-32.09-41-59.6-18.79-50.69,14.12s41.58,65.24,54.83,57.34S219,327.4,195.12,297Z" style="fill:#fff;opacity:0.4"></path><g style="opacity:0.30000000000000004"><path d="M109.06,387c-33.3-20.75-37.47-77.41-26.64-97.24a78.49,78.49,0,1,0,129.08,87C200.94,392.64,153.81,414.84,109.06,387Z" style="fill:#0687F3"></path></g></g><path d="M148,242c5,9.56,14.59,19,25.37,18.85,2.77-.05,5.65-.89,7.39-3.05,2.35-2.92,3.21-7,1-12.89-4.35-11.67-12.65-22.61-18.57-29.65-6.93-8.24-12.14-10.13-15.16-9.8-5.4.6-5.92,8.28-5.85,13.94A51.42,51.42,0,0,0,148,242Z" style="fill:#fff;opacity:0.30000000000000004"></path></g></g><g id="freepik--Faucet--inject-126"><g id="freepik--faucet--inject-126"><path d="M72.74,47.83C68.45,45.34,62.53,45.69,56,49.47,42.9,57,32.29,75.39,32.29,90.5c0,7.57,2.67,12.89,7,15.35l5.22,3c4.28,2.48,10.21,2.13,16.75-1.65,13.08-7.55,23.69-25.92,23.69-41,0-7.55-2.65-12.85-6.93-15.32C77.12,50.35,73.61,48.33,72.74,47.83Z" style="fill:#37474f"></path><path d="M32.52,86.82a35.46,35.46,0,0,0-.23,3.68c0,7.57,2.67,12.89,7,15.35l5.22,3c4.28,2.48,10.21,2.13,16.75-1.65a34.76,34.76,0,0,0,3.08-2Z" style="fill:#263238"></path><ellipse cx="61.24" cy="79.86" rx="33.5" ry="19.34" transform="translate(-38.54 92.97) rotate(-60)" style="fill:#455a64"></ellipse><path d="M80.66,106.78c1.74,1,4.15.86,6.8-.67,5.32-3.07,9.62-10.53,9.62-16.66,0-3.06-1.07-5.21-2.8-6.22L68.62,68.41c-1.74-1-4.15-.86-6.8.68-5.31,3.06-9.62,10.52-9.62,16.66C52.2,88.81,53.28,91,55,92Z" style="fill:#455a64"></path><path d="M96.81,87,64.07,68.11a10.25,10.25,0,0,0-2.25,1,14.51,14.51,0,0,0-2.15,1.52L96.4,91.82l.51-.2a14.63,14.63,0,0,0,.17-2.17A10.87,10.87,0,0,0,96.81,87Z" style="fill:#fff;opacity:0.1"></path><path d="M87.46,106.11a16.34,16.34,0,0,0,3.4-2.69L70.75,91.82c-7.3-4.22-12.46-6.33-13.48-12a10.83,10.83,0,0,1,5.32-11.09c-.26.12-.51.25-.77.4-5.31,3.06-9.62,10.52-9.62,16.66C52.2,88.81,53.28,91,55,92l25.64,14.81C82.4,107.78,84.81,107.64,87.46,106.11Z" style="fill:#37474f"></path><path d="M136.55,112.12a7.72,7.72,0,0,0-1.64-5.19s0,0,0,0a4.7,4.7,0,0,0-.51-.49,3.58,3.58,0,0,0-.45-.31l-.16-.12.07,0c-3.41-2-13.83-15.24-23.74-21-9.33-5.39-12.49,0-15.79-1.87-1.74-1-4.17-.83-6.82.71-5.31,3.06-9.62,10.52-9.62,16.66,0,3.06,1.08,5.22,2.82,6.22,3.3,1.91,6.4,11,15.73,16.34,9.9,5.71,20.33,4.42,23.74,6.39,1.74,1,4.14.86,6.8-.68,5.31-3.06,9.63-10.52,9.62-16.65C136.56,112.16,136.55,112.14,136.55,112.12Z" style="fill:#455a64"></path><path d="M129.91,112.32c1.45.78,3.22.15,5-1a6.57,6.57,0,0,0-1.41-3.08l0,0a4.7,4.7,0,0,0-.51-.49,3.28,3.28,0,0,0-.45-.31l-.16-.12.07,0c-3.41-2-13.52-14.13-23.74-21a20.68,20.68,0,0,0-8.18-3.58c-1.58.24-2.84.7-4,.84C99.73,83.29,108.55,87.94,113,95,117.51,102.26,125.44,109.91,129.91,112.32Z" style="fill:#fff;opacity:0.1"></path><path d="M126.14,128.83c-3.43-2.91-9.57-3.16-18.26-6.62s-15.92-13-17.21-21.87.61-16.69,5.46-16.73a3.22,3.22,0,0,1-1.84-.42c-1.74-1-4.17-.83-6.82.71-5.31,3.06-9.62,10.52-9.62,16.66,0,3.06,1.08,5.22,2.82,6.22,3.3,1.91,6.4,11,15.73,16.34,9.9,5.71,20.33,4.42,23.74,6.39,1.61.93,3.81.86,6.24-.38A1.13,1.13,0,0,0,126.14,128.83Z" style="fill:#37474f"></path><path d="M125.09,159.13c0,2.39,1.57,4.79,4.72,6.62,6.33,3.66,16.6,3.65,22.93,0,3.16-1.83,4.74-4.23,4.74-6.62v-13c0-2.39-1.58-4.79-4.74-6.61-6.33-3.66-16.6-3.67-22.93,0-3.15,1.82-4.72,4.22-4.72,6.61Z" style="fill:#37474f"></path><path d="M157.48,146.12c0-2.39-1.58-4.79-4.74-6.61-6.33-3.66-16.6-3.67-22.93,0s-6.3,9.58,0,13.23,16.6,3.65,22.93,0c3.16-1.83,4.74-4.22,4.74-6.62" style="fill:#455a64"></path><path d="M154.88,145.11v-8.32a32.21,32.21,0,0,0-16.13-27.91l-4.84-2.79h0c-1.75-1.13-4.22-1-7,.53-5.32,3.06-9.62,10.53-9.62,16.66,0,3.07,1.08,5.22,2.82,6.23h0l3.49,2a8.13,8.13,0,0,1,4.06,7v6.55h0c0,2,1.32,4,4,5.55,5.31,3.08,13.92,3.07,19.23,0C153.55,149.13,154.88,147.12,154.88,145.11Z" style="fill:#455a64"></path><path d="M153.41,137.18a31.62,31.62,0,0,0-15.79-27.37l-7.55-4.37h0l-5.33,3.08,9.33,5.4a28.09,28.09,0,0,1,14,24.3v13.66a14.82,14.82,0,0,0,2.84-1.22,10,10,0,0,0,2.52-2Z" style="fill:#fff;opacity:0.1"></path><path d="M133.91,106.09c-2.06-1.12-4.48-.52-6.37.55a17.5,17.5,0,0,0-5,4.38,23.83,23.83,0,0,0-3.49,5.73,20.35,20.35,0,0,0-1.72,6.53,16.53,16.53,0,0,1,1.15-6.76,22.72,22.72,0,0,1,3.45-6,16.87,16.87,0,0,1,5.34-4.41,8.94,8.94,0,0,1,3.36-1A5.12,5.12,0,0,1,133.91,106.09Z" style="fill:#37474f"></path><path d="M134.87,137.28c0-7.72-2.23-9.74-6.41-12.15s-9.37-7-8.21-11.52a19.83,19.83,0,0,0-2.93,9.67c0,3.07,1.08,5.22,2.82,6.23l3.49,2a8.13,8.13,0,0,1,4.06,7v6.55c0,2,1.32,4,4,5.55,5.31,3.08,13.92,3.07,19.23,0A14.18,14.18,0,0,1,138.4,148C135.55,145.66,134.87,142.29,134.87,137.28Z" style="fill:#37474f"></path><path d="M131.66,150.66a20.12,20.12,0,0,0,6.46,1.78,24,24,0,0,0,6.66-.15,17.71,17.71,0,0,0,6.27-2.08c1.88-1.07,3.64-2.79,3.83-5.1a5.19,5.19,0,0,1-1,3.25,9.37,9.37,0,0,1-2.53,2.37,17.26,17.26,0,0,1-6.47,2.34,22.22,22.22,0,0,1-6.86,0A16.44,16.44,0,0,1,131.66,150.66Z" style="fill:#37474f"></path><path d="M140.12,49.36A6.41,6.41,0,0,0,133.71,43a6.29,6.29,0,0,0-3.11.81h0c-5.75,3.31-15.4,12-17.92,13.56l0,0,0,0h0a1.85,1.85,0,0,0-.7,1.62,5.67,5.67,0,0,0,2.57,4.44,1.77,1.77,0,0,0,1.83.16h0c2.84-1.46,15-5.43,20.51-8.62h0A6.4,6.4,0,0,0,140.12,49.36Z" style="fill:#0687F3"></path><path d="M128.09,46.78a.94.94,0,0,0-.2,1c.2.33.66.46,1.57.45,1.23,0,2.36-.19,3.59-.23a7.73,7.73,0,0,0,3.06-.51c2.34-1.1.38-3.4-1.76-3.54A7.64,7.64,0,0,0,128.09,46.78Z" style="fill:#fff;opacity:0.25"></path><path d="M131.9,54.67a139,139,0,0,0-18.64,7.69,4.54,4.54,0,0,0,1.22,1.07,1.77,1.77,0,0,0,1.83.16h0c2.84-1.46,15-5.43,20.51-8.62h0a6.39,6.39,0,0,0,2.32-9C140,48.35,139,52.52,131.9,54.67Z" style="opacity:0.2"></path><path d="M111.91,59a5.67,5.67,0,0,0,2.57,4.44c1.41.82,2.56.15,2.56-1.48a5.66,5.66,0,0,0-2.56-4.44C113.06,56.69,111.91,57.35,111.91,59Z" style="fill:#0687F3"></path><path d="M111.91,59a5.67,5.67,0,0,0,2.57,4.44c1.41.82,2.56.15,2.56-1.48a5.66,5.66,0,0,0-2.56-4.44C113.06,56.69,111.91,57.35,111.91,59Z" style="opacity:0.30000000000000004"></path><path d="M96.13,94.37c0,1.94,1.27,3.88,3.82,5.35,5.11,3,13.41,3,18.53,0,2.56-1.47,3.84-3.41,3.84-5.35v-19c0-1.93-1.28-3.87-3.84-5.35C113.36,67,105.06,67,100,70c-2.55,1.48-3.82,3.42-3.82,5.35Z" style="fill:#37474f"></path><path d="M102.81,68.78A15.26,15.26,0,0,0,100,70c-2.55,1.48-3.82,3.42-3.82,5.35v19c0,1.94,1.27,3.88,3.82,5.35a15.29,15.29,0,0,0,2.86,1.22Z" style="fill:#263238"></path><path d="M122.32,75.34c0-1.93-1.28-3.87-3.84-5.35C113.36,67,105.06,67,100,70s-5.09,7.75,0,10.7,13.41,3,18.53,0c2.56-1.48,3.84-3.41,3.84-5.35" style="fill:#455a64"></path><path d="M100.65,74c0,1.27.84,2.54,2.5,3.51a13.4,13.4,0,0,0,12.13,0c1.68-1,2.52-2.24,2.52-3.51V58.93c0-1.26-.84-2.53-2.52-3.5a13.4,13.4,0,0,0-12.13,0c-1.66,1-2.5,2.24-2.5,3.5Z" style="fill:#37474f"></path><path d="M102.81,55.68a4.1,4.1,0,0,0-2.16,3.25V74a4.08,4.08,0,0,0,2.16,3.26Z" style="fill:#263238"></path><path d="M117.8,58.93c0-1.26-.84-2.53-2.52-3.5a13.4,13.4,0,0,0-12.13,0c-3.33,1.94-3.33,5.07,0,7a13.4,13.4,0,0,0,12.13,0c1.68-1,2.52-2.24,2.52-3.51" style="fill:#455a64"></path><path d="M105.38,68.68a5.66,5.66,0,0,0-2.57-4.44,1.76,1.76,0,0,0-1.84-.16h0c-2.83,1.46-15,5.43-20.5,8.61h0a6.41,6.41,0,1,0,6.22,11.22h0c5.75-3.31,15.39-12,17.91-13.56l.07,0h0A1.84,1.84,0,0,0,105.38,68.68Z" style="fill:#0687F3"></path><path d="M78.76,76.71A4.19,4.19,0,0,0,79.7,80,3.42,3.42,0,0,0,83,81a1.37,1.37,0,0,0,1-.81,1.25,1.25,0,0,0-.19-1,6.38,6.38,0,0,0-.66-.8A5.17,5.17,0,0,1,82,75.5a3.25,3.25,0,0,0-.19-1.2C80.91,72.52,78.93,75,78.76,76.71Z" style="fill:#fff;opacity:0.25"></path><path d="M104.67,70.31h0a1.84,1.84,0,0,0,.7-1.62,4.34,4.34,0,0,0-.2-1.25A140.31,140.31,0,0,0,89.08,79.5c-5.41,4.92-9.5,3.76-11.12,1.83a6.36,6.36,0,0,0,8.73,2.58h0c5.75-3.31,15.39-12,17.91-13.56Z" style="opacity:0.2"></path><path d="M113.65,56.94v0a6.89,6.89,0,0,0-8.22-.42h0l-.08.06c-.18.12-.36.23-.52.36v0c-1.45,1.21-1.25,2.88.61,4a8.39,8.39,0,0,0,7.62,0,2.68,2.68,0,0,0,1.58-2.2A2.34,2.34,0,0,0,113.65,56.94Z" style="fill:#0687F3"></path><path d="M110.8,56.45l1.24.36.14,0s.1,0,.1-.09,0-.11-.08-.15a4.05,4.05,0,0,0-1.4-.72c-.16-.06-.45-.11-.5.12S110.61,56.39,110.8,56.45Z" style="fill:#fff;opacity:0.25"></path><path d="M111.8,57.16a10.82,10.82,0,0,0-2-.28V55.77h-1.13v1.11a10.15,10.15,0,0,0-2,.29V58a10.94,10.94,0,0,1,2-.29v1.66h1.13V57.7a10.82,10.82,0,0,1,2,.28Z" style="opacity:0.2"></path><path d="M106.65,57.17a11.23,11.23,0,0,1,2-.3v.35a11.23,11.23,0,0,0-2,.3Z" style="opacity:0.2"></path><path d="M111.8,57.16v.34a10.82,10.82,0,0,0-2-.28v-.35A11.72,11.72,0,0,1,111.8,57.16Z" style="opacity:0.2"></path><rect x="108.66" y="55.77" width="1.13" height="0.43" style="opacity:0.2"></rect></g></g><g id="freepik--Text--inject-126"><g id="freepik--text--inject-126"><path d="M217.55,180.22l7.8-38c.13-.67.62-1,1.47-1h1.4a1.27,1.27,0,0,1,.93.4,1.26,1.26,0,0,1,.4.93c0,.09-.05.36-.13.8l-9.13,42.92a1.82,1.82,0,0,1-1.87,1.6h-1a2,2,0,0,1-2.07-1.6l-8.86-28.12-8.86,28.12a2.06,2.06,0,0,1-2.07,1.6h-1a1.82,1.82,0,0,1-1.87-1.6l-9.13-42.92a6,6,0,0,1-.13-.8,1.26,1.26,0,0,1,.4-.93,1.27,1.27,0,0,1,.93-.4h1.4c.85,0,1.33.33,1.47,1l7.8,38,8.26-27.13a2.55,2.55,0,0,1,.67-1.06,1.89,1.89,0,0,1,1.4-.47h1.46a1.91,1.91,0,0,1,1.4.47,2.65,2.65,0,0,1,.67,1.06Z" style="fill:#455a64"></path><path d="M254.21,140.56a20.87,20.87,0,0,1,7.06,1.14,14.41,14.41,0,0,1,5.5,3.43,15.88,15.88,0,0,1,3.6,5.73,24.58,24.58,0,0,1,1.43,8.1c.09,2,.14,3.86.14,5.6s-.05,3.59-.14,5.59q-.26,9.47-4.79,13.93t-12.8,4.47q-8.34,0-12.83-4.47t-4.77-13.93c-.09-2-.13-3.86-.13-5.59s0-3.6.13-5.6a24.83,24.83,0,0,1,1.44-8.1,15.74,15.74,0,0,1,3.6-5.73,14.48,14.48,0,0,1,5.46-3.43A20.86,20.86,0,0,1,254.21,140.56Zm0,4a15.88,15.88,0,0,0-5.2.83,11,11,0,0,0-4.2,2.64,12.5,12.5,0,0,0-2.83,4.6,21.34,21.34,0,0,0-1.17,6.66c0,1-.07,2-.1,2.8s0,1.67,0,2.47,0,1.63,0,2.5.06,1.78.1,2.76a21.28,21.28,0,0,0,1.17,6.7,12.72,12.72,0,0,0,2.8,4.56,10.79,10.79,0,0,0,4.16,2.64,17.11,17.11,0,0,0,10.53,0,10.75,10.75,0,0,0,4.17-2.64,12.72,12.72,0,0,0,2.8-4.56,21.28,21.28,0,0,0,1.17-6.7q.06-1.47.06-2.76v-5c0-.84,0-1.78-.06-2.8a21.34,21.34,0,0,0-1.17-6.66,12.5,12.5,0,0,0-2.83-4.6,11,11,0,0,0-4.2-2.64A15.88,15.88,0,0,0,254.21,144.56Z" style="fill:#455a64"></path><path d="M299.53,141.23c4.66,0,8.39,1.11,11.16,3.33s4.17,5.6,4.17,10.13q0,5.4-2.63,8.57a13.36,13.36,0,0,1-7.43,4.3l10.73,18.26a1.68,1.68,0,0,1,.2.73,1.37,1.37,0,0,1-1.34,1.33h-.8a2.13,2.13,0,0,1-1.63-.53,6.52,6.52,0,0,1-.9-1.27l-10.6-17.93H286.73v18.27c0,1-.51,1.46-1.53,1.46H284a1.3,1.3,0,0,1-1.47-1.46V142.76q0-1.53,1.47-1.53Zm-12.8,22.93H299.2q11.46,0,11.46-9.47t-11.46-9.46H286.73Z" style="fill:#455a64"></path><path d="M329.39,183.88h23a1.36,1.36,0,0,1,1.53,1.54v1c0,1-.51,1.46-1.53,1.46H326.66a1.3,1.3,0,0,1-1.47-1.46V142.69a1.3,1.3,0,0,1,1.47-1.46h1.26a1.3,1.3,0,0,1,1.47,1.46Z" style="fill:#455a64"></path><path d="M377.37,141.23a28.32,28.32,0,0,1,8.8,1.17,13.17,13.17,0,0,1,5.67,3.46,13.41,13.41,0,0,1,3.06,5.67,30.51,30.51,0,0,1,1,7.69c.05,2,.07,3.77.07,5.3s0,3.3-.07,5.3a35.62,35.62,0,0,1-1,8,12.89,12.89,0,0,1-3,5.63,12.67,12.67,0,0,1-5.57,3.33,28.52,28.52,0,0,1-8.59,1.1H363.18a1.3,1.3,0,0,1-1.47-1.46V142.76q0-1.53,1.47-1.53Zm14.33,18.33a24.05,24.05,0,0,0-.86-6.37,10,10,0,0,0-7-7.1,23.19,23.19,0,0,0-6.77-.86H365.91v38.65h11.46a23.67,23.67,0,0,0,6.7-.8,9.83,9.83,0,0,0,4.37-2.5,10.06,10.06,0,0,0,2.43-4.43,26.49,26.49,0,0,0,.83-6.66c0-1,0-1.87,0-2.67s0-1.56,0-2.3,0-1.49,0-2.26S391.7,160.58,391.7,159.56Z" style="fill:#455a64"></path><path d="M260.9,230.25l4.83-25.5a2.35,2.35,0,0,1,.9-1.58,2.55,2.55,0,0,1,1.44-.45H278a1.67,1.67,0,0,1,1.66,1.66,3.31,3.31,0,0,1-.08.6l-9.73,47.67a3.18,3.18,0,0,1-1.21,2,3.81,3.81,0,0,1-2.56.9h-6.26a3.4,3.4,0,0,1-2.45-.9,5.08,5.08,0,0,1-1.32-2l-5.66-17.05-5.66,17.05a5.08,5.08,0,0,1-1.32,2,3.4,3.4,0,0,1-2.45.9h-6.26a3.81,3.81,0,0,1-2.56-.9,3.18,3.18,0,0,1-1.21-2L221.15,205a3.15,3.15,0,0,1-.07-.6,1.67,1.67,0,0,1,1.65-1.66h9.89a2.54,2.54,0,0,1,1.43.45,2.35,2.35,0,0,1,.9,1.58l4.83,25.5,4.45-13.66a5.62,5.62,0,0,1,.68-1.35,2,2,0,0,1,1.89-.83h7.09a2,2,0,0,1,1.88.83,5.62,5.62,0,0,1,.68,1.35Z" style="fill:#0687F3"></path><path d="M311.74,202.72a3,3,0,0,1,2.3.83,4.85,4.85,0,0,1,1.09,1.66l16.44,47.51a3.57,3.57,0,0,1,.31,1.13,1.67,1.67,0,0,1-1.66,1.66h-9.51a3,3,0,0,1-2.15-.64,2.72,2.72,0,0,1-.79-1.24l-2.11-6.26H295.59l-2.11,6.26a2.72,2.72,0,0,1-.79,1.24,3,3,0,0,1-2.15.64H281a1.67,1.67,0,0,1-1.66-1.66,3.49,3.49,0,0,1,.3-1.13l16.44-47.51a4.74,4.74,0,0,1,1.1-1.66,3,3,0,0,1,2.3-.83Zm-12.22,33h12.22l-6.11-18.1Z" style="fill:#0687F3"></path><path d="M371.47,202.72a2,2,0,0,1,1.44.6,2,2,0,0,1,.6,1.43v8a2,2,0,0,1-.6,1.43,2,2,0,0,1-1.44.6H358.2v38.7a2,2,0,0,1-.6,1.43,2,2,0,0,1-1.44.6h-9.88a2,2,0,0,1-1.43-.6,1.93,1.93,0,0,1-.61-1.43v-38.7H331a2,2,0,0,1-1.43-.6,1.93,1.93,0,0,1-.61-1.43v-8a1.93,1.93,0,0,1,.61-1.43,2,2,0,0,1,1.43-.6Z" style="fill:#0687F3"></path><path d="M418.09,243.45a2,2,0,0,1,2,2v8a2,2,0,0,1-2,2H382.33a2,2,0,0,1-2-2V204.75a2,2,0,0,1,2-2h35.15a2,2,0,0,1,1.44.6,2,2,0,0,1,.6,1.43v8a2,2,0,0,1-.6,1.43,2,2,0,0,1-1.44.6H394.25v8.15h21.57a2,2,0,0,1,2,2v8a2.07,2.07,0,0,1-2,2H394.25v8.45Z" style="fill:#0687F3"></path><path d="M451.27,202.72a34.45,34.45,0,0,1,8.9,1.05,19,19,0,0,1,6.68,3.17,13.87,13.87,0,0,1,4.22,5.39,18.59,18.59,0,0,1,1.47,7.66,17.48,17.48,0,0,1-2.33,9.39,14.89,14.89,0,0,1-6.64,5.69l9.35,18a1.93,1.93,0,0,1,.23.83,1.67,1.67,0,0,1-1.66,1.66H461.23a2.87,2.87,0,0,1-2.15-.67,7,7,0,0,1-1-1.36l-8.37-16.14h-6.94v16.14a2,2,0,0,1-.6,1.43,2,2,0,0,1-1.44.6h-9.88a2,2,0,0,1-2-2V204.75a2,2,0,0,1,2-2Zm-8.52,22.85h8.52a10.28,10.28,0,0,0,5.25-1.21q2.07-1.2,2.07-4.37t-2.07-4.38a10.38,10.38,0,0,0-5.25-1.2h-8.52Z" style="fill:#0687F3"></path><path d="M276,273.26a28.32,28.32,0,0,1,8.8,1.17,13.32,13.32,0,0,1,5.67,3.46,13.54,13.54,0,0,1,3.06,5.67,30.53,30.53,0,0,1,1,7.7c0,2,.07,3.76.07,5.3s0,3.29-.07,5.29a35.54,35.54,0,0,1-1,8,12,12,0,0,1-8.57,9,28.84,28.84,0,0,1-8.59,1.1H261.8a1.3,1.3,0,0,1-1.47-1.47V274.8c0-1,.49-1.54,1.47-1.54Zm14.33,18.33a24,24,0,0,0-.86-6.36,10,10,0,0,0-7-7.1,22.71,22.71,0,0,0-6.76-.87H264.53v38.66H276a24,24,0,0,0,6.7-.8,9.3,9.3,0,0,0,6.8-6.93,26.63,26.63,0,0,0,.83-6.67c0-1,0-1.86,0-2.66s0-1.57,0-2.3,0-1.49,0-2.27S290.32,292.61,290.32,291.59Z" style="fill:#455a64"></path><path d="M331.91,308.25H308.32l-4.13,10.67a3.26,3.26,0,0,1-.47.63,1.31,1.31,0,0,1-1,.37h-1.33a1.37,1.37,0,0,1-1.34-1.34,2.34,2.34,0,0,1,.14-.73l16.86-43.25a2.27,2.27,0,0,1,.7-1,1.94,1.94,0,0,1,1.23-.34h2.27a1.94,1.94,0,0,1,1.23.34,2.27,2.27,0,0,1,.7,1L340,317.85a2.34,2.34,0,0,1,.14.73,1.37,1.37,0,0,1-1.34,1.34h-1.33a1.31,1.31,0,0,1-1-.37,3.26,3.26,0,0,1-.47-.63Zm-22-4h20.39L320.11,278Z" style="fill:#455a64"></path><path d="M358.3,297.79l14.47-23.53a1.77,1.77,0,0,1,1.53-1h1.33A1.37,1.37,0,0,1,377,274.6a2,2,0,0,1-.27.86l-16.26,26.66v16.33c0,1-.52,1.47-1.54,1.47h-1.26a1.3,1.3,0,0,1-1.47-1.47V302.12l-16.26-26.66a2,2,0,0,1-.27-.86,1.37,1.37,0,0,1,1.34-1.34h1.33a1.77,1.77,0,0,1,1.53,1Z" style="fill:#455a64"></path></g></g></svg>